<?xml version="1.0" encoding="utf-8"?>
<!-- Generator: Adobe Illustrator 26.0.3, SVG Export Plug-In . SVG Version: 6.00 Build 0)  -->
<svg version="1.1" id="Layer_1" xmlns="http://www.w3.org/2000/svg" xmlns:xlink="http://www.w3.org/1999/xlink" x="0px" y="0px"
	 viewBox="0 0 1190.6 841.9" style="enable-background:new 0 0 1190.6 841.9;" xml:space="preserve">
<style type="text/css">
	.st0{fill:#8699CF;}
	.st1{fill:#8BD5E8;}
	.st2{fill:#D3EEF4;}
	.st3{fill:#FFFFFF;}
	.st4{fill:#996766;}
	.st5{fill:#B4936F;}
	.st6{fill:#FAF8CC;}
	.st7{fill:#907757;}
	.st8{fill:#D9CBAC;}
	.st9{display:none;}
	.st10{display:inline;}
	.st11{fill:#5B4241;}
	.st12{fill:#85717C;}
	.st13{fill:#8B6565;}
	.st14{opacity:0.3;}
	.st15{fill:#053200;}
	.st16{fill:#315328;}
	.st17{fill:#E3E3E3;}
	.st18{fill:#B94843;}
	.st19{opacity:0.26;enable-background:new    ;}
	.st20{opacity:0.25;enable-background:new    ;}
	.st21{opacity:0.34;enable-background:new    ;}
	.st22{fill:#653636;}
	.st23{fill:#C64E45;}
	.st24{fill:#9ACCCC;}
	.st25{fill:#CDCCCC;}
	.st26{opacity:0.24;enable-background:new    ;}
	.st27{fill:#49453F;}
	.st28{fill:#CACACA;}
	.st29{fill:#B1B1B0;}
	.st30{fill:#6C6A67;}
	.st31{fill:#817F7E;}
	.st32{opacity:0.31;enable-background:new    ;}
	.st33{fill:#333333;}
	.st34{fill:#4E321D;}
	.st35{opacity:0.3;enable-background:new    ;}
	.st36{fill:#00AD5E;}
	.st37{opacity:0.27;enable-background:new    ;}
	.st38{display:inline;opacity:0.46;enable-background:new    ;}
	.st39{display:inline;fill:#817F7E;}
	.st40{display:inline;opacity:0.29;enable-background:new    ;}
	.st41{display:inline;opacity:0.3;enable-background:new    ;}
	.st42{display:inline;opacity:0.31;enable-background:new    ;}
	.st43{display:inline;fill:#6C6A67;}
	.st44{display:inline;opacity:0.33;enable-background:new    ;}
	.st45{display:inline;fill:#9A9B9B;}
	.st46{opacity:0.46;enable-background:new    ;}
	.st47{display:none;fill:#817F7E;}
	.st48{display:none;opacity:0.3;enable-background:new    ;}
	.st49{opacity:0.33;enable-background:new    ;}
	.st50{fill:#9A9B9B;}
	.st51{opacity:0.41;enable-background:new    ;}
	.st52{fill:#80A975;}
	.st53{fill:#84C551;}
</style>
<g id="river">
	<path class="st0" d="M1040.3,675.8H206.6c-14.4,0-26.1-11.7-26.1-26.1l0,0c0-14.4,11.7-26.1,26.1-26.1h833.7
		c14.4,0,26.1,11.7,26.1,26.1l0,0C1066.4,664.1,1054.7,675.8,1040.3,675.8z"/>
	<path class="st0" d="M999.2,728.1H165.5c-14.4,0-26.1-11.7-26.1-26.1l0,0c0-14.4,11.7-26.1,26.1-26.1h833.7
		c14.4,0,26.1,11.7,26.1,26.1l0,0C1025.3,716.3,1013.7,728.1,999.2,728.1z"/>
	<path class="st1" d="M1030.1,659.3H196.4c-14.4,0-26.1-11.7-26.1-26.1l0,0c0-14.4,11.7-26.1,26.1-26.1h833.7
		c14.4,0,26.1,11.7,26.1,26.1l0,0C1056.2,647.6,1044.5,659.3,1030.1,659.3z"/>
	<path class="st1" d="M988.8,711.5H155c-14.4,0-26.1-11.7-26.1-26.1l0,0c0-14.4,11.7-26.1,26.1-26.1h833.7
		c14.4,0,26.1,11.7,26.1,26.1l0,0C1014.9,699.8,1003.2,711.5,988.8,711.5z"/>
	<g>
		<g>
			<path class="st2" d="M221.9,649.6c0-7.1,5.8-12.9,12.9-12.9s12.9,5.8,12.9,12.9h5c0-9.9-8-17.9-17.9-17.9s-17.9,8-17.9,17.9
				H221.9z"/>
			<path class="st2" d="M254,649.6c0-7.1,5.8-12.9,12.9-12.9s12.9,5.8,12.9,12.9h5c0-9.9-8-17.9-17.9-17.9s-17.9,8-17.9,17.9H254z"
				/>
			<path class="st2" d="M285.8,649.6c0-7.1,5.8-12.9,12.9-12.9s12.9,5.8,12.9,12.9h5c0-9.9-8-17.9-17.9-17.9s-17.9,8-17.9,17.9
				H285.8z"/>
			<path class="st2" d="M317.9,649.6c0-7.1,5.8-12.9,12.9-12.9s12.9,5.8,12.9,12.9h5c0-9.9-8-17.9-17.9-17.9s-17.9,8-17.9,17.9
				H317.9z"/>
		</g>
		<g>
			<path class="st3" d="M219.9,646.1c0-7.1,5.8-12.9,12.9-12.9s12.9,5.8,12.9,12.9h5c0-9.9-8-17.9-17.9-17.9s-17.9,8-17.9,17.9
				H219.9z"/>
			<path class="st3" d="M252.1,646.1c0-7.1,5.8-12.9,12.9-12.9s12.9,5.8,12.9,12.9h5c0-9.9-8-17.9-17.9-17.9s-17.9,8-17.9,17.9
				H252.1z"/>
			<path class="st3" d="M283.8,646.1c0-7.1,5.8-12.9,12.9-12.9s12.9,5.8,12.9,12.9h5c0-9.9-8-17.9-17.9-17.9s-17.9,8-17.9,17.9
				H283.8z"/>
			<path class="st3" d="M315.9,646.1c0-7.1,5.8-12.9,12.9-12.9s12.9,5.8,12.9,12.9h5c0-9.9-8-17.9-17.9-17.9s-17.9,8-17.9,17.9
				H315.9z"/>
		</g>
	</g>
	<g>
		<g>
			<path class="st2" d="M317.9,689.1c0-7.1,5.8-12.9,12.9-12.9s12.9,5.8,12.9,12.9h5c0-9.9-8-17.9-17.9-17.9s-17.9,8-17.9,17.9
				H317.9z"/>
			<path class="st2" d="M350,689.1c0-7.1,5.8-12.9,12.9-12.9s12.9,5.8,12.9,12.9h5c0-9.9-8-17.9-17.9-17.9s-17.9,8-17.9,17.9H350z"
				/>
			<path class="st2" d="M381.8,689.1c0-7.1,5.8-12.9,12.9-12.9s12.9,5.8,12.9,12.9h5c0-9.9-8-17.9-17.9-17.9s-17.9,8-17.9,17.9
				H381.8z"/>
			<path class="st2" d="M413.9,689.1c0-7.1,5.8-12.9,12.9-12.9s12.9,5.8,12.9,12.9h5c0-9.9-8-17.9-17.9-17.9s-17.9,8-17.9,17.9
				H413.9z"/>
		</g>
		<g>
			<path class="st3" d="M315.9,685.6c0-7.1,5.8-12.9,12.9-12.9s12.9,5.8,12.9,12.9h5c0-9.9-8-17.9-17.9-17.9s-17.9,8-17.9,17.9
				H315.9z"/>
			<path class="st3" d="M348,685.6c0-7.1,5.8-12.9,12.9-12.9s12.9,5.8,12.9,12.9h5c0-9.9-8-17.9-17.9-17.9s-17.9,8-17.9,17.9H348z"
				/>
			<path class="st3" d="M379.8,685.6c0-7.1,5.8-12.9,12.9-12.9s12.9,5.8,12.9,12.9h5c0-9.9-8-17.9-17.9-17.9s-17.9,8-17.9,17.9
				H379.8z"/>
			<path class="st3" d="M411.9,685.6c0-7.1,5.8-12.9,12.9-12.9s12.9,5.8,12.9,12.9h5c0-9.9-8-17.9-17.9-17.9s-17.9,8-17.9,17.9
				H411.9z"/>
		</g>
	</g>
	<g>
		<g>
			<path class="st2" d="M486.4,651.4c0-7.1,5.8-12.9,12.9-12.9s12.9,5.8,12.9,12.9h5c0-9.9-8-17.9-17.9-17.9s-17.9,8-17.9,17.9
				H486.4z"/>
			<path class="st2" d="M518.5,651.4c0-7.1,5.8-12.9,12.9-12.9s12.9,5.8,12.9,12.9h5c0-9.9-8-17.9-17.9-17.9s-17.9,8-17.9,17.9
				H518.5z"/>
			<path class="st2" d="M550.3,651.4c0-7.1,5.8-12.9,12.9-12.9s12.9,5.8,12.9,12.9h5c0-9.9-8-17.9-17.9-17.9s-17.9,8-17.9,17.9
				H550.3z"/>
			<path class="st2" d="M582.4,651.4c0-7.1,5.8-12.9,12.9-12.9s12.9,5.8,12.9,12.9h5c0-9.9-8-17.9-17.9-17.9s-17.9,8-17.9,17.9
				H582.4z"/>
		</g>
		<g>
			<path class="st3" d="M484.5,647.9c0-7.1,5.8-12.9,12.9-12.9s12.9,5.8,12.9,12.9h5c0-9.9-8-17.9-17.9-17.9s-17.9,8-17.9,17.9
				H484.5z"/>
			<path class="st3" d="M516.6,647.9c0-7.1,5.8-12.9,12.9-12.9s12.9,5.8,12.9,12.9h5c0-9.9-8-17.9-17.9-17.9s-17.9,8-17.9,17.9
				H516.6z"/>
			<path class="st3" d="M548.3,647.9c0-7.1,5.8-12.9,12.9-12.9s12.9,5.8,12.9,12.9h5c0-9.9-8-17.9-17.9-17.9s-17.9,8-17.9,17.9
				H548.3z"/>
			<path class="st3" d="M580.5,647.9c0-7.1,5.8-12.9,12.9-12.9s12.9,5.8,12.9,12.9h5c0-9.9-8-17.9-17.9-17.9s-17.9,8-17.9,17.9
				H580.5z"/>
		</g>
	</g>
	<g>
		<g>
			<path class="st2" d="M587.6,687.4c0-7.1,5.8-12.9,12.9-12.9s12.9,5.8,12.9,12.9h5c0-9.9-8-17.9-17.9-17.9s-17.9,8-17.9,17.9
				H587.6z"/>
			<path class="st2" d="M619.7,687.4c0-7.1,5.8-12.9,12.9-12.9s12.9,5.8,12.9,12.9h5c0-9.9-8-17.9-17.9-17.9s-17.9,8-17.9,17.9
				H619.7z"/>
			<path class="st2" d="M651.5,687.4c0-7.1,5.8-12.9,12.9-12.9s12.9,5.8,12.9,12.9h5c0-9.9-8-17.9-17.9-17.9s-17.9,8-17.9,17.9
				H651.5z"/>
			<path class="st2" d="M683.6,687.4c0-7.1,5.8-12.9,12.9-12.9s12.9,5.8,12.9,12.9h5c0-9.9-8-17.9-17.9-17.9s-17.9,8-17.9,17.9
				H683.6z"/>
		</g>
		<g>
			<path class="st3" d="M585.6,683.8c0-7.1,5.8-12.9,12.9-12.9s12.9,5.8,12.9,12.9h5c0-9.9-8-17.9-17.9-17.9s-17.9,8-17.9,17.9
				H585.6z"/>
			<path class="st3" d="M617.7,683.8c0-7.1,5.8-12.9,12.9-12.9s12.9,5.8,12.9,12.9h5c0-9.9-8-17.9-17.9-17.9s-17.9,8-17.9,17.9
				H617.7z"/>
			<path class="st3" d="M649.5,683.8c0-7.1,5.8-12.9,12.9-12.9s12.9,5.8,12.9,12.9h5c0-9.9-8-17.9-17.9-17.9s-17.9,8-17.9,17.9
				H649.5z"/>
			<path class="st3" d="M681.6,683.8c0-7.1,5.8-12.9,12.9-12.9s12.9,5.8,12.9,12.9h5c0-9.9-8-17.9-17.9-17.9s-17.9,8-17.9,17.9
				H681.6z"/>
		</g>
	</g>
	<g>
		<g>
			<path class="st2" d="M743.4,651.8c0-7.1,5.8-12.9,12.9-12.9s12.9,5.8,12.9,12.9h5c0-9.9-8-17.9-17.9-17.9s-17.9,8-17.9,17.9
				H743.4z"/>
			<path class="st2" d="M775.5,651.8c0-7.1,5.8-12.9,12.9-12.9s12.9,5.8,12.9,12.9h5c0-9.9-8-17.9-17.9-17.9s-17.9,8-17.9,17.9
				H775.5z"/>
			<path class="st2" d="M807.3,651.8c0-7.1,5.8-12.9,12.9-12.9s12.9,5.8,12.9,12.9h5c0-9.9-8-17.9-17.9-17.9s-17.9,8-17.9,17.9
				H807.3z"/>
			<path class="st2" d="M839.4,651.8c0-7.1,5.8-12.9,12.9-12.9s12.9,5.8,12.9,12.9h5c0-9.9-8-17.9-17.9-17.9s-17.9,8-17.9,17.9
				H839.4z"/>
		</g>
		<g>
			<path class="st3" d="M741.4,648.3c0-7.1,5.8-12.9,12.9-12.9s12.9,5.8,12.9,12.9h5c0-9.9-8-17.9-17.9-17.9s-17.9,8-17.9,17.9
				H741.4z"/>
			<path class="st3" d="M773.5,648.3c0-7.1,5.8-12.9,12.9-12.9s12.9,5.8,12.9,12.9h5c0-9.9-8-17.9-17.9-17.9s-17.9,8-17.9,17.9
				H773.5z"/>
			<path class="st3" d="M805.3,648.3c0-7.1,5.8-12.9,12.9-12.9s12.9,5.8,12.9,12.9h5c0-9.9-8-17.9-17.9-17.9s-17.9,8-17.9,17.9
				H805.3z"/>
			<path class="st3" d="M837.4,648.3c0-7.1,5.8-12.9,12.9-12.9s12.9,5.8,12.9,12.9h5c0-9.9-8-17.9-17.9-17.9s-17.9,8-17.9,17.9
				H837.4z"/>
		</g>
	</g>
	<g>
		<g>
			<path class="st2" d="M844.5,687.8c0-7.1,5.8-12.9,12.9-12.9s12.9,5.8,12.9,12.9h5c0-9.9-8-17.9-17.9-17.9s-17.9,8-17.9,17.9
				H844.5z"/>
			<path class="st2" d="M876.6,687.8c0-7.1,5.8-12.9,12.9-12.9s12.9,5.8,12.9,12.9h5c0-9.9-8-17.9-17.9-17.9s-17.9,8-17.9,17.9
				H876.6z"/>
			<path class="st2" d="M908.4,687.8c0-7.1,5.8-12.9,12.9-12.9s12.9,5.8,12.9,12.9h5c0-9.9-8-17.9-17.9-17.9s-17.9,8-17.9,17.9
				H908.4z"/>
			<path class="st2" d="M940.5,687.8c0-7.1,5.8-12.9,12.9-12.9s12.9,5.8,12.9,12.9h5c0-9.9-8-17.9-17.9-17.9s-17.9,8-17.9,17.9
				H940.5z"/>
		</g>
		<g>
			<path class="st3" d="M842.5,684.3c0-7.1,5.8-12.9,12.9-12.9s12.9,5.8,12.9,12.9h5c0-9.9-8-17.9-17.9-17.9s-17.9,8-17.9,17.9
				H842.5z"/>
			<path class="st3" d="M874.6,684.3c0-7.1,5.8-12.9,12.9-12.9s12.9,5.8,12.9,12.9h5c0-9.9-8-17.9-17.9-17.9s-17.9,8-17.9,17.9
				H874.6z"/>
			<path class="st3" d="M906.4,684.3c0-7.1,5.8-12.9,12.9-12.9s12.9,5.8,12.9,12.9h5c0-9.9-8-17.9-17.9-17.9s-17.9,8-17.9,17.9
				H906.4z"/>
			<path class="st3" d="M938.5,684.3c0-7.1,5.8-12.9,12.9-12.9s12.9,5.8,12.9,12.9h5c0-9.9-8-17.9-17.9-17.9s-17.9,8-17.9,17.9
				H938.5z"/>
		</g>
	</g>
</g>
<g id="mountains">
	<g id="XMLID_00000145032534342253209800000000734220162917700791_">
		<g>
			<path class="st4" d="M650.6,175.4l155.8,310.5c-39,0-78,0-116.9,0c-40.7,0-81.3,0-121.9,0c-41.2,0-82.3,0-123.5,0L650.6,175.4z"
				/>
		</g>
	</g>
	<g id="XMLID_00000163064469309186066750000018259837217726046629_">
		<g>
			<path class="st5" d="M572.3,364.9l81.5,164.6c-33.1,0-66.3,0-99.4,0l-27-159l2.9,3.7l12.8-26.2L572.3,364.9z"/>
			<polygon class="st6" points="559.5,337.9 572.3,364.9 502.6,224.3 			"/>
			<polygon class="st6" points="502.6,224.3 572.3,364.9 543.1,348 530.4,374.3 527.5,370.5 			"/>
			<path class="st7" d="M527.5,370.5l27,159c-34.5,0-69.1,0-103.6,0l27.8-163.4l3.8,9.1l27.4-27.1L527.5,370.5z"/>
			<polygon class="st6" points="502.6,224.3 527.5,370.5 509.8,348 482.4,375.2 478.6,366.1 			"/>
			<polygon class="st6" points="502.6,224.3 478.6,366.1 471.6,349.3 431.7,362.4 			"/>
			<path class="st8" d="M471.6,349.3l7,16.8l-27.8,163.4c-35,0-70,0-105,0l85.9-167.1L471.6,349.3z"/>
		</g>
	</g>
	<g id="XMLID_00000170989013865666462670000009815819328265865377_">
		<g>
			<path class="st5" d="M828,356.6l64.1,129.3c-26,0-52.1,0-78.1,0L792.8,361l2.3,2.9l10-20.6L828,356.6z"/>
			<polygon class="st6" points="817.9,335.4 828,356.6 773.3,246.1 			"/>
			<polygon class="st6" points="773.3,246.1 828,356.6 805.1,343.3 795,363.9 792.8,361 			"/>
			<path class="st7" d="M792.8,361L814,485.9c-27.2,0-54.3,0-81.4,0l21.8-128.4l3,7.1l21.5-21.3L792.8,361z"/>
			<polygon class="st6" points="773.3,246.1 792.8,361 778.8,343.3 757.3,364.7 754.3,357.5 			"/>
			<polygon class="st6" points="773.3,246.1 754.3,357.5 748.8,344.3 717.5,354.6 			"/>
			<path class="st8" d="M748.8,344.3l5.5,13.2l-21.8,128.4c-27.5,0-55,0-82.5,0l67.5-131.3L748.8,344.3z"/>
		</g>
	</g>
	<g id="XMLID_00000066499592054483717800000006234616314921534138_" class="st9">
		<g class="st10">
			<path class="st11" d="M-134.8,596.3c-24.7,0-49.4,0-74,0l19.8-116.7l2.7,6.5l19.6-19.4l12.6,16.1L-134.8,596.3z"/>
			<polygon class="st12" points="-171.8,378.3 -171.4,379.3 -171.6,379.8 			"/>
			<polygon class="st6" points="-213,460 -172.3,381.1 -189,479.6 -194.1,467.6 -221.9,477.3 			"/>
			<path class="st12" d="M-122.4,478.1l58.6,118.2c-23.7,0-47.3,0-71,0l-19.3-113.6l2.1,2.6l9.1-18.7L-122.4,478.1z"/>
			<path class="st13" d="M-283.8,596.3l112-218l-0.5,2.8L-213,460l-8.9,17.3l27.9-9.7l5,12l-19.8,116.7
				C-233.9,596.3-258.9,596.3-283.8,596.3z"/>
			<polygon class="st6" points="-131.2,459.4 -121.8,478.4 -122.4,478.1 -171.4,379.3 -170.9,378.3 			"/>
			<polygon class="st6" points="-171.6,379.8 -154.1,482.8 -166.8,466.7 -186.3,486.1 -189,479.6 -172.3,381.1 			"/>
			<polygon class="st6" points="-171.4,379.3 -122.4,478.1 -142.9,466.7 -152,485.4 -154.1,482.8 -171.6,379.8 			"/>
			<polygon class="st11" points="-171.8,378.3 -171.6,379.8 -172.3,381.1 			"/>
		</g>
	</g>
	<g id="XMLID_00000039853689979083626120000007435861538203841197_" class="st14">
		<g>
			<path d="M502.6,224.3l-4.8,305.2c33.1,0,121,0,156,0L502.6,224.3z"/>
		</g>
	</g>
	<g id="XMLID_00000170279689670417823360000005584988182585479044_" class="st14">
		<g>
			<path d="M771.3,485.9c23.7,0,95.8,0,120.8,0L773.2,246.1L771.3,485.9z"/>
		</g>
	</g>
</g>
<g id="ground">
	<path class="st15" d="M1024.5,554.7H190.8c-14.4,0-26.1-11.7-26.1-26.1l0,0c0-14.4,11.7-26.1,26.1-26.1h833.7
		c14.4,0,26.1,11.7,26.1,26.1l0,0C1050.7,543,1038.9,554.7,1024.5,554.7z"/>
	<path class="st15" d="M1085.3,607H251.5c-14.4,0-26.1-11.7-26.1-26.1l0,0c0-14.4,11.7-26.1,26.1-26.1h833.7
		c14.4,0,26.1,11.7,26.1,26.1l0,0C1111.4,595.3,1099.7,607,1085.3,607z"/>
	<path class="st16" d="M1014.3,538.2H180.6c-14.4,0-26.1-11.7-26.1-26.1l0,0c0-14.4,11.7-26.1,22.2-26.1h833.7
		c18.3,0,30,11.7,30,26.1l0,0C1040.4,526.5,1028.8,538.2,1014.3,538.2z"/>
	<path class="st16" d="M1074.8,590.5H241.1c-14.4,0-26.1-11.7-26.1-26.1l0,0c0-14.4,11.7-26.1,26.1-26.1h833.7
		c14.4,0,26.1,11.7,26.1,26.1l0,0C1101,578.8,1089.2,590.5,1074.8,590.5z"/>
</g>
<g id="gres">
	<g>
		<polygon class="st17" points="900.1,167.7 914.1,167.7 919.1,501.4 892.1,501.4 		"/>
		<g>
			<polygon class="st18" points="917.2,377.5 895,377.5 893.9,423.7 917.9,423.7 			"/>
			<polygon class="st18" points="896.7,309.5 895.7,352.1 916.8,352.1 916.2,309.5 			"/>
			<polygon class="st18" points="893.3,449.2 892.1,501.4 919.1,501.4 918.3,449.2 			"/>
			<polygon class="st18" points="914.8,219.4 914.1,167.7 900.1,167.7 898.8,219.4 			"/>
			<polygon class="st18" points="898.2,244.8 897.3,284 915.8,284 915.2,244.8 			"/>
		</g>
		<polygon class="st19" points="914.1,167.7 892.1,501.4 919.1,501.4 		"/>
	</g>
	<circle class="st17" cx="891.4" cy="143.6" r="5.9"/>
	
		<ellipse transform="matrix(0.1624 -0.9867 0.9867 0.1624 603.8267 978.3443)" class="st17" cx="878.2" cy="133.5" rx="12.5" ry="13"/>
	<g>
		<path class="st3" d="M889.7,139c-0.1,0.8-0.3,1.5-0.6,2.2c0.5-0.1,1.1-0.1,1.7,0c2.6,0.3,4.5,2.2,5.1,4.6c0-0.2,0.1-0.4,0.1-0.6
			c0.4-3.2-1.9-6.2-5.2-6.6c-0.4,0-0.7,0-1,0C889.7,138.7,889.7,138.8,889.7,139z"/>
		<path class="st3" d="M864,134.8c1.1-6.8,7.8-11.3,14.8-10.2c5.9,1,10.3,5.7,10.9,11.2c0.7-6.5-4-12.6-10.9-13.7
			c-7.1-1.2-13.7,3.4-14.8,10.2c-0.2,1.1-0.2,2.2-0.1,3.2C864,135.2,864,135,864,134.8z"/>
	</g>
	<circle class="st17" cx="847.4" cy="131.4" r="22.9"/>
	<circle class="st17" cx="817.4" cy="114.6" r="16.7"/>
	<circle class="st17" cx="815.2" cy="143.6" r="17.3"/>
	
		<ellipse transform="matrix(0.1624 -0.9867 0.9867 0.1624 553.5147 872.4034)" class="st17" cx="790.6" cy="110.2" rx="21.8" ry="23.8"/>
	<circle class="st17" cx="782.7" cy="140.2" r="27.5"/>
	<circle class="st17" cx="756.8" cy="113.5" r="18.2"/>
	<circle class="st17" cx="739.6" cy="131.1" r="14.1"/>
	<circle class="st17" cx="753.7" cy="145.2" r="15.1"/>
	<g>
		<path class="st3" d="M760.1,104.1c3.7,0.6,6.9,2.3,9.4,4.6c4.4-8.3,14.4-13.2,25-11.5c7.2,1.2,13.2,5.2,16.7,10.6
			c2.8-1.2,6-1.7,9.2-1.1c7.6,1.2,13.1,7.4,13.8,14.7c4.8-3.4,10.9-5.1,17.1-4c10,1.7,14.8,4.7,16.2,14.2
			c1.9-12.4-3.9-19.1-16.2-21.1c-6.3-1-12.4,0.6-17.1,4c-0.8-7.3-6.3-13.5-13.8-14.7c-3.2-0.5-6.4-0.1-9.2,1.1
			c-3.5-5.4-9.5-9.4-16.7-10.6c-10.6-1.8-20.6,3.2-25,11.5c-2.5-2.3-5.8-4-9.4-4.6c-9.9-1.6-19.3,5.1-20.9,15
			c-0.4,2.2,0.4,5.6,0.8,7.6C741.8,110.2,750.4,102.5,760.1,104.1z"/>
		<path class="st3" d="M807.4,136.9c0.1,0,0.2-0.1,0.2-0.1c-0.2-0.1-0.3-0.2-0.5-0.3C807.2,136.6,807.3,136.7,807.4,136.9z"/>
		<path class="st3" d="M740.1,124.5c-0.4-2.1-0.5-4.3-0.1-6.5c0-0.1,0.1-0.2,0.1-0.4c-6.5,0.3-12.1,5.1-13.2,11.8
			c-0.3,2-0.2,3.9,0.2,5.7C728.7,129,734,124.7,740.1,124.5z"/>
	</g>
	<path class="st20" d="M892.6,147.3c-2.9-0.4-5.1-2.8-5.2-5.6c-2.6,1.7-5.9,2.5-9.3,1.9c-1.2-0.2-2.4-0.6-3.5-1.1l0,0.3l-0.4,1.6
		l-0.6,2.1c0.7,0.2,1.5,0.4,2.2,0.6c3.4,0.6,6.7-0.2,9.3-1.9c0.1,2.8,2.3,5.3,5.2,5.6c3,0.4,5.8-1.6,6.5-4.5
		C895.7,147,894.2,147.5,892.6,147.3z"/>
	<path d="M807.8,119.8c-0.2-0.1-0.3-0.2-0.5-0.3c0.1,0.2,0.2,0.3,0.2,0.5C807.7,119.9,807.8,119.9,807.8,119.8z"/>
	<path class="st21" d="M871.2,140.4c-2.3-2.5-2.2-3.4-2.2-3.4l1.3-11.7c0,0.5-0.1,1-0.2,1.5c-2,12.5-13.8,20.9-26.3,18.9
		c-4.6-0.8-8.6-2.8-11.8-5.8c-2.3,8.4-10.7,13.9-19.5,12.4c-3-0.5-5.7-1.8-8-3.5c-6,7.7-15.9,12-26.2,10.3
		c-6.7-1.1-12.4-4.5-16.5-9.3c-2.3,1.4-5,2.3-8,2.3c-8.4,0-15.1-6.8-15.1-15.1c0,0,0,0,0-0.1c-0.4,0-0.8-0.1-1.2-0.1
		c-2.5-0.4-4.6-1.4-6.5-2.9c-0.3,0.8-0.5,1.7-0.7,2.6c-1.3,7.7,3.9,14.9,11.6,16.2c0.4,0.1,0.8,0.1,1.2,0.1c0,0,0,0,0,0.1
		c0,8.4,6.8,15.1,15.1,15.1c2.9,0,5.7-0.9,8-2.3c4.1,4.8,9.8,8.2,16.5,9.3c10.3,1.7,20.2-2.6,26.2-10.3c2.2,1.8,4.9,3,8,3.5
		c8.8,1.4,17.2-4,19.5-12.4c3.2,2.9,7.2,5,11.8,5.8c12.5,2.1,24.3-6.7,26.3-19.1C874.6,142.5,873.5,142.8,871.2,140.4z"/>
	<circle class="st17" cx="592.5" cy="101.9" r="22.9"/>
	<circle class="st17" cx="562.5" cy="85.1" r="16.7"/>
	<circle class="st17" cx="560.3" cy="114.1" r="17.3"/>
	
		<ellipse transform="matrix(0.1624 -0.9867 0.9867 0.1624 369.0874 596.2782)" class="st17" cx="535.8" cy="80.7" rx="21.8" ry="23.8"/>
	
		<ellipse transform="matrix(0.3827 -0.9239 0.9239 0.3827 223.46 556.0315)" class="st17" cx="527.8" cy="110.8" rx="27.5" ry="27.5"/>
	<circle class="st17" cx="501.9" cy="84.1" r="18.2"/>
	<circle class="st17" cx="484.8" cy="101.7" r="14.1"/>
	
		<ellipse transform="matrix(0.2298 -0.9732 0.9732 0.2298 271.5647 574.6768)" class="st17" cx="498.9" cy="115.8" rx="15.1" ry="15.1"/>
	<g>
		<path class="st3" d="M505.2,74.7c3.7,0.6,6.9,2.3,9.4,4.6c4.4-8.3,14.4-13.2,25-11.5c7.2,1.2,13.2,5.2,16.7,10.6
			c2.8-1.2,6-1.7,9.2-1.1c7.6,1.2,13.1,7.4,13.8,14.7c4.8-3.4,10.9-5.1,17.1-4c10,1.7,14.8,4.7,16.2,14.2
			c1.9-12.4-3.9-19.1-16.2-21.1c-6.3-1-12.4,0.6-17.1,4c-0.8-7.3-6.3-13.5-13.8-14.7c-3.2-0.5-6.4-0.1-9.2,1.1
			c-3.5-5.4-9.5-9.4-16.7-10.6c-10.6-1.8-20.6,3.2-25,11.5c-2.5-2.3-5.8-4-9.4-4.6c-9.9-1.6-19.3,5.1-20.9,15
			c-0.4,2.2,0.4,5.6,0.8,7.6C487,80.7,495.5,73.1,505.2,74.7z"/>
		<path class="st3" d="M552.5,107.5c0.1,0,0.2-0.1,0.2-0.1c-0.2-0.1-0.3-0.2-0.5-0.3C552.4,107.1,552.5,107.3,552.5,107.5z"/>
		<path class="st3" d="M485.3,95c-0.4-2.1-0.5-4.3-0.1-6.5c0-0.1,0.1-0.2,0.1-0.4c-6.5,0.3-12.1,5.1-13.2,11.8
			c-0.3,2-0.2,3.9,0.2,5.7C473.9,99.6,479.2,95.3,485.3,95z"/>
	</g>
	<path d="M553,90.4c-0.2-0.1-0.3-0.2-0.5-0.3c0.1,0.2,0.2,0.3,0.2,0.5C552.8,90.5,552.9,90.5,553,90.4z"/>
	<path class="st21" d="M614.8,96.9C614.8,97.4,614.9,96.3,614.8,96.9c-2,12.5-13.4,21.5-25.8,19.4c-4.6-0.8-8.6-2.8-11.8-5.8
		c-2.3,8.4-10.7,13.9-19.5,12.4c-3-0.5-5.7-1.8-8-3.5c-6,7.7-15.9,12-26.2,10.3c-6.7-1.1-12.4-4.5-16.5-9.3c-2.3,1.4-5,2.3-8,2.3
		c-8.4,0-15.1-6.8-15.1-15.1c0,0,0,0,0-0.1c-0.4,0-0.8-0.1-1.2-0.1c-2.5-0.4-4.6-1.4-6.5-2.9c-0.3,0.8-0.5,1.7-0.7,2.6
		c-1.3,7.7,3.9,14.9,11.6,16.2c0.4,0.1,0.8,0.1,1.2,0.1c0,0,0,0,0,0.1c0,8.4,6.8,15.1,15.1,15.1c2.9,0,5.7-0.9,8-2.3
		c4.1,4.8,9.8,8.2,16.5,9.3c10.3,1.7,20.2-2.6,26.2-10.3c2.2,1.8,4.9,3,8,3.5c8.8,1.4,17.2-4,19.5-12.4c3.2,2.9,7.2,5,11.8,5.8
		c6.2,1,12.1-1.8,16.6-5.9c5.7-5.1,8.2-12.9,7-20.4L614.8,96.9z"/>
	<circle class="st17" cx="351.8" cy="200.3" r="22.9"/>
	<circle class="st17" cx="321.8" cy="183.4" r="16.7"/>
	<circle class="st17" cx="319.6" cy="212.5" r="17.3"/>
	
		<ellipse transform="matrix(0.1624 -0.9867 0.9867 0.1624 70.4412 441.0973)" class="st17" cx="295" cy="179.1" rx="21.8" ry="23.8"/>
	<circle class="st17" cx="287.1" cy="209.1" r="27.5"/>
	<circle class="st17" cx="261.2" cy="182.4" r="18.2"/>
	
		<ellipse transform="matrix(0.1602 -0.9871 0.9871 0.1602 7.5104 408.8875)" class="st17" cx="244.1" cy="200" rx="14.1" ry="14.1"/>
	<circle class="st17" cx="258.1" cy="214.1" r="15.1"/>
	<g>
		<path class="st3" d="M264.5,173c3.7,0.6,6.9,2.3,9.4,4.6c4.4-8.3,14.4-13.2,25-11.5c7.2,1.2,13.2,5.2,16.7,10.6
			c2.8-1.2,6-1.7,9.2-1.1c7.6,1.2,13.1,7.4,13.9,14.7c4.8-3.4,10.9-5.1,17.1-4c10,1.6,14.8,4.7,16.2,14.2
			c1.9-12.4-3.9-19.1-16.2-21.1c-6.3-1-12.4,0.6-17.1,4c-0.8-7.3-6.3-13.5-13.9-14.7c-3.2-0.5-6.4-0.1-9.2,1.1
			c-3.5-5.4-9.5-9.4-16.7-10.6c-10.6-1.8-20.6,3.2-25,11.5c-2.5-2.4-5.8-4-9.4-4.6c-9.9-1.6-19.3,5.1-20.9,15
			c-0.4,2.2,0.4,5.6,0.8,7.6C246.3,179.1,254.8,171.4,264.5,173z"/>
		<path class="st3" d="M311.8,205.8c0.1,0,0.2-0.1,0.2-0.1c-0.2-0.1-0.3-0.2-0.5-0.3C311.6,205.5,311.7,205.6,311.8,205.8z"/>
		<path class="st3" d="M244.6,193.4c-0.4-2.1-0.5-4.3-0.1-6.5c0-0.1,0.1-0.2,0.1-0.4c-6.5,0.3-12.1,5.1-13.2,11.8
			c-0.3,2-0.2,3.9,0.2,5.7C233.1,197.9,238.4,193.6,244.6,193.4z"/>
	</g>
	<path d="M312.3,188.7c-0.2-0.1-0.3-0.2-0.5-0.3c0.1,0.2,0.1,0.3,0.2,0.5C312.1,188.8,312.2,188.8,312.3,188.7z"/>
	<path class="st21" d="M374.1,195.2C374,195.7,374.2,194.7,374.1,195.2c-2,12.5-13.4,21.5-25.8,19.4c-4.6-0.8-8.6-2.8-11.8-5.8
		c-2.3,8.4-10.6,13.9-19.5,12.4c-3-0.5-5.7-1.8-8-3.5c-6,7.7-15.9,12-26.2,10.3c-6.7-1.1-12.4-4.5-16.5-9.3c-2.3,1.4-5,2.3-8,2.3
		c-8.4,0-15.1-6.8-15.1-15.1c0,0,0,0,0-0.1c-0.4,0-0.8-0.1-1.2-0.1c-2.4-0.4-4.6-1.4-6.5-2.9c-0.3,0.8-0.5,1.7-0.7,2.6
		c-1.3,7.7,3.9,14.9,11.6,16.2c0.4,0.1,0.8,0.1,1.2,0.1c0,0,0,0,0,0.1c0,8.4,6.8,15.1,15.1,15.1c2.9,0,5.7-0.9,8-2.3
		c4.1,4.8,9.8,8.2,16.5,9.3c10.3,1.7,20.2-2.6,26.2-10.3c2.2,1.8,4.9,3,8,3.5c8.8,1.4,17.1-4,19.5-12.4c3.2,2.9,7.2,5,11.8,5.8
		c6.2,1,12.1-1.8,16.6-5.9c5.7-5.1,8.2-12.9,7-20.4L374.1,195.2z"/>
</g>
<g id="sun">
</g>
<g id="house">
	<g>
		<rect x="209" y="331.1" class="st22" width="266.9" height="165.1"/>
		<rect x="201.6" y="337" class="st23" width="266.9" height="165.1"/>
		<rect x="307" y="431.8" class="st24" width="52.3" height="46.4"/>
		<g>
			<polygon class="st25" points="307,447.9 307,449.2 324.4,431.8 323.1,431.8 			"/>
			<polygon class="st25" points="338.9,431.8 337.9,431.8 307,462.6 307,463.7 			"/>
			<polygon class="st25" points="346.1,431.8 345.2,431.8 307,470 307,470.9 			"/>
			<polygon class="st25" points="359.3,431.8 349.5,431.8 307,474.2 307,478.2 316.1,478.2 359.3,435.1 			"/>
			<polygon class="st25" points="335.3,431.8 325.4,431.8 307,450.2 307,460.1 			"/>
			<polygon class="st25" points="320,431.8 307,431.8 307,444.8 			"/>
			<polygon class="st25" points="352.4,478.2 359.3,478.2 359.3,471.4 			"/>
			<polygon class="st25" points="359.3,441.4 359.3,439.2 320.2,478.2 322.5,478.2 			"/>
			<polygon class="st25" points="359.3,469.7 359.3,458.7 339.7,478.2 350.8,478.2 			"/>
			<polygon class="st25" points="359.3,456.1 359.3,448.7 329.8,478.2 337.1,478.2 			"/>
		</g>
		<g>
			<rect x="223.1" y="359.3" class="st24" width="52.3" height="46.4"/>
			<g>
				<polygon class="st25" points="239.2,359.3 223.1,375.4 223.1,376.7 240.5,359.3 				"/>
				<polygon class="st25" points="253.9,359.3 223.1,390.2 223.1,391.3 255,359.3 				"/>
				<polygon class="st25" points="261.3,359.3 223.1,397.5 223.1,398.4 262.1,359.3 				"/>
				<polygon class="st25" points="265.5,359.3 223.1,401.8 223.1,405.7 232.2,405.7 275.3,362.6 275.3,359.3 				"/>
				<polygon class="st25" points="241.5,359.3 223.1,377.7 223.1,387.6 251.4,359.3 				"/>
				<polygon class="st25" points="223.1,359.3 223.1,372.3 236.1,359.3 				"/>
				<polygon class="st25" points="275.3,405.7 275.3,398.9 268.5,405.7 				"/>
				<polygon class="st25" points="238.6,405.7 275.3,369 275.3,366.7 236.3,405.7 				"/>
				<polygon class="st25" points="266.8,405.7 275.3,397.2 275.3,386.2 255.8,405.7 				"/>
				<polygon class="st25" points="253.2,405.7 275.3,383.6 275.3,376.3 245.9,405.7 				"/>
			</g>
		</g>
		<g>
			<rect x="307" y="359.3" class="st24" width="52.3" height="46.4"/>
			<g>
				<polygon class="st25" points="323.1,359.3 307,375.4 307,376.7 324.4,359.3 				"/>
				<polygon class="st25" points="337.9,359.3 307,390.2 307,391.3 338.9,359.3 				"/>
				<polygon class="st25" points="345.2,359.3 307,397.5 307,398.4 346.1,359.3 				"/>
				<polygon class="st25" points="349.5,359.3 307,401.8 307,405.7 316.1,405.7 359.3,362.6 359.3,359.3 				"/>
				<polygon class="st25" points="325.4,359.3 307,377.7 307,387.6 335.3,359.3 				"/>
				<polygon class="st25" points="307,359.3 307,372.3 320,359.3 				"/>
				<polygon class="st25" points="359.3,405.7 359.3,398.9 352.4,405.7 				"/>
				<polygon class="st25" points="322.5,405.7 359.3,369 359.3,366.7 320.2,405.7 				"/>
				<polygon class="st25" points="350.8,405.7 359.3,397.2 359.3,386.2 339.7,405.7 				"/>
				<polygon class="st25" points="337.1,405.7 359.3,383.6 359.3,376.3 329.8,405.7 				"/>
			</g>
		</g>
		<g>
			<rect x="390.9" y="359.3" class="st24" width="52.3" height="46.4"/>
			<g>
				<polygon class="st25" points="407,359.3 390.9,375.4 390.9,376.7 408.3,359.3 				"/>
				<polygon class="st25" points="421.8,359.3 390.9,390.2 390.9,391.3 422.9,359.3 				"/>
				<polygon class="st25" points="429.1,359.3 390.9,397.5 390.9,398.4 430,359.3 				"/>
				<polygon class="st25" points="433.4,359.3 390.9,401.8 390.9,405.7 400,405.7 443.2,362.6 443.2,359.3 				"/>
				<polygon class="st25" points="409.3,359.3 390.9,377.7 390.9,387.6 419.2,359.3 				"/>
				<polygon class="st25" points="390.9,359.3 390.9,372.3 403.9,359.3 				"/>
				<polygon class="st25" points="443.2,405.7 443.2,398.9 436.4,405.7 				"/>
				<polygon class="st25" points="406.4,405.7 443.2,369 443.2,366.7 404.2,405.7 				"/>
				<polygon class="st25" points="434.7,405.7 443.2,397.2 443.2,386.2 423.7,405.7 				"/>
				<polygon class="st25" points="421.1,405.7 443.2,383.6 443.2,376.3 413.7,405.7 				"/>
			</g>
		</g>
		<g>
			<rect x="390.9" y="431.8" class="st24" width="52.3" height="46.4"/>
			<g>
				<polygon class="st25" points="407,431.8 390.9,447.9 390.9,449.2 408.3,431.8 				"/>
				<polygon class="st25" points="421.8,431.8 390.9,462.6 390.9,463.7 422.9,431.8 				"/>
				<polygon class="st25" points="429.1,431.8 390.9,470 390.9,470.9 430,431.8 				"/>
				<polygon class="st25" points="433.4,431.8 390.9,474.2 390.9,478.2 400,478.2 443.2,435.1 443.2,431.8 				"/>
				<polygon class="st25" points="409.3,431.8 390.9,450.2 390.9,460.1 419.2,431.8 				"/>
				<polygon class="st25" points="390.9,431.8 390.9,444.8 403.9,431.8 				"/>
				<polygon class="st25" points="443.2,478.2 443.2,471.4 436.4,478.2 				"/>
				<polygon class="st25" points="406.4,478.2 443.2,441.4 443.2,439.2 404.2,478.2 				"/>
				<polygon class="st25" points="434.7,478.2 443.2,469.7 443.2,458.7 423.7,478.2 				"/>
				<polygon class="st25" points="421.1,478.2 443.2,456.1 443.2,448.7 413.7,478.2 				"/>
			</g>
		</g>
		<g>
			<rect x="223.1" y="431.8" class="st24" width="52.3" height="46.4"/>
			<g>
				<polygon class="st25" points="239.2,431.8 223.1,447.9 223.1,449.2 240.5,431.8 				"/>
				<polygon class="st25" points="253.9,431.8 223.1,462.6 223.1,463.7 255,431.8 				"/>
				<polygon class="st25" points="261.3,431.8 223.1,470 223.1,470.9 262.1,431.8 				"/>
				<polygon class="st25" points="265.5,431.8 223.1,474.2 223.1,478.2 232.2,478.2 275.3,435.1 275.3,431.8 				"/>
				<polygon class="st25" points="241.5,431.8 223.1,450.2 223.1,460.1 251.4,431.8 				"/>
				<polygon class="st25" points="223.1,431.8 223.1,444.8 236.1,431.8 				"/>
				<polygon class="st25" points="275.3,478.2 275.3,471.4 268.5,478.2 				"/>
				<polygon class="st25" points="238.6,478.2 275.3,441.4 275.3,439.2 236.3,478.2 				"/>
				<polygon class="st25" points="266.8,478.2 275.3,469.7 275.3,458.7 255.8,478.2 				"/>
				<polygon class="st25" points="253.2,478.2 275.3,456.1 275.3,448.7 245.9,478.2 				"/>
			</g>
		</g>
		<path class="st3" d="M390.9,431.8v46.4h52.3v-46.4H390.9z M408,474.9H394v-39.8H408V474.9z M423.2,474.9h-12.4v-39.8h12.4V474.9z
			 M440.2,474.9h-13.9v-39.8h13.9V474.9z"/>
		<path class="st3" d="M307,431.8v46.4h52.3v-46.4H307z M324,474.9h-13.9v-39.8H324V474.9z M339.3,474.9h-12.4v-39.8h12.4V474.9z
			 M356.3,474.9h-13.9v-39.8h13.9V474.9z"/>
		<path class="st3" d="M223.1,431.8v46.4h52.3v-46.4H223.1z M240.1,474.9h-13.9v-39.8h13.9V474.9z M255.4,474.9H243v-39.8h12.4
			V474.9z M272.4,474.9h-13.9v-39.8h13.9V474.9z"/>
		<path class="st3" d="M390.9,359.3v46.4h52.3v-46.4H390.9z M408,402.4H394v-39.8H408V402.4z M423.2,402.4h-12.4v-39.8h12.4V402.4z
			 M440.2,402.4h-13.9v-39.8h13.9V402.4z"/>
		<path class="st3" d="M307,359.3v46.4h52.3v-46.4H307z M324,402.4h-13.9v-39.8H324V402.4z M339.3,402.4h-12.4v-39.8h12.4V402.4z
			 M356.3,402.4h-13.9v-39.8h13.9V402.4z"/>
		<path class="st3" d="M223.1,359.3v46.4h52.3v-46.4H223.1z M240.1,402.4h-13.9v-39.8h13.9V402.4z M255.4,402.4H243v-39.8h12.4
			V402.4z M272.4,402.4h-13.9v-39.8h13.9V402.4z"/>
		<polygon class="st26" points="201.6,502.1 468.5,502.1 468.5,337 		"/>
		<g>
			<rect x="242" y="330.7" class="st27" width="14.4" height="6.3"/>
			<rect x="233.3" y="310.7" class="st28" width="31.8" height="20.1"/>
			<rect x="237.6" y="310.7" class="st29" width="7.8" height="20.1"/>
			<rect x="253.1" y="310.7" class="st30" width="7.8" height="20.1"/>
			<rect x="245.3" y="310.7" class="st31" width="7.8" height="20.1"/>
			<polygon class="st32" points="265.1,310.7 233.3,330.7 265.1,330.7 			"/>
		</g>
		<g>
			<rect x="325.9" y="330.7" class="st27" width="14.5" height="6.3"/>
			<rect x="317.2" y="310.7" class="st28" width="31.8" height="20.1"/>
			<rect x="321.5" y="310.7" class="st29" width="7.8" height="20.1"/>
			<rect x="337" y="310.7" class="st30" width="7.8" height="20.1"/>
			<rect x="329.2" y="310.7" class="st31" width="7.8" height="20.1"/>
			<polygon class="st32" points="349,310.7 317.2,330.7 349,330.7 			"/>
		</g>
		<g>
			<rect x="412" y="330.7" class="st27" width="14.5" height="6.3"/>
			<rect x="403.4" y="310.7" class="st28" width="31.8" height="20.1"/>
			<rect x="407.6" y="310.7" class="st29" width="7.8" height="20.1"/>
			<rect x="423.1" y="310.7" class="st30" width="7.8" height="20.1"/>
			<rect x="415.4" y="310.7" class="st31" width="7.8" height="20.1"/>
			<polygon class="st32" points="435.1,310.7 403.4,330.7 435.1,330.7 			"/>
		</g>
	</g>
</g>
<g id="vishka">
	<g>
		<path class="st33" d="M690.7,414.3h3.5v-81.4h9.6l-57.3-57.4l-57.3,57.4h7.7v81.4h4.2L584,498.2h18.3l5.1-25.2h77l5.1,25.2h18.3
			L690.7,414.3z M610.9,333h35v1.2h-35V333z M622.6,357.3h46.1v31.4h-46.1V357.3z M610.9,456l8.5-41.7h53.1l8.5,41.7H610.9z
			 M682.7,346.5h-42.6V345h42.6V346.5z"/>
		<path class="st34" d="M684.8,416.6h3.5v-81.4h9.6l-57.3-57.4l-57.3,57.4h7.7v81.4h4.2l-17.1,83.9h18.3l5.1-25.2h77l5.1,25.2h18.3
			L684.8,416.6z M605,335.3h35v1.2h-35V335.3z M616.7,359.6h46.1V391h-46.1V359.6z M605,458.3l8.5-41.7h53.1l8.5,41.7H605z
			 M676.8,348.8h-42.6v-1.5h42.6V348.8z"/>
		<polygon class="st35" points="684.3,416.6 687.8,416.6 687.8,335.2 697.4,335.2 640.1,277.8 640.1,347.4 676.2,347.4 676.2,348.8 
			640.1,348.8 640.1,359.6 662.2,359.6 662.2,391 640.1,391 640.1,416.6 666,416.6 674.5,458.3 640.1,458.3 640.1,475.3 678,475.3 
			683.1,500.5 701.4,500.5 		"/>
	</g>
</g>
<g id="tree_and_gul">
	<g>
		<polygon class="st36" points="295.3,468 273.9,468 273.9,466 294.6,466 286.7,442.5 272.8,442.5 272.8,440.5 286,440.5 
			276.8,413.2 265.5,413.2 265.5,411.2 276.1,411.2 268.6,388.9 262.7,388.9 262.7,386.9 267.9,386.9 258.8,360 244.1,402.4 
			255.1,402.4 255.1,404.5 243.4,404.5 235.1,428.6 249.9,428.6 249.9,430.6 234.4,430.6 227.7,450.1 241.1,450.1 241.1,452.2 
			227,452.2 216.2,483.7 300.7,483.9 		"/>
		<polygon class="st35" points="258.4,483.8 300.7,483.9 295.3,468 273.9,468 273.9,466 294.6,466 286.7,442.5 272.8,442.5 
			272.8,440.5 286,440.5 276.8,413.2 265.5,413.2 265.5,411.2 276.1,411.2 268.6,388.9 262.7,388.9 262.7,386.9 267.9,386.9 
			258.8,360 258.4,360.9 		"/>
		<path class="st7" d="M259.3,522.4h-2.2c-1.9,0-3.4-1.5-3.4-3.4v-99.9c0-1.9,1.5-3.4,3.4-3.4h2.2c1.9,0,3.4,1.5,3.4,3.4V519
			C262.7,520.8,261.2,522.4,259.3,522.4z"/>
		<path class="st37" d="M259.3,415.7h-1.1v106.6h1.1c1.9,0,3.4-1.5,3.4-3.4v-99.9C262.7,417.3,261.2,415.7,259.3,415.7z"/>
	</g>
	<g>
		<polygon class="st36" points="523.9,475.8 501.8,475.8 501.8,474 523.2,474 515,454 500.6,454 500.6,452.2 514.3,452.2 
			504.8,428.9 493.1,428.9 493.1,427.1 504,427.1 496.3,408 490.2,408 490.2,406.2 495.6,406.2 486.2,383.2 471.1,419.6 
			482.4,419.6 482.4,421.4 470.4,421.4 461.8,442 477,442 477,443.8 461.1,443.8 454.1,460.5 468,460.5 468,462.2 453.4,462.2 
			442.2,489.2 529.5,489.4 		"/>
		<polygon class="st35" points="485.8,489.3 529.5,489.4 523.9,475.8 501.8,475.8 501.8,474 523.2,474 515,454 500.6,454 
			500.6,452.2 514.3,452.2 504.8,428.9 493.1,428.9 493.1,427.1 504,427.1 496.3,408 490.2,408 490.2,406.2 495.6,406.2 
			486.2,383.2 485.8,384 		"/>
		<path class="st7" d="M486.9,522.4h-2.5c-1.9,0-3.4-1.5-3.4-3.4v-84.6c0-1.9,1.5-3.4,3.4-3.4h2.5c1.9,0,3.4,1.5,3.4,3.4V519
			C490.2,520.8,488.7,522.4,486.9,522.4z"/>
		<path class="st37" d="M486.7,431h-1.1v91.4h1.1c1.9,0,3.5-1.3,3.5-2.9v-85.5C490.2,432.3,488.7,431,486.7,431z"/>
	</g>
	<g>
		<path class="st29" d="M430.9,469.2h3.6L413,424.5l-21.5,44.8h3.6l3.7-7.8h12.1v67.4h4.7v-67.4h11.6L430.9,469.2z M400.4,458.2
			l12.6-26.3l12.6,26.3H400.4z"/>
		<polygon class="st32" points="413,424.5 413,424.5 413,431.9 425.6,458.2 413,458.2 413,528.9 415.6,528.9 415.6,461.5 
			427.2,461.5 430.9,469.2 434.5,469.2 		"/>
	</g>
	<g>
		<path class="st29" d="M537.5,491h3.6l-21.5-44.8L498.1,491h3.6l3.7-7.8h12.1v67.4h4.7v-67.4h11.6L537.5,491z M507,479.9l12.6-26.3
			l12.6,26.3H507z"/>
		<polygon class="st32" points="519.6,446.2 519.6,446.2 519.6,453.7 532.2,479.9 519.6,479.9 519.6,550.7 522.2,550.7 522.2,483.2 
			533.8,483.2 537.5,491 541.1,491 		"/>
	</g>
	<g>
		<path class="st29" d="M311.9,476.5h3.6L294,431.7l-21.5,44.8h3.6l3.7-7.8h12.1v67.4h4.7v-67.4h11.6L311.9,476.5z M281.4,465.5
			l12.6-26.3l12.6,26.3H281.4z"/>
		<polygon class="st32" points="294,431.7 294,431.7 294,439.2 306.6,465.5 294,465.5 294,536.2 296.6,536.2 296.6,468.8 
			308.2,468.8 311.9,476.5 315.5,476.5 		"/>
	</g>
	<g>
		<polygon class="st36" points="410.2,489.9 390.8,489.9 390.8,488 409.6,488 402.4,466.9 389.8,466.9 389.8,465.1 401.8,465.1 
			393.4,440.5 383.2,440.5 383.2,438.6 392.8,438.6 386,418.6 380.7,418.6 380.7,416.7 385.3,416.7 377.1,392.5 363.9,430.8 
			373.8,430.8 373.8,432.6 363.2,432.6 355.7,454.4 369,454.4 369,456.2 355.1,456.2 349,473.8 361.1,473.8 361.1,475.6 
			348.4,475.6 338.5,504 415.1,504.2 		"/>
		<polygon class="st35" points="376.8,504.1 415.1,504.2 410.2,489.9 390.8,489.9 390.8,488 409.6,488 402.4,466.9 389.8,466.9 
			389.8,465.1 401.8,465.1 393.4,440.5 383.2,440.5 383.2,438.6 392.8,438.6 386,418.6 380.7,418.6 380.7,416.7 385.3,416.7 
			377.1,392.5 376.8,393.4 		"/>
		<path class="st7" d="M377.3,538.9H376c-1.9,0-3.4-1.5-3.4-3.4v-89.3c0-1.9,1.5-3.4,3.4-3.4h1.3c1.9,0,3.4,1.5,3.4,3.4v89.3
			C380.7,537.4,379.1,538.9,377.3,538.9z"/>
		<path class="st37" d="M377.6,442.8h-1v96.1h1c1.7,0,3.1-1.4,3.1-3v-90C380.7,444.1,379.3,442.8,377.6,442.8z"/>
	</g>
	<g>
		<polygon class="st36" points="616,449.8 592.6,449.8 592.6,447.5 615.2,447.5 606.6,421.9 591.4,421.9 591.4,419.6 605.8,419.6 
			595.7,389.7 583.3,389.7 583.3,387.5 595,387.5 586.7,363.1 580.3,363.1 580.3,360.8 586,360.8 576,331.4 560,377.9 572.1,377.9 
			572.1,380.2 559.3,380.2 550.2,406.6 566.3,406.6 566.3,408.8 549.4,408.8 542.1,430.2 556.8,430.2 556.8,432.5 541.3,432.5 
			529.5,467 621.9,467.2 		"/>
		<polygon class="st35" points="575.7,467.1 621.9,467.2 616,449.8 592.6,449.8 592.6,447.5 615.2,447.5 606.6,421.9 591.4,421.9 
			591.4,419.6 605.8,419.6 595.7,389.7 583.3,389.7 583.3,387.5 595,387.5 586.7,363.1 580.3,363.1 580.3,360.8 586,360.8 
			576,331.4 575.7,332.4 		"/>
		<path class="st7" d="M577,509.4h-3c-1.9,0-3.4-1.5-3.4-3.4V395.9c0-1.9,1.5-3.4,3.4-3.4h3c1.9,0,3.4,1.5,3.4,3.4V506
			C580.3,507.9,578.8,509.4,577,509.4z"/>
		<path class="st37" d="M576.6,392.5h-1.2v116.9h1.2c2,0,3.7-1.7,3.7-3.7V396.2C580.3,394.2,578.7,392.5,576.6,392.5z"/>
	</g>
	<g>
		<polygon class="st36" points="727.8,468 706.5,468 706.5,466 727.1,466 719.2,442.5 705.3,442.5 705.3,440.5 718.5,440.5 
			709.3,413.2 698,413.2 698,411.2 708.6,411.2 701.1,388.9 695.2,388.9 695.2,386.9 700.4,386.9 691.3,360 676.7,402.4 
			687.7,402.4 687.7,404.5 676,404.5 667.7,428.6 682.4,428.6 682.4,430.6 667,430.6 660.2,450.1 673.7,450.1 673.7,452.2 
			659.5,452.2 648.7,483.7 733.2,483.9 		"/>
		<polygon class="st35" points="691,483.8 733.2,483.9 727.8,468 706.5,468 706.5,466 727.1,466 719.2,442.5 705.3,442.5 
			705.3,440.5 718.5,440.5 709.3,413.2 698,413.2 698,411.2 708.6,411.2 701.1,388.9 695.2,388.9 695.2,386.9 700.4,386.9 
			691.3,360 691,360.9 		"/>
		<path class="st7" d="M691.8,522.4h-2.2c-1.9,0-3.4-1.5-3.4-3.4v-99.9c0-1.9,1.5-3.4,3.4-3.4h2.2c1.9,0,3.4,1.5,3.4,3.4V519
			C695.2,520.8,693.7,522.4,691.8,522.4z"/>
		<path class="st37" d="M691.8,415.7h-1.1v106.6h1.1c1.9,0,3.4-1.5,3.4-3.4v-99.9C695.2,417.3,693.7,415.7,691.8,415.7z"/>
	</g>
	<g>
		<polygon class="st36" points="924.8,472.3 902.9,472.3 902.9,470.4 924.1,470.4 916,448.5 901.7,448.5 901.7,446.6 915.3,446.6 
			905.8,421.2 894.2,421.2 894.2,419.3 905.1,419.3 897.4,398.6 891.4,398.6 891.4,396.6 896.7,396.6 887.4,371.6 872.4,411.2 
			883.7,411.2 883.7,413.1 871.7,413.1 863.2,435.5 878.3,435.5 878.3,437.5 862.5,437.5 855.6,455.6 869.4,455.6 869.4,457.5 
			854.9,457.5 843.8,486.9 930.3,487.1 		"/>
		<polygon class="st35" points="887,487 930.3,487.1 924.8,472.3 902.9,472.3 902.9,470.4 924.1,470.4 916,448.5 901.7,448.5 
			901.7,446.6 915.3,446.6 905.8,421.2 894.2,421.2 894.2,419.3 905.1,419.3 897.4,398.6 891.4,398.6 891.4,396.6 896.7,396.6 
			887.4,371.6 887,372.5 		"/>
		<path class="st7" d="M888,522.9h-2.4c-1.9,0-3.4-1.5-3.4-3.4v-92.6c0-1.9,1.5-3.4,3.4-3.4h2.4c1.9,0,3.4,1.5,3.4,3.4v92.6
			C891.4,521.4,889.9,522.9,888,522.9z"/>
		<path class="st37" d="M888,423.6h-1.1v99.4h1.1c1.9,0,3.5-1.4,3.5-3.2v-93C891.4,425,889.9,423.6,888,423.6z"/>
	</g>
	<g>
		<polygon class="st36" points="1020.4,479.6 999,479.6 999,477.6 1019.7,477.6 1011.8,454.2 997.9,454.2 997.9,452.1 1011.1,452.1 
			1001.9,424.8 990.5,424.8 990.5,422.8 1001.2,422.8 993.7,400.5 987.8,400.5 987.8,398.5 993,398.5 983.9,371.6 969.2,414.1 
			980.2,414.1 980.2,416.1 968.5,416.1 960.2,440.2 975,440.2 975,442.3 959.5,442.3 952.8,461.8 966.2,461.8 966.2,463.8 
			952.1,463.8 941.3,495.3 1025.8,495.6 		"/>
		<polygon class="st35" points="983.5,495.5 1025.8,495.6 1020.4,479.6 999,479.6 999,477.6 1019.7,477.6 1011.8,454.2 997.9,454.2 
			997.9,452.1 1011.1,452.1 1001.9,424.8 990.5,424.8 990.5,422.8 1001.2,422.8 993.7,400.5 987.8,400.5 987.8,398.5 993,398.5 
			983.9,371.6 983.5,372.6 		"/>
		<path class="st7" d="M984.4,534h-2.2c-1.9,0-3.4-1.5-3.4-3.4v-99.9c0-1.9,1.5-3.4,3.4-3.4h2.2c1.9,0,3.4,1.5,3.4,3.4v99.9
			C987.8,532.5,986.3,534,984.4,534z"/>
		<path class="st37" d="M984.4,427.4h-1.1V534h1.1c1.9,0,3.4-1.5,3.4-3.4v-99.9C987.8,428.9,986.3,427.4,984.4,427.4z"/>
	</g>
	<g>
		<path class="st29" d="M735,469.2h3.6l-21.5-44.8l-21.5,44.8h3.6l3.7-7.8H715v67.4h4.7v-67.4h11.6L735,469.2z M704.5,458.2
			l12.6-26.3l12.6,26.3H704.5z"/>
		<polygon class="st32" points="717.1,424.5 717.1,424.5 717.1,431.9 729.7,458.2 717.1,458.2 717.1,528.9 719.7,528.9 719.7,461.5 
			731.3,461.5 735,469.2 738.6,469.2 		"/>
	</g>
	<g>
		<path class="st29" d="M849.7,469.2h3.6l-21.5-44.8l-21.5,44.8h3.6l3.7-7.8h12.1v67.4h4.7v-67.4H846L849.7,469.2z M819.2,458.2
			l12.6-26.3l12.6,26.3H819.2z"/>
		<polygon class="st32" points="831.8,424.5 831.8,424.5 831.8,431.9 844.4,458.2 831.8,458.2 831.8,528.9 834.4,528.9 834.4,461.5 
			846,461.5 849.7,469.2 853.3,469.2 		"/>
	</g>
	<g>
		<path class="st29" d="M948.2,488.1h3.6l-21.5-44.8l-21.5,44.8h3.6l3.7-7.8h12.1v67.4h4.7v-67.4h11.6L948.2,488.1z M917.7,477.1
			l12.6-26.3l12.6,26.3H917.7z"/>
		<polygon class="st32" points="930.3,443.3 930.3,443.3 930.3,450.8 942.9,477.1 930.3,477.1 930.3,547.8 932.9,547.8 932.9,480.4 
			944.5,480.4 948.2,488.1 951.8,488.1 		"/>
	</g>
	<g>
		<polygon class="st36" points="826.4,484.5 805,484.5 805,482.5 825.7,482.5 817.8,459 803.8,459 803.8,457 817.1,457 807.8,429.7 
			796.5,429.7 796.5,427.7 807.2,427.7 799.6,405.4 793.8,405.4 793.8,403.4 798.9,403.4 789.8,376.5 775.2,419 786.2,419 
			786.2,421 774.5,421 766.2,445.1 780.9,445.1 780.9,447.2 765.5,447.2 758.8,466.6 772.2,466.6 772.2,468.7 758.1,468.7 
			747.2,500.2 831.8,500.5 		"/>
		<polygon class="st35" points="789.5,500.3 831.8,500.5 826.4,484.5 805,484.5 805,482.5 825.7,482.5 817.8,459 803.8,459 
			803.8,457 817.1,457 807.8,429.7 796.5,429.7 796.5,427.7 807.2,427.7 799.6,405.4 793.8,405.4 793.8,403.4 798.9,403.4 
			789.8,376.5 789.5,377.5 		"/>
		<path class="st7" d="M790.4,538.9h-2.2c-1.9,0-3.4-1.5-3.4-3.4v-99.9c0-1.9,1.5-3.4,3.4-3.4h2.2c1.9,0,3.4,1.5,3.4,3.4v99.9
			C793.8,537.4,792.2,538.9,790.4,538.9z"/>
		<path class="st37" d="M790.4,432.2h-1.1v106.6h1.1c1.9,0,3.4-1.5,3.4-3.4v-99.9C793.8,433.8,792.2,432.2,790.4,432.2z"/>
	</g>
</g>
<g class="st9">
	<path class="st38" d="M-222.7,105h-117.9c-4.9,0-8.9-4-8.9-8.9l0,0c0-4.9,4-8.9,8.9-8.9h117.9c4.9,0,8.9,4,8.9,8.9l0,0
		C-213.7,101-217.7,105-222.7,105z"/>
	
		<ellipse transform="matrix(0.1561 -0.9877 0.9877 0.1561 -288.957 -287.4547)" class="st39" cx="-312.7" cy="25.4" rx="7.4" ry="4.8"/>
	
		<ellipse transform="matrix(0.9985 -5.529833e-02 5.529833e-02 0.9985 -0.7854 -14.8781)" class="st39" cx="-269.2" cy="6.8" rx="5.4" ry="7.4"/>
	<ellipse class="st39" cx="-317.7" cy="42" rx="8.6" ry="13.4"/>
	<path class="st40" d="M-308.1,26.2c0.6-4-1-7.6-3.5-8.1c0,0,0,0,0,0c1.1,1.5,1.6,3.9,1.2,6.5c-0.5,2.9-2,5.3-3.8,6.2
		c1.6,2.4,2.6,5.9,2.6,9.7c0,7.4-3.9,13.4-8.6,13.4c-0.8,0-1.5-0.2-2.2-0.4c1.3,1.3,2.9,2,4.6,2c4.8,0,8.6-6,8.6-13.4
		c0-3.8-1-7.2-2.6-9.7C-310.1,31.4-308.6,29.1-308.1,26.2z"/>
	<ellipse class="st39" cx="-274.6" cy="26.4" rx="10" ry="17.1"/>
	<path class="st41" d="M-264,6.6c-0.1-2.6-1.2-4.8-2.8-6.1c0.5,1.1,0.9,2.3,0.9,3.7c0.2,3.6-1.5,6.7-4,7.5c2,3.1,3.2,7.6,3.2,12.5
		c0,9.4-4.5,17.1-10,17.1c-1.8,0-3.6-0.8-5-2.3c1.8,2.9,4.2,4.7,6.9,4.7c5.5,0,10-7.6,10-17.1c0-4.9-1.2-9.4-3.2-12.5
		C-265.5,13.3-263.8,10.2-264,6.6z"/>
	<polygon class="st39" points="-318.1,63.3 -331.5,97.4 -262.9,96.7 -255.1,51.4 	"/>
	<polygon class="st42" points="-318.1,63.3 -331.6,97.4 -263,96.7 -259,73.7 	"/>
	<polygon class="st43" points="-240.8,90.1 -262.9,96.7 -255.1,51.4 -240.5,48.7 	"/>
	<polygon class="st44" points="-240.8,90.1 -262.9,96.7 -240.5,48.7 	"/>
	<g id="XMLID_00000036960921496713317260000016564038098827789200_" class="st10">
		<g>
			<path class="st28" d="M-208.9,14.1L-219.5,45L-332,66.2l2-15.8c0,0,30.4-3.4,59.5-11.6C-241.3,30.6-208.9,14.1-208.9,14.1z"/>
		</g>
	</g>
	<polygon class="st45" points="-332,66.2 -208.9,14.1 -219.5,45 	"/>
</g>
<path class="st46" d="M679.9,558.5H562c-4.9,0-8.9-4-8.9-8.9l0,0c0-4.9,4-8.9,8.9-8.9h117.9c4.9,0,8.9,4,8.9,8.9l0,0
	C688.8,554.5,684.8,558.5,679.9,558.5z"/>
<ellipse transform="matrix(0.9985 -5.529833e-02 5.529833e-02 0.9985 8.6369 -41.4323)" class="st47" cx="-744.4" cy="-176.8" rx="5.4" ry="7.4"/>
<g class="st9">
	
		<ellipse transform="matrix(0.1561 -0.9877 0.9877 0.1561 -508.6057 -911.6471)" class="st39" cx="-787.8" cy="-158.2" rx="7.4" ry="4.8"/>
	<ellipse class="st39" cx="-792.8" cy="-141.5" rx="8.7" ry="13.4"/>
	<path class="st40" d="M-783.2-157.4c0.6-4-1-7.6-3.5-8.1c0,0,0,0,0,0c1.1,1.5,1.6,3.9,1.2,6.5c-0.5,2.9-2,5.3-3.8,6.2
		c1.6,2.4,2.7,5.9,2.7,9.7c0,7.4-3.9,13.4-8.7,13.4c-0.8,0-1.5-0.1-2.2-0.4c1.3,1.3,2.9,2,4.6,2c4.8,0,8.7-6,8.7-13.4
		c0-3.8-1-7.2-2.7-9.7C-785.2-152.1-783.7-154.4-783.2-157.4z"/>
</g>
<ellipse class="st47" cx="-749.7" cy="-157.1" rx="10" ry="17.1"/>
<path class="st48" d="M-739.1-177c-0.1-2.6-1.2-4.8-2.8-6.1c0.5,1.1,0.9,2.3,0.9,3.7c0.2,3.6-1.5,6.7-4,7.5c2,3.1,3.2,7.6,3.2,12.5
	c0,9.4-4.5,17.1-10,17.1c-1.8,0-3.6-0.9-5-2.3c1.8,2.9,4.2,4.7,6.9,4.7c5.5,0,10-7.6,10-17.1c0-4.9-1.2-9.4-3.2-12.5
	C-740.6-170.3-738.9-173.4-739.1-177z"/>
<ellipse transform="matrix(0.9985 -5.529833e-02 5.529833e-02 0.9985 10.8417 -39.2724)" class="st47" cx="-704.2" cy="-215.5" rx="5.4" ry="7.4"/>
<ellipse class="st47" cx="-709.6" cy="-195.8" rx="10" ry="17.1"/>
<path class="st48" d="M-698.9-215.7c-0.1-2.6-1.2-4.8-2.8-6.1c0.5,1.1,0.9,2.3,0.9,3.7c0.2,3.6-1.5,6.7-4,7.5
	c2,3.1,3.2,7.6,3.2,12.5c0,9.4-4.5,17.1-10,17.1c-1.8,0-3.6-0.9-5-2.3c1.8,2.9,4.2,4.7,6.9,4.7c5.5,0,10-7.6,10-17.1
	c0-4.9-1.2-9.4-3.2-12.5C-700.4-209-698.7-212.1-698.9-215.7z"/>
<polygon class="st31" points="584.5,516.8 571.1,550.9 639.7,550.2 647.5,504.9 "/>
<polygon class="st32" points="584.4,516.8 571,550.9 639.6,550.2 643.6,527.2 "/>
<polygon class="st30" points="661.8,543.6 639.7,550.2 647.5,504.9 662.1,502.2 "/>
<polygon class="st49" points="661.8,543.6 639.7,550.2 662.1,502.2 "/>
<g>
	<polygon class="st50" points="622.6,464.5 622.6,454.7 630.3,446.4 630.3,446.4 634,446.4 636.2,455.4 633.3,464.5 638.5,471 
		638.5,486 631.9,498.2 628,498.2 623.6,498.2 617.5,485.3 617.5,470.5 	"/>
	<polygon class="st17" points="618.1,470.5 624.7,464.5 626.6,455 632.5,446.4 629.3,446.3 621.6,454.7 621.6,464.5 616.4,470.5 
		616.4,485.3 622.6,498.2 623.9,498.2 618.3,485.4 	"/>
	<polygon class="st51" points="634.3,464.4 637.2,455.4 635,446.4 632.4,446.4 634.7,455.4 630.4,464.4 634.8,472.3 634.2,486 
		626,498.2 632.9,498.2 639.5,486 639.5,471 	"/>
</g>
<polygon class="st50" points="580.4,486.1 580.4,478.5 584.7,472.1 586.8,472.1 589.9,472.1 592.4,478.4 590,486.2 593.8,491.1 
	593.8,502.8 588.2,512.2 584.9,512.2 581.3,512.2 576.1,502.2 576.1,490.7 "/>
<polygon class="st17" points="577,491.1 582.5,486.5 582.5,481.2 588.6,472.1 584.7,472.1 579.9,478.9 579.9,486.5 575.5,491.1 
	575.5,502.6 577.7,505.2 577.7,505.2 577.1,502.7 "/>
<polygon class="st51" points="590.3,486.1 593,478.1 589.9,472.1 588.6,472.1 590.6,479.1 587.5,486.1 589,492.1 587.7,502.2 
	581.4,512.8 588.1,512.8 595.2,503.7 594.6,491.2 "/>
<g id="XMLID_00000118380357580489656890000008313534954772304051_">
	<g>
		<path class="st28" d="M693.7,467.7l-10.6,30.9l-112.5,21.2l2-15.8c0,0,30.4-3.4,59.5-11.6C661.3,484.1,693.7,467.7,693.7,467.7z"
			/>
	</g>
</g>
<polygon class="st50" points="570.6,519.8 693.7,467.7 683.1,498.6 "/>
<g id="green">
	<g>
		<g>
			<polygon class="st52" points="317.5,538.8 328.2,557.4 306.8,557.4 			"/>
			<polygon class="st53" points="312.1,539.8 322.8,558.3 301.4,558.3 			"/>
		</g>
		<polygon class="st52" points="301.1,540.8 311.8,559.4 290.4,559.4 		"/>
		<polygon class="st53" points="295.7,541.8 306.4,560.3 285,560.3 		"/>
	</g>
	<g>
		<g>
			<polygon class="st52" points="208.1,496.6 214.9,509.8 201.3,509.8 			"/>
			<polygon class="st53" points="204.7,497.3 211.5,510.5 197.9,510.5 			"/>
		</g>
		<polygon class="st52" points="197.7,498 204.5,511.2 190.9,511.2 		"/>
		<polygon class="st53" points="194.3,498.7 201.1,511.9 187.5,511.9 		"/>
	</g>
	<g>
		<g>
			<polygon class="st52" points="448,496.2 454.8,509.4 441.2,509.4 			"/>
			<polygon class="st53" points="444.5,496.9 451.4,510.1 437.7,510.1 			"/>
		</g>
		<polygon class="st52" points="437.5,497.6 444.4,510.8 430.8,510.8 		"/>
		<polygon class="st53" points="434.1,498.3 440.9,511.5 427.3,511.5 		"/>
	</g>
	<g>
		<g>
			<polygon class="st52" points="552.3,503.2 559.1,516.4 545.5,516.4 			"/>
			<polygon class="st53" points="548.8,503.9 555.6,517 542,517 			"/>
		</g>
		<polygon class="st52" points="541.8,504.6 548.7,517.8 535,517.8 		"/>
		<polygon class="st53" points="538.4,505.3 545.2,518.5 531.6,518.5 		"/>
	</g>
	<g>
		<g>
			<polygon class="st52" points="748.1,503.9 754.9,517 741.3,517 			"/>
			<polygon class="st53" points="744.7,504.5 751.5,517.7 737.9,517.7 			"/>
		</g>
		<polygon class="st52" points="737.7,505.3 744.5,518.5 730.9,518.5 		"/>
		<polygon class="st53" points="734.3,505.9 741.1,519.1 727.5,519.1 		"/>
	</g>
	<g>
		<g>
			<polygon class="st52" points="861.8,498.3 868.6,511.5 855,511.5 			"/>
			<polygon class="st53" points="858.4,499 865.2,512.1 851.5,512.1 			"/>
		</g>
		<polygon class="st52" points="851.4,499.7 858.2,512.9 844.6,512.9 		"/>
		<polygon class="st53" points="848,500.4 854.8,513.5 841.1,513.5 		"/>
	</g>
	<g>
		<g>
			<polygon class="st52" points="399.1,555.1 409.9,573.7 388.4,573.7 			"/>
			<polygon class="st53" points="393.7,556 404.5,574.6 383,574.6 			"/>
		</g>
		<polygon class="st52" points="382.7,557.1 393.4,575.7 372,575.7 		"/>
		<polygon class="st53" points="377.3,558 388,576.6 366.6,576.6 		"/>
	</g>
	<g>
		<g>
			<polygon class="st52" points="574.1,561.4 584.9,580 563.4,580 			"/>
			<polygon class="st53" points="568.7,562.3 579.5,580.9 558,580.9 			"/>
		</g>
		<polygon class="st52" points="557.7,563.4 568.5,582 547,582 		"/>
		<polygon class="st53" points="552.3,564.3 563.1,582.9 541.6,582.9 		"/>
	</g>
	<g>
		<g>
			<polygon class="st52" points="735.4,540.7 746.1,559.3 724.6,559.3 			"/>
			<polygon class="st53" points="730,541.6 740.7,560.2 719.2,560.2 			"/>
		</g>
		<polygon class="st52" points="719,542.7 729.7,561.2 708.2,561.2 		"/>
		<polygon class="st53" points="713.6,543.6 724.3,562.2 702.8,562.2 		"/>
	</g>
	<g>
		<g>
			<polygon class="st52" points="882.8,538 892.2,554.9 873.5,554.9 			"/>
			<polygon class="st53" points="878.1,538.9 887.5,555.7 868.7,555.7 			"/>
		</g>
		<polygon class="st52" points="868.5,539.8 877.9,556.7 859.1,556.7 		"/>
		<polygon class="st53" points="863.8,540.7 873.2,557.5 854.4,557.5 		"/>
	</g>
	<g>
		<g>
			<polygon class="st52" points="488.6,553 497.7,568.3 479.5,568.3 			"/>
			<polygon class="st53" points="484,553.8 493.1,569.1 474.9,569.1 			"/>
		</g>
		<polygon class="st52" points="474.6,554.7 483.8,570 465.5,570 		"/>
		<polygon class="st53" points="470.1,555.4 479.2,570.7 460.9,570.7 		"/>
	</g>
	<g>
		<g>
			<polygon class="st52" points="666.1,560.3 675.2,575.5 657,575.5 			"/>
			<polygon class="st53" points="661.5,561 670.6,576.3 652.4,576.3 			"/>
		</g>
		<polygon class="st52" points="652.1,561.9 661.2,577.2 643,577.2 		"/>
		<polygon class="st53" points="647.5,562.7 656.7,577.9 638.4,577.9 		"/>
	</g>
	<g>
		<g>
			<polygon class="st52" points="815.5,563.7 824.7,579 806.4,579 			"/>
			<polygon class="st53" points="810.9,564.5 820.1,579.8 801.8,579.8 			"/>
		</g>
		<polygon class="st52" points="801.6,565.3 810.7,580.6 792.4,580.6 		"/>
		<polygon class="st53" points="797,566.1 806.1,581.4 787.8,581.4 		"/>
	</g>
	<g>
		<g>
			<polygon class="st52" points="950.5,561.1 959.7,576.4 941.4,576.4 			"/>
			<polygon class="st53" points="946,561.9 955.1,577.2 936.8,577.2 			"/>
		</g>
		<polygon class="st52" points="936.6,562.8 945.7,578 927.5,578 		"/>
		<polygon class="st53" points="932,563.5 941.1,578.8 922.9,578.8 		"/>
	</g>
	<g>
		<g>
			<polygon class="st52" points="1031.3,541.4 1040.4,556.7 1022.2,556.7 			"/>
			<polygon class="st53" points="1026.7,542.2 1035.9,557.4 1017.6,557.4 			"/>
		</g>
		<polygon class="st52" points="1017.4,543 1026.5,558.3 1008.2,558.3 		"/>
		<polygon class="st53" points="1012.8,543.8 1021.9,559.1 1003.6,559.1 		"/>
	</g>
</g>
</svg>
