<?xml version="1.0" encoding="UTF-8"?>
<svg id="Layer_1" data-name="Layer 1" xmlns="http://www.w3.org/2000/svg" viewBox="0 0 462.33 686.64">
  <defs>
    <style>
      .cls-1 {
        fill: #006db7;
      }

      .cls-2 {
        fill: #e4be9d;
      }

      .cls-3 {
        fill: #fceb5d;
      }

      .cls-4 {
        fill: #006735;
      }

      .cls-5 {
        fill: #6c5634;
      }

      .cls-6 {
        fill: #e93e2e;
      }
    </style>
  </defs>
  <g>
    <path d="m462.08,255.61c0,2.2-.84,2.85-2.68,1.45-4.57-3.45-9.96-5.35-15.01-7.87-13.56-6.77-27.7-11.97-42.54-15.18-.87-.19-1.83-.42-2.72-.39l-.04-1.33c1.26-.06,2.65-.34,4.19-.87,17.75,3.58,34.57,9.58,50.15,18.9.98.58,2.02,1.07,4.27,2.26-6.47-13.58-14.78-24.2-23.75-34.17-10.23-11.37-21.17-21.91-33.05-31.26l1.6-1.95c.96.78,1.91,1.57,2.86,2.36,21.49,17.88,40.99,37.48,55.13,61.88,1.15,1.98,1.59,3.97,1.59,6.17Z"/>
    <path class="cls-6" d="m457.7,252.58c-2.25-1.19-3.29-1.68-4.27-2.26-15.58-9.32-32.4-15.32-50.15-18.9-1.54.53-2.93.81-4.19.87-4.72.22-7.73-2.52-10.42-5.82-1.77-2.17-3.41-4.58-5.29-6.55-.81-.84-1.63-1.67-2.39-2.55-10.78-12.47-21.19-25.21-28.71-40.02-1.58-3.1-3.2-6.22-3.38-9.83-.29-5.81,2.01-7.78,7.53-6.32,3.69.99,7.2,2.42,10.64,4.17,12.12,6.19,23.35,13.52,33.83,21.78,11.88,9.35,22.82,19.89,33.05,31.26,8.97,9.97,17.28,20.59,23.75,34.17Z"/>
    <path d="m432.84,364.96c6.69,20.65,9.32,41.46,6.34,62.49l-2.54-.37c1.81-12.75,1.09-25.86-1.59-39.26-1.27-6.34-2.11-12.78-4.32-18.91-2.07-5.73-3.93-6.14-8.21-1.59-4.44,4.72-8.7,9.63-13.15,14.35-3.01,3.2-6.53,5.78-10.94,6.62-5.41,1.03-10.2.45-14.72-3.69-2.52-2.32-5.02-4.67-7.48-7.04l1.93-2c2.95,2.84,6.45,5.08,10.07,8.67-.29-2.31-.51-4.53-.65-6.68l2.37-.13c.33,5.45,2.81,8.69,6.53,8.34,5-.96,8.64-4.15,12.11-7.54,5.15-5,9.43-10.76,14.02-16.25,1.53-1.83,1.26-2.6-.61-3.77-7.65-4.78-15.54-9.14-23.62-13.16l1.13-2.25c9.52,3.55,18.41,8.47,26.82,14.26,3,2.07,5.37,4.42,6.51,7.91Z"/>
    <path d="m436.64,427.08l2.54.37c-.73,5.17-1.8,10.35-3.23,15.55-3.59,13.01-8.82,25.12-19.26,34.29-5.11,4.49-5.85,4.53-10.74.13-1.36-1.22-2.79-2.38-4.02-3.74-2.05-2.27-3.34-2.16-5.39.4-6.64,8.32-13.14,16.74-19.33,25.37l-1.74-1.25c10.79-15.09,21.93-29.95,32.74-45.03,1.6-2.24,5.58-3.95,4.57-6.59-.34-.88-.92-1.44-1.65-1.81l.84-2.15c6.7,2.69,8.31,5.89,6.54,13.42-1.03,4.35-2.48,8.61-3.85,12.87-.51,1.57-1.18,3.04-.64,5.07,5.02-2.57,7.4-7.2,10.02-11.56,6.84-11.39,10.87-23.19,12.6-35.34Zm-20.89,26.71c.19-.95.86-1.98-.27-2.66-1.12-.67-1.95.26-2.51.99-3.61,4.73-7.11,9.54-10.73,14.26-1.25,1.64-.41,2.79.69,3.84,1.78,1.71,3.67,3.3,6,5.37,2.45-7.62,5.32-14.49,6.82-21.8Z"/>
    <path class="cls-6" d="m435.05,387.82c2.68,13.4,3.4,26.51,1.59,39.26-1.73,12.15-5.76,23.95-12.6,35.34-2.62,4.36-5,8.99-10.02,11.56-.54-2.03.13-3.5.64-5.07,1.37-4.26,2.82-8.52,3.85-12.87,1.77-7.53.16-10.73-6.54-13.42-.27-.11-.56-.22-.85-.33-10.15-3.77-20.85-4.85-31.42-4.61-25.77.56-48.29-6.27-66.13-25.72-1.94-2.12-4.15-4.11-7.23-4.77,4.42,4.67,9.23,8.89,13.88,13.28,11.13,10.49,24.36,16.22,39.42,18.63,14.82,2.36,29.86,2.35,44.66,4.7,2.15.35,4.97.02,6.83.97.73.37,1.31.93,1.65,1.81,1.01,2.64-2.97,4.35-4.57,6.59-10.81,15.08-21.95,29.94-32.74,45.03-4.11,5.73-8.16,11.51-12.13,17.34-10.04,14.75-20.67,29.64-20.62,48.85.01,1.98-.87,4.2,1.07,5.53,2.06,1.41,4.41,1.23,6.56-.19,1.38-.91,2.81-1.78,4.13-2.79,7.39-5.69,14.31-11.93,21.04-18.39,1.36-1.31,2.76-2.57,4.19-3.78,6.19-5.25,13.02-9.54,20.7-12.53,1.44-.56,2.92-1,4.21.2,1.36,1.27.73,2.7.16,4.14-1.18,2.95-2.58,5.75-4.5,8.31-6.4,8.53-13.45,16.52-20.78,24.24-6.16,6.48-12.3,12.98-17.94,19.85-9.25,11.27-17.16,23.56-21.6,38.48-9.78-16.05-19.26-31.65-28.77-47.24-2.4-3.93-4.52-8.09-8.15-11.13-.27.22-.54.45-.81.68,2.36,3.79,4.82,7.52,7.05,11.38,8.91,15.42,17.63,30.94,27.44,45.81,4.05,6.13,6.21,6.77,12.81,3.46,1.46-.73,2.92-1.49,4.99-2.55-4.76,9.47-10.02,17.86-15.48,26.1-.13.2-.26.39-.38.57-3.72,5.6-4.02,5.32-9.21.04-9.04-9.19-15.99-19.49-21.49-30.54-5.51-11.05-9.58-22.84-12.86-34.99-4.82-17.81-9.46-35.68-16.4-52.76-7.8-19.22-15.71-38.54-30.53-53.85-3.97-4.09-7.18-8.56-9.34-13.98-1.78-4.46-2.46-8.99-2.66-13.54-.4-9.44,1.31-19-.28-28.35-.2-1.21.7-2.29,1.78-2.8,1.44-.68,2.03.74,2.78,1.51,5.55,5.76,11.03,11.57,16.6,17.3,1.85,1.91,3.43,4.26,6.74,5.47-.56-3.39-2.55-4.98-4.19-6.72-7.07-7.52-14.13-15.04-21.35-22.42-3.25-3.33-5.58-7.1-6.13-11.67-.63-5.27-1.27-10.53-1.14-15.91.28-11.63.33-23.28-2.16-34.77-1.34-6.17-2.34-12.41-3.6-19.18.06.04.13.09.19.13,19.23,12.94,35.92,27.93,53.88,41.28l.78-.87c-14.17-12.03-25.69-27.06-43.31-36.63,5.5-1.1,5.29-3.05,2.74-5.28-4-3.49-8.1-6.86-12.21-10.22-.01-.01-.03-.02-.04-.03-1.45-1.19-2.84-2.37-3.12-4.34-.78-5.41-1.56-10.83-2.25-16.25-.46-3.66.88-4.83,4.25-2.82,1.28.76,2.59,1.49,3.86,2.28,3.52,2.18,6.63.79,8.9-1.77,3.18-3.56,5.86-7.58,8.63-11.49,1.32-1.86,2.5-3.78,2.5-5.77,0-1.33-.52-2.69-1.87-4.09-.76-.8-1.32-1.68-.38-2.57.99-.94,1.83.02,2.59.57,3.36,2.45,6.67,4.95,10.04,7.39.87.63,2.47,2.05,2.85.96,1.26-3.64,3.23-1.15,4.56-.65,2.62.99,5.09,2.4,7.54,3.79,5.42,3.08,10.79,6.26,16.18,9.39-6.37-6.44-14.32-10.39-21.84-15,2.62-3.58,6.61,1.02,9.76-1.77-6.4-4.84-12.67-9.65-19.03-14.34-2.42-1.79-3.04-3.03-.14-5.15,8.21-6.04,16.48-11.68,26.79-13.78,9.62-1.95,14.74-10.38,21.63-16.22.43-.37.63-1.2.67-1.83.34-4.38,2.36-8.27,3.48-12.41.98-3.6,2.22-4.01,5.35-1.76,6.81,4.87,13.77,9.5,20.88,13.91,6.46,4.02,13.03,7.85,19.71,11.5,12.26,6.7,25.22,12.04,39.51,9.83,5.08-.79,6.15,1.1,6.82,4.7.67,3.58.92,7.24,1.26,10.88,1.72,18.62-2.22,36.29-8.45,53.72-4.47,12.48-8.56,25.12-10,38.47-.58,5.34-.72,10.65-.35,16.41.14,2.15.36,4.37.65,6.68-3.62-3.59-7.12-5.83-10.07-8.67-.42-.4-.82-.82-1.22-1.26-13.21-14.54-26.55-28.95-41.87-41.35-.28.31-.55.62-.82.93,13.8,14.75,27.42,29.66,41.98,43.68,2.46,2.37,4.96,4.72,7.48,7.04,4.52,4.14,9.31,4.72,14.72,3.69,4.41-.84,7.93-3.42,10.94-6.62,4.45-4.72,8.71-9.63,13.15-14.35,4.28-4.55,6.14-4.14,8.21,1.59,2.21,6.13,3.05,12.57,4.32,18.91Z"/>
    <path class="cls-4" d="m422,358.2c1.87,1.17,2.14,1.94.61,3.77-4.59,5.49-8.87,11.25-14.02,16.25-3.47,3.39-7.11,6.58-12.11,7.54-3.72.35-6.2-2.89-6.53-8.34-.62-10.25,1.7-20.17,3.26-30.18.46-2.99,1.92-3.83,4.82-2.38.12.06.23.12.35.18,8.08,4.02,15.97,8.38,23.62,13.16Z"/>
    <path class="cls-4" d="m415.48,451.13c1.13.68.46,1.71.27,2.66-1.5,7.31-4.37,14.18-6.82,21.8-2.33-2.07-4.22-3.66-6-5.37-1.1-1.05-1.94-2.2-.69-3.84,3.62-4.72,7.12-9.53,10.73-14.26.56-.73,1.39-1.66,2.51-.99Z"/>
    <path d="m411.97,442.62l-.84,2.15c-1.86-.95-4.68-.62-6.83-.97-14.8-2.35-29.84-2.34-44.66-4.7-15.06-2.41-28.29-8.14-39.42-18.63-4.65-4.39-9.46-8.61-13.88-13.28,3.08.66,5.29,2.65,7.23,4.77,17.84,19.45,40.36,26.28,66.13,25.72,10.57-.24,21.27.84,31.42,4.61.29.11.58.22.85.33Z"/>
    <path d="m407,526.91c3.46,2.66,4.94,5.95,2.1,10.35-6.41,9.96-13.03,19.66-21.58,28.01-8.34,8.13-16.77,16.2-24.16,25.16l-1.8-1.45c5.64-6.87,11.78-13.37,17.94-19.85,7.33-7.72,14.38-15.71,20.78-24.24,1.92-2.56,3.32-5.36,4.5-8.31.57-1.44,1.2-2.87-.16-4.14-1.29-1.2-2.77-.76-4.21-.2-7.68,2.99-14.51,7.28-20.7,12.53l-1.67-1.89c7.47-6.19,15.41-11.78,24.85-15.45-8.84-7.47-22.72-12.6-31.35-19.87,6.77,2.39,16.06,7.01,22.24,10.44,4.63,2.57,9.02,5.67,13.22,8.91Z"/>
    <path d="m407.96,257.7c3.67,13.87,1.8,27.68-.65,41.48-2.22,12.51-6.72,24.32-10.94,36.21-1.27,3.59-1.26,5.76,3.14,7.4l-1.13,2.25c-.12-.06-.23-.12-.35-.18-2.9-1.45-4.36-.61-4.82,2.38-1.56,10.01-3.88,19.93-3.26,30.18l-2.37.13c-.37-5.76-.23-11.07.35-16.41,1.44-13.35,5.53-25.99,10-38.47,6.23-17.43,10.17-35.1,8.45-53.72-.34-3.64-.59-7.3-1.26-10.88-.67-3.6-1.74-5.49-6.82-4.7-14.29,2.21-27.25-3.13-39.51-9.83-6.68-3.65-13.25-7.48-19.71-11.5l1.5-2.43c5.15,3.2,10.5,6.09,16.21,8.37,4.76,1.91,5.5,1.26,5.75-3.76.06-1.32.08-2.67-.06-3.99-.73-6.98-2.59-13.66-4.78-20.24l2.08-.71c.99,2.98,1.96,5.97,2.92,8.96,1.36,4.25,2.21,8.67,3.08,13.06.45,2.28.72,4.9-.8,6.77-3.39,4.2-.47,4.95,2.74,6.42,6.57,3.01,13.37,5.01,20.5,5.91,1.79.22,3.65.26,5.44.05,4.93-.57,5.95-2.5,3.7-7.09-2.71-5.53-6.05-10.61-10.27-15.21-.04-.04-.07-.08-.11-.12l1.69-1.56c2.69,3.3,5.7,6.04,10.42,5.82l.04,1.33c-.92.04-1.77.35-2.35,1.27-1.09,1.72.9,2.95,1.68,4.27,3.55,5.99,7.69,11.69,9.5,18.54Z"/>
    <path d="m402.5,185.2l-1.6,1.95c-10.48-8.26-21.71-15.59-33.83-21.78-3.44-1.75-6.95-3.18-10.64-4.17-5.52-1.46-7.82.51-7.53,6.32.18,3.61,1.8,6.73,3.38,9.83,7.52,14.81,17.93,27.55,28.71,40.02.76.88,1.58,1.71,2.39,2.55,1.88,1.97,3.52,4.38,5.29,6.55l-1.69,1.56c-6.59-7.16-13.48-14.05-19.16-22.06-5.57-7.85-11.06-15.75-17.02-23.51,2.98,8.94,6.03,17.86,8.98,26.82l-2.08.71c-1.22-3.65-2.53-7.26-3.81-10.89-3.87-10.96-8.06-21.82-8.91-33.57-.45-6.26,3.27-9.55,9.26-8.01,4.33,1.11,8.62,2.31,12.73,4.24,13.01,6.1,24.48,14.41,35.53,23.44Z"/>
    <path class="cls-4" d="m397.36,243.36c2.25,4.59,1.23,6.52-3.7,7.09-1.79.21-3.65.17-5.44-.05-7.13-.9-13.93-2.9-20.5-5.91-3.21-1.47-6.13-2.22-2.74-6.42,1.52-1.87,1.25-4.49.8-6.77-.87-4.39-1.72-8.81-3.08-13.06-.96-2.99-1.93-5.98-2.92-8.96-2.95-8.96-6-17.88-8.98-26.82,5.96,7.76,11.45,15.66,17.02,23.51,5.68,8.01,12.57,14.9,19.16,22.06.04.04.07.08.11.12,4.22,4.6,7.56,9.68,10.27,15.21Z"/>
    <path class="cls-4" d="m371.54,507.56c8.63,7.27,22.51,12.4,31.35,19.87-9.44,3.67-17.38,9.26-24.85,15.45-5.81,4.8-11.34,9.96-17.06,14.85-3.16,2.71-6.43,5.28-9.68,7.86-1.16.92-2.43,2.07-4.03,1.23-1.61-.85-1.4-2.58-1.28-4.03.82-10.31,4.42-19.8,9.28-28.74,4.97-9.15,10.44-17.93,16.27-26.49Z"/>
    <path d="m378.04,542.88l1.67,1.89c-1.43,1.21-2.83,2.47-4.19,3.78-6.73,6.46-13.65,12.7-21.04,18.39-1.32,1.01-2.75,1.88-4.13,2.79-2.15,1.42-4.5,1.6-6.56.19-1.94-1.33-1.06-3.55-1.07-5.53-.05-19.21,10.58-34.1,20.62-48.85,3.97-5.83,8.02-11.61,12.13-17.34l1.74,1.25c-1.92,2.68-3.82,5.38-5.67,8.11-5.83,8.56-11.3,17.34-16.27,26.49-4.86,8.94-8.46,18.43-9.28,28.74-.12,1.45-.33,3.18,1.28,4.03,1.6.84,2.87-.31,4.03-1.23,3.25-2.58,6.52-5.15,9.68-7.86,5.72-4.89,11.25-10.05,17.06-14.85Z"/>
    <path d="m378.16,375.56l-1.93,2c-14.56-14.02-28.18-28.93-41.98-43.68.27-.31.54-.62.82-.93,15.32,12.4,28.66,26.81,41.87,41.35.4.44.8.86,1.22,1.26Z"/>
    <path d="m361.56,588.98l1.8,1.45c-4.44,5.38-8.51,11.07-11.95,17.29-1.36,2.45-1.75,3.85.93,5.67,2.72,1.85,4.88,4.49,7.39,6.66,1.88,1.62,2.11,3.46.71,5.25-7.55,9.63-12.47,20.94-19.79,30.71l-1.99-1.47c.12-.18.25-.37.38-.57,5.46-8.24,10.72-16.63,15.48-26.1-2.07,1.06-3.53,1.82-4.99,2.55-6.6,3.31-8.76,2.67-12.81-3.46-9.81-14.87-18.53-30.39-27.44-45.81-2.23-3.86-4.69-7.59-7.05-11.38.27-.23.54-.46.81-.68,3.63,3.04,5.75,7.2,8.15,11.13,9.51,15.59,18.99,31.19,28.77,47.24,4.44-14.92,12.35-27.21,21.6-38.48Zm-9.38,36.58c1.79-.78,3.66-1.4,5.17-3.2-2.78-2.47-4.58-5.75-7.97-6.8-2.91-.92-2.62,2.33-3.45,3.82-1.41,2.54-3.83,6.17-1.89,8.06,1.83,1.78,5.45-.72,8.14-1.88Z"/>
    <path class="cls-4" d="m357.35,622.36c-1.51,1.8-3.38,2.42-5.17,3.2-2.69,1.16-6.31,3.66-8.14,1.88-1.94-1.89.48-5.52,1.89-8.06.83-1.49.54-4.74,3.45-3.82,3.39,1.05,5.19,4.33,7.97,6.8Z"/>
    <path d="m340.65,656.01c-.08.1-.15.21-.23.31-5.06,6.68-6.24,7.04-12.55,1.43-10.09-8.96-16.46-20.61-22.49-32.39l2.58-1.32c5.5,11.05,12.45,21.35,21.49,30.54,5.19,5.28,5.49,5.56,9.21-.04l1.99,1.47Z"/>
    <path d="m340.58,229.61l-1.5,2.43c-7.11-4.41-14.07-9.04-20.88-13.91-3.13-2.25-4.37-1.84-5.35,1.76-1.12,4.14-3.14,8.03-3.48,12.41-.04.63-.24,1.46-.67,1.83-6.89,5.84-12.01,14.27-21.63,16.22-10.31,2.1-18.58,7.74-26.79,13.78-2.9,2.12-2.28,3.36.14,5.15,6.36,4.69,12.63,9.5,19.03,14.34-3.15,2.79-7.14-1.81-9.76,1.77l-.09-.03c-.67-1.2-2.69-2.17-1.52-3.65,1.37-1.71,3.34.42,5.5.06-6.08-4.22-11.78-8.35-17.68-12.18-3.07-1.99-4.92.98-6.64,2.67-1.83,1.77-.54,3.37,1.08,4.96,5.39,5.29,12.78,5.58,19.26,8.14.02.03.04.05.05.08.01-.02.03-.04.04-.05,7.52,4.61,15.47,8.56,21.84,15-5.39-3.13-10.76-6.31-16.18-9.39-2.45-1.39-4.92-2.8-7.54-3.79-1.33-.5-3.3-2.99-4.56.65-.38,1.09-1.98-.33-2.85-.96-3.37-2.44-6.68-4.94-10.04-7.39-.76-.55-1.6-1.51-2.59-.57-.94.89-.38,1.77.38,2.57,1.35,1.4,1.87,2.76,1.87,4.09l-2.84.04c0-.8-.45-1.5-1.64-1.99-2.5-1.04-2.37,1.62-3.09,2.83-1.37,2.28-.01,5.74-3.32,7.63-1.21-2.21-.83-4.17-.01-6.19,1.44-3.54,2.82-7.11,4.23-10.66.3-.77,1.12-1.85.86-2.25-2.36-3.67-.72-5.7,2.46-7.7,1.4-.89.11-2.44-.74-3.44-1.35-1.57-2.76-3.05-4.24-4.45l1.9-1.61c1.68,1.63,3.29,3.33,4.85,5.08,2.34,2.61,4.51,1.96,6.91.28,3.35-2.33.78-4.25-.76-5.47l2.11-.82c.46.46.93.93,1.39,1.41,2.17,2.24,3.16,1.18,4.84.02,2.08-1.44,2.4-2.83.69-4.88-1.08-1.3-2.34-2.37-3.64-3.39l2.07-1.35c1.33,1.21,2.63,2.45,3.9,3.73.94.94,1.49,3.04,3.41,1.29,1.11-1.02,3.47-.68,3.36-3.45-.52-.84-1.04-1.92-1.72-2.93l2.68-.45c3.03,4.03,5.56,2.71,9.3,1.41,8.29-2.89,14.29-8.83,20.59-14.46,1.8-1.61,1.53-3.22.48-4.85-1.52-2.37-2.99-.38-4.1.47-4.47,3.41-8.38,7.64-14.02,9.31l-.69-.84c4.54-3.64,9.12-7.21,13.58-10.94,2.09-1.74,3.93-3.56,1.55-6.67-2.95-3.84-6.32-7.11-9.97-9.95l1.24-1.66c1.67,1.27,3.3,2.58,4.91,3.92,2.14,1.79,3.83,4.16,5.56,6.38,1.38,1.76,2.33,1.67,3.94.12,6.33-6.12,11.21-12.75,9.21-22.28-.96-.88-1.92-1.77-2.87-2.66-.87-2.07-2.26-3.78-3.77-5.35l1.89-.89c1.01,1.11,2.06,2.21,3.14,3.28,5.59,5.53,6.66,12.79,4.07,20.28-.54,1.56.07,2.23.99,2.89,7.23,5.16,14.34,10.53,21.87,15.22Zm-35-2.98c2.45-2.45,3.09-5.28,4.11-7.91-2.2,1.99-5.99,3.12-4.11,7.91Z"/>
    <path class="cls-1" d="m315.26,196.84c2,9.53-2.88,16.16-9.21,22.28-1.61,1.55-2.56,1.64-3.94-.12-1.73-2.22-3.42-4.59-5.56-6.38-1.61-1.34-3.24-2.65-4.91-3.92-6.83-5.19-14.13-9.68-22.05-13.12,4.76-3.47,10.08-4.91,15.98-4.78-2.45-2.34-5-2.46-7.9-2.08-6.3.81-11.2,4.91-17.04,6.74.01-.01.02-.03.03-.04l-.06.05s.02,0,.03,0c-.83,1.19-1.89,1.83-3.37,1.25-10.83-4.23-21.2-9.99-25.32-21.12-1.21-3.28-2.54-6.44-4-9.52-1.72-3.71-3.63-7.3-5.73-10.86-3.32-5.61-6.56-11.27-10.07-17.3-1.51,2.62-.09,3.97.62,5.34,2.51,4.88,4.99,9.79,7.83,14.48,1.69,2.81,1.28,4.65-1.02,6.82-3.63,3.43-7.22,6.96-10.34,10.84-2.61,3.25-5.9,4.92-9.71,5.51-6.24.97-12.6,1.16-18.79,2.33-6.47,1.23-13.31-.11-20.07,2.83,2.71,1.28,5.04,1.49,7.34,1.34,8.46-.57,16.9-1.66,25.37-1.82,10.75-.2,18.65-4.94,24.74-13.46,1.14-1.61,2.89-2.77,4.13-4.33,2.01-2.53,3.31-2.66,4.16-1,.28.56.51,1.31.7,2.25,1.39,6.97,3.77,13.35,9.14,18.44,5.49,5.21,5.89,6.62-.16,11.32-6.8,5.29-12.12,11.79-17.51,18.25-1.49,1.78-2.98,3.55-4.51,5.3-.44.5-.93.98-1.47,1.35-.35.23-.92.45-1.26.33-2.66-1-3.11-1.13-3.61.9-1.08,4.35-3.86,8.52-1.35,13.38,1.04,2.01,1.07,4.49.99,6.86-.06,1.99-1.68,4.23-2.5,4.22-5.87-.13-11.81.33-17.61-1.01-.74-.17-1.89-.66-1.99-1.18-1.04-5.13-4.59-9.06-6.61-13.7-.29-.67-.55-1.34-.76-2.04-2.82-9.25-7.82-17.52-11.84-26.23-1.5-3.25-3.68-6.78-6.55-8.69-6.49-4.31-9.82-10.5-13.08-17.14-1.57-3.19-1.4-4.91,1.33-7.11,11.43-9.2,21.95-19.4,31.9-30.16,1.9-2.05,3.76-4.13,5.6-6.22,4.32-4.9,8.54-9.88,12.86-14.78,2.13-2.4,4.28-4.76,5.53.76.29,1.28,1.48,2.57,3.61,2.37-1.9-4.51-4.95-8.8-.07-13.37,3.41-3.19,6.35-1.18,9.84-.39-1.47,1.32-4.04.18-4.38,2.73,1.88.87,3.62.19,5.41-.16,3.68-.71,7.3-1.06,10.86-.96,5.64.14,11.14,1.38,16.55,4.07.36.17.71.35,1.06.54,11.86,6.31,19.23,16.12,23.89,28.31.71,1.87,1.07,3.79,3.58,2.45,1.84-.97,2.79.29,3.97,1.11,3.29,2.28,5.73,5.27,7.76,8.52,1.22,1.95,2.3,4,3.33,6.03,2.35,4.63,4.92,9.01,5.56,14.91.5,4.68,6.16,9.71,12.21,13.13-1.72-5.81-7.51-8.07-8.52-13.36,2.28,3.03,4.87,5.67,7.56,8.3.91.89,1.85,1.78,2.76,2.71,1.51,1.57,2.9,3.28,3.77,5.35.95.89,1.91,1.78,2.87,2.66Z"/>
    <path d="m310.51,187.94l-1.89.89c-.91-.93-1.85-1.82-2.76-2.71-2.69-2.63-5.28-5.27-7.56-8.3,1.01,5.29,6.8,7.55,8.52,13.36-6.05-3.42-11.71-8.45-12.21-13.13-.64-5.9-3.21-10.28-5.56-14.91-1.03-2.03-2.11-4.08-3.33-6.03l2.44-1.56c7.11,11.03,13.47,22.57,22.35,32.39Z"/>
    <path d="m307.96,624.04l-2.58,1.32c-.27-.51-.53-1.02-.79-1.53-8.81-17.29-12.64-36.32-18.46-54.65-6.6-20.75-12.74-41.64-23.5-60.79-4.34-7.72-8.85-15.27-15.25-21.56,2.87,6.06,5.1,12.29,6.68,18.73.64,2.64,4.01,3.09,4.04,6.48.09,10.16-.18,20.22-1.77,30.31-.42,2.64-.9,5.27-1.4,7.89l-2.77-.53c.51-3.41-.33-5.88-4.68-6.82-1.12-.24-2.15-.88-3.21-1.37-1.58-.73-3-1.4-4.29-1.98l1.19-2.56c2.8,1.3,5.64,2.52,8.68,3.24,1.4.33,3.15,1.66,3.37-.85.17-1.86,2.2-4.4-.81-5.71-7.61-3.31-15.28-6.48-22.94-9.68-.36-.15-.69-.21-1-.21l-.1-1.83c3.1-.15,6.17.69,9.45,2.17,4.07,1.83,8.28,3.35,12.51,4.79,1.23.42,3.16,2.56,3.99-.35.54-1.84,1.03-4.42-1.13-5.42-7.84-3.63-15.79-7-23.76-10.32-.39-.16-.76-.23-1.12-.23l-.1-1.78c3.25-.2,6.46.71,9.87,2.29,3.9,1.81,7.91,3.43,12,4.76,1.21.4,3.31,2.55,4.19-.05.75-2.25,1.21-5.57-1.4-6.75-8.31-3.79-16.85-7.07-25.31-10.52-.51-.21-.96-.24-1.38-.16l-.14-1.37c3.74-.4,7.39.58,11.28,2.24,3.05,1.31,6.15,2.53,9.21,3.82,2.33.99,2.94.51,2.4-2.11-2.38-11.63-7.43-22.19-12.77-33.42-.55,3.58,2.1,7.46-2.7,9.17.31-7.94.29-15.84.02-23.69l2.69-.09c.2,4.55.88,9.08,2.66,13.54,2.16,5.42,5.37,9.89,9.34,13.98,14.82,15.31,22.73,34.63,30.53,53.85,6.94,17.08,11.58,34.95,16.4,52.76,3.28,12.15,7.35,23.94,12.86,34.99Z"/>
    <path class="cls-3" d="m304.05,228.98c1.05,1.63,1.32,3.24-.48,4.85-6.3,5.63-12.3,11.57-20.59,14.46-3.74,1.3-6.27,2.62-9.3-1.41-.22-.29-.44-.61-.67-.96-5.09-7.9-11.89-14.77-21.04-18.5-2.98-1.21-3.5-2.49-.73-4.79,3.3-2.75,6.22-5.97,9.45-8.82,1.2-1.07,1.44-1.96.67-3.34-2.15.84-3.67,2.2-4.94,4.03-1.8,2.62-4,4.93-6.73,6.61-.85.52-1.71,1.93-2.99.66-.91-.89-.44-1.84.05-2.73,1.41-2.54,2.61-5.19,3.91-7.8,1.3-2.6,2.68-5.15,4.46-7.48,4.41-5.79,8.64-7.75,15.15-4.88,7.13,3.14,14.03,6.72,20.13,11.48,3.65,2.84,7.02,6.11,9.97,9.95,2.38,3.11.54,4.93-1.55,6.67-4.46,3.73-9.04,7.3-13.58,10.94l.69.84c5.64-1.67,9.55-5.9,14.02-9.31,1.11-.85,2.58-2.84,4.1-.47Z"/>
    <path d="m302.27,666.26c4.19,4.63,2.74,9.31-3.29,11.25-10.49,3.37-21.24,5.52-32.01,7.71l-.47-2.31c2.69-.53,5.54-1.36,8.62-2.42,4.86-1.67,9.56-3.99,15.09-3.69,3.23.17,6.37-1.65,9.12-3.63,1.01-.72,1.64-1.62,1.8-2.76-.1-1.57-1.21-2.35-2.12-3.32-2.54-2.72-4.63-5.54-3.23-9.68.8-2.39-1.16-3.63-2.83-4.61-2.58-1.51-5.3-2.76-7.98-4.11-6.48-3.26-11.55-8-15.69-14-4.1-5.93-9.75-10.31-15.82-14.22-4.95-3.2-6.16-8.62-6.69-13.71l2.47-.25c.43,4.42,2.39,8.32,6.27,11.36,6.26,4.89,12.64,9.45,17.3,16.3,4.83,7.09,12.18,11.73,20.08,15.19,5.62,2.45,7.91,5.67,7.63,12.02-.09,2.03.4,3.39,1.75,4.88Z"/>
    <path class="cls-4" d="m299.01,667.09c.91.97,2.02,1.75,2.12,3.32-.16,1.14-.79,2.04-1.8,2.76-2.75,1.98-5.89,3.8-9.12,3.63-5.53-.3-10.23,2.02-15.09,3.69-3.08,1.06-5.93,1.89-8.62,2.42-9.87,1.95-17.43-.26-25.54-10.96-3.96-5.23-8.22-10.36-13.33-14.38-.34-.27-.68-.53-1.03-.79-2.68-2-4.37-9.46-10.41-3.75-1.13,1.07-10.89-5.57-10.97-7.58-.22-5.58-2.64-11.18-.32-16.75.76-1.83.11-5.56,4.46-3.83,1.44.57,1.68-1.31,1.11-2.42-.9-1.78-2.03-3.43-3.07-5.13-.9-1.47-1.65-2.99-2.03-4.58-.36-1.53-.39-3.12.13-4.8,2.69-8.84,1.98-18.14-2.1-25.63-5.63-10.34-8.23-21.67-13.25-32.1-.23-.49-.41-.91-.53-1.27-.64-1.95.45-2.12,3.19-1.77,7.81,1.02,15.17.57,22.39-4.1,12.33-7.97,13.84-8.5,24.78-3.53,1.29.58,2.71,1.25,4.29,1.98,1.06.49,2.09,1.13,3.21,1.37,4.35.94,5.19,3.41,4.68,6.82-.09.57-.21,1.17-.36,1.79-1.93,7.88-4.28,15.78-5.03,23.81-.91,9.75-.98,19.68-.19,29.43.05.66.11,1.34.19,2.02.53,5.09,1.74,10.51,6.69,13.71,6.07,3.91,11.72,8.29,15.82,14.22,4.14,6,9.21,10.74,15.69,14,2.68,1.35,5.4,2.6,7.98,4.11,1.67.98,3.63,2.22,2.83,4.61-1.4,4.14.69,6.96,3.23,9.68Z"/>
    <path d="m291.64,208.7l-1.24,1.66c-6.1-4.76-13-8.34-20.13-11.48-6.51-2.87-10.74-.91-15.15,4.88-1.78,2.33-3.16,4.88-4.46,7.48l-2.13-1.08c.62-1.22,1.24-2.43,1.91-3.63,3.66-6.59,3.62-6.49-2.7-10.19-2.12-1.25-3.27-.9-5.11.68-7.86,6.77-15.22,13.99-21.77,21.95l-2.29-1.92c5.39-6.46,10.71-12.96,17.51-18.25,6.05-4.7,5.65-6.11.16-11.32-5.37-5.09-7.75-11.47-9.14-18.44-.19-.94-.42-1.69-.7-2.25l1.54-.72c1.46,3.08,2.79,6.24,4,9.52,4.12,11.13,14.49,16.89,25.32,21.12,1.48.58,2.54-.06,3.37-1.25,5.84-1.83,10.74-5.93,17.04-6.74,2.9-.38,5.45-.26,7.9,2.08-5.9-.13-11.22,1.31-15.98,4.78,7.92,3.44,15.22,7.93,22.05,13.12Z"/>
    <path d="m288.16,155.55l-2.44,1.56c-2.03-3.25-4.47-6.24-7.76-8.52-1.18-.82-2.13-2.08-3.97-1.11-2.51,1.34-2.87-.58-3.58-2.45-4.66-12.19-12.03-22-23.89-28.31-.35-.19-.7-.37-1.06-.54l1.04-2.02c1.06.59,2.14,1.15,3.24,1.69,3.34,1.64,6.14,3.94,8.82,6.46,8.2,7.71,13.6,18.05,23.28,24.41,1.82,1.2,2.89,3.62,4.18,5.55.73,1.09,1.44,2.18,2.14,3.28Z"/>
    <path d="m280.07,377.92l-.78.87c-17.96-13.35-34.65-28.34-53.88-41.28l1.22-1.79c2.96,2.11,7.27,3.03,11.14,1.72-3.9-3.36-7.6-6.58-11.36-9.73-.13-.11-.26-.23-.4-.35l1.28-1.57c4.11,3.36,8.21,6.73,12.21,10.22,2.55,2.23,2.76,4.18-2.74,5.28,17.62,9.57,29.14,24.6,43.31,36.63Z"/>
    <path d="m273.68,246.88l-2.68.45c-.22-.34-.46-.67-.73-.98-5.87-6.9-13.11-12.17-20.66-17.03-.96-.61-2.12-1.11-3.23-1.26-2.47-.33-4.34,1.3-5.16,3.16-.86,1.94,1.73,1.88,2.78,2.7,6.13,4.79,12.32,9.51,18.05,14.77l-2.07,1.35c-1.31-1.01-2.66-1.96-3.94-3-4.12-3.35-8.09-6.9-12.35-10.05-2.75-2.02-5.55-2.99-8.02-1.28l-2.15-.73c6.48-6.7,10.16-15.35,14.39-23.61.21-.4.41-.8.62-1.21l2.13,1.08c-1.3,2.61-2.5,5.26-3.91,7.8-.49.89-.96,1.84-.05,2.73,1.28,1.27,2.14-.14,2.99-.66,2.73-1.68,4.93-3.99,6.73-6.61,1.27-1.83,2.79-3.19,4.94-4.03.77,1.38.53,2.27-.67,3.34-3.23,2.85-6.15,6.07-9.45,8.82-2.77,2.3-2.25,3.58.73,4.79,9.15,3.73,15.95,10.6,21.04,18.5.23.35.45.67.67.96Z"/>
    <path class="cls-6" d="m273.58,281.77c-2.16.36-4.13-1.77-5.5-.06-1.17,1.48.85,2.45,1.52,3.65-6.48-2.56-13.87-2.85-19.26-8.14-1.62-1.59-2.91-3.19-1.08-4.96,1.72-1.69,3.57-4.66,6.64-2.67,5.9,3.83,11.6,7.96,17.68,12.18Z"/>
    <path class="cls-6" d="m272.72,250.26c.11,2.77-2.25,2.43-3.36,3.45-1.92,1.75-2.47-.35-3.41-1.29-1.27-1.28-2.57-2.52-3.9-3.73-5.73-5.26-11.92-9.98-18.05-14.77-1.05-.82-3.64-.76-2.78-2.7.82-1.86,2.69-3.49,5.16-3.16,1.11.15,2.27.65,3.23,1.26,7.55,4.86,14.79,10.13,20.66,17.03.27.31.51.64.73.98.68,1.01,1.2,2.09,1.72,2.93Z"/>
    <path d="m269.69,285.39s-.03.03-.04.05c-.01-.03-.03-.05-.05-.08l.09.03Z"/>
    <path d="m266.5,682.91l.47,2.31c-.8.16-1.61.33-2.41.49-12.13,2.48-20.56-1.94-26.95-12.01-2.48-3.91-5.66-7.4-8.7-10.92-1.24-1.44-2.44-3.04-3.91-4.04l2.63-1.17c5.11,4.02,9.37,9.15,13.33,14.38,8.11,10.7,15.67,12.91,25.54,10.96Z"/>
    <path class="cls-3" d="m263.62,253.43c1.71,2.05,1.39,3.44-.69,4.88-1.68,1.16-2.67,2.22-4.84-.02-.46-.48-.93-.95-1.39-1.41-7.02-7-14.81-13.1-23.55-18.22.79-1.37,1.63-2.33,2.52-2.95,2.47-1.71,5.27-.74,8.02,1.28,4.26,3.15,8.23,6.7,12.35,10.05,1.28,1.04,2.63,1.99,3.94,3,1.3,1.02,2.56,2.09,3.64,3.39Z"/>
    <path d="m259.6,441.33c1.64,1.74,3.63,3.33,4.19,6.72-3.31-1.21-4.89-3.56-6.74-5.47-5.57-5.73-11.05-11.54-16.6-17.3-.75-.77-1.34-2.19-2.78-1.51-1.08.51-1.98,1.59-1.78,2.8,1.59,9.35-.12,18.91.28,28.35l-2.69.09c-.55-15.9-2.15-31.65-4.2-47.4l2.84-.37c.55,4.57,2.88,8.34,6.13,11.67,7.22,7.38,14.28,14.9,21.35,22.42Z"/>
    <path d="m260.66,195.42s-.02.03-.03.04c-.01,0-.02,0-.03,0l.06-.05Z"/>
    <path d="m256.7,256.88l-2.11.82c-6.48-5.19-12.62-10.84-19.72-15.22-1.55-.95-3.31-1.77-5.16-.64-1.25.77-.62,2.1-.73,3.21-.17,1.85,1.11,2.55,2.47,3.34,4.48,2.62,8.46,5.85,12.14,9.42l-1.9,1.61c-4.43-4.2-9.47-7.63-14.97-10.43-1.7-.86-3.46-.93-5.02.68-4.75,4.89-9.58,9.69-14.37,14.55-3.11,3.15-3.99,7.14-4.4,11.38-.03.28-.05.55-.05.81l-2.25-.04c0-1.11-.39-2.36-.57-3.31-.37-2.02-2.01-1.32-2.78.02-.75,1.3-1.19,2.74-2.9,3.1q-2.92-12.35,11.88-15.7c-.06-.14-.12-.37-.2-.38-2.43-.25-5.27-1.3-7.85-1.81l.28-1.61c2.58.46,5.16.93,7.76,1.26,1.36.17,3.35.89,3.83-1.13.53-2.24-1.56-1.97-2.94-2.34-12.98-3.5-26.28-4-39.6-4.21-2.11-.03-4.28.12-6.21-1.31.01-.07.02-.13.03-.2-.47-.05-.59-.67-1.05-.74h-.01c-.29-.32-.57-.7-.85-1.13l1.4-1.84c.21.13.43.26.65.38,1.84,1.01,3.42,1.7,5.45,1.75,3.81.11,7.61-.23,11.43.62,3.88.85,5.16-.73,3.14-4.35-1.7-3.05-3.16-6.21-4.55-9.39l1.68-.55c2.02,4.64,5.57,8.57,6.61,13.7.1.52,1.25,1.01,1.99,1.18,5.8,1.34,11.74.88,17.61,1.01.82.01,2.44-2.23,2.5-4.22.08-2.37.05-4.85-.99-6.86-2.51-4.86.27-9.03,1.35-13.38.5-2.03.95-1.9,3.61-.9.34.12.91-.1,1.26-.33.54-.37,1.03-.85,1.47-1.35,1.53-1.75,3.02-3.52,4.51-5.3l2.29,1.92c-2.19,2.66-4.28,5.4-6.28,8.23-.76,1.09-1.66,2.09-2.34,3.23-1.45,2.42-3.27,5.06-1.27,7.81,2.37,3.26,5.53.17,8.3.24,2.08.05,1.86-2.58,1.83-4.47-.06-4.37-.36-8.85,3.53-12.18-1.45,5.05-2.01,10.07-1.68,15.2.1,1.67-.15,3.46,1.88,4.18,1.86.66,2.57-1.12,3.71-1.94,1.84-1.31,3.48-2.75,4.98-4.29l2.15.73c-.89.62-1.73,1.58-2.52,2.95,8.74,5.12,16.53,11.22,23.55,18.22Zm-33.34-12.2c-4.15-3.35-6.58-3.76-10.45-.98-3.43,2.45-1.83,4.94-1.65,7.16.16,2.05,2.2,2.46,4.06.75,2.52-2.32,5.18-4.48,8.04-6.93Zm-22.89,22.98c.33-1.7,1.94-2.09,3.13-3.6-2.48-.79-4.39-.69-6.2.43-.94.59-2.38.85-2.27,2.3.12,1.52,1.81,1.12,2.7,1.77,1.17.86,2.36.58,2.64-.9Z"/>
    <path class="cls-6" d="m254.59,257.7c1.54,1.22,4.11,3.14.76,5.47-2.4,1.68-4.57,2.33-6.91-.28-1.56-1.75-3.17-3.45-4.85-5.08-3.68-3.57-7.66-6.8-12.14-9.42-1.36-.79-2.64-1.49-2.47-3.34.11-1.11-.52-2.44.73-3.21,1.85-1.13,3.61-.31,5.16.64,7.1,4.38,13.24,10.03,19.72,15.22Z"/>
    <path d="m252.16,549.71l2.77.53c-2.54,13.17-5.77,26.25-5.13,39.87.21,4.33-.31,8.64-.6,12.96-.08,1.18-.07,2.33.04,3.44l-2.47.25c-.08-.68-.14-1.36-.19-2.02-.79-9.75-.72-19.68.19-29.43.75-8.03,3.1-15.93,5.03-23.81.15-.62.27-1.22.36-1.79Z"/>
    <path class="cls-6" d="m253.19,523.13c2.16,1,1.67,3.58,1.13,5.42-.83,2.91-2.76.77-3.99.35-4.23-1.44-8.44-2.96-12.51-4.79-3.28-1.48-6.35-2.32-9.45-2.17-2.77.13-5.56,1.04-8.57,3.01-7.7,5.05-16.22,9.21-25.96,8.99-1.5,0-3.01.14-4.48-.03-4.25-.46-4.87-3.38-4.35-6.87.59-4.02,3.26-1.44,5-1.41,3,.06,5.96.06,8.96-.33,9.53-1.22,17.48-6.08,25.45-10.9,1.26-.76,2.48-1.82,3.89-1.82.36,0,.73.07,1.12.23,7.97,3.32,15.92,6.69,23.76,10.32Z"/>
    <path class="cls-3" d="m252.87,511.05c2.61,1.18,2.15,4.5,1.4,6.75-.88,2.6-2.98.45-4.19.05-4.09-1.33-8.1-2.95-12-4.76-3.41-1.58-6.62-2.49-9.87-2.29-2.67.15-5.37,1.06-8.26,2.96-7.28,4.8-15.31,8.78-24.87,9.44-1.87-.29-4.15-.83-6.45-.97-2.74-.17-4.11-1.39-3.57-4.11.43-2.21.65-4.59,4.09-4.47,12.91.43,23.88-5.01,34.38-11.74.86-.56,1.66-1.35,2.65-1.54.42-.08.87-.05,1.38.16,8.46,3.45,17,6.73,25.31,10.52Z"/>
    <path class="cls-3" d="m252.41,533.66c3.01,1.31.98,3.85.81,5.71-.22,2.51-1.97,1.18-3.37.85-3.04-.72-5.88-1.94-8.68-3.24-1.56-.72-3.1-1.46-4.66-2.16-5.14-2.29-9.52-2.56-14.8.87-8.19,5.32-17.06,9.81-27.5,8.73-6.3-.65-7.07-1.39-7.42-8.13,2.13.15,4.25.29,6.36.44,12.24.89,21.97-5.42,31.9-11.13,1.14-.66,2.08-1.83,3.42-1.83.31,0,.64.06,1,.21,7.66,3.2,15.33,6.37,22.94,9.68Z"/>
    <path class="cls-6" d="m247.74,196.34c6.32,3.7,6.36,3.6,2.7,10.19-.67,1.2-1.29,2.41-1.91,3.63-.21.41-.41.81-.62,1.21-4.23,8.26-7.91,16.91-14.39,23.61-1.5,1.54-3.14,2.98-4.98,4.29-1.14.82-1.85,2.6-3.71,1.94-2.03-.72-1.78-2.51-1.88-4.18-.33-5.13.23-10.15,1.68-15.2-3.89,3.33-3.59,7.81-3.53,12.18.03,1.89.25,4.52-1.83,4.47-2.77-.07-5.93,3.02-8.3-.24-2-2.75-.18-5.39,1.27-7.81.68-1.14,1.58-2.14,2.34-3.23,2-2.83,4.09-5.57,6.28-8.23,6.55-7.96,13.91-15.18,21.77-21.95,1.84-1.58,2.99-1.93,5.11-.68Z"/>
    <path d="m247.18,285.64l2.84-.04c0,1.99-1.18,3.91-2.5,5.77-2.77,3.91-5.45,7.93-8.63,11.49-2.27,2.56-5.38,3.95-8.9,1.77-1.27-.79-2.58-1.52-3.86-2.28-3.37-2.01-4.71-.84-4.25,2.82.69,5.42,1.47,10.84,2.25,16.25.28,1.97,1.67,3.15,3.12,4.34.01.01.03.02.04.03l-1.28,1.57c-.59-.54-1.27-1.09-2.16-.49-1.11.76-.94,2.03-.84,3.18.21,2.23,1.6,4.23,3.62,5.67l-1.22,1.79c-.06-.04-.13-.09-.19-.13,1.26,6.77,2.26,13.01,3.6,19.18,2.49,11.49,2.44,23.14,2.16,34.77-.13,5.38.51,10.64,1.14,15.91l-2.84.37c-.27-2.07-.55-4.14-.83-6.21-1.38,1.08-.72,3.54-2.95,4.15-1.03-2.77.46-5.18.83-7.67,2.7-18.39,1.25-36.42-4.43-54.14-1.26-3.93-1.9-8.06-2.82-12.09-.15-.65-.32-1.29-.48-1.94-.71-2.9-3.35-3.57-5.45-3.35-2.17.22-1.15,2.76-1.1,4.23.18,4.61.63,9.21,1.06,14.96-4.5-5.58-4.29-11.44-5.59-16.72-.87-3.51-2.25-4.77-5.83-4.12-6.86,1.25-13.74,2.37-20.65,3.3-4.14.56-6.1,3.02-6.74,6.78-.88,5.23-1.63,10.49-2.4,15.74-.17,1.15-.13,2.7-1.67,2.55-1.87-.19-.9-1.81-.77-2.77.66-4.93,1.36-9.86,2.2-14.76.74-4.31-1.54-6.83-5.36-5.67l-.6-2.36c3.35-.91,6.81-1.43,10.28-1.77,10.88-1.09,21.44-4.32,32.71-4.9-.14-.96-1.86-1.07-1.55-2.67,4.48-.22,8.06,3.11,12.9,3.83-.93-8.26-1.24-16.18-3.51-23.87-.34-1.16-.65-2.53-1.72-2.91-5.23-1.84-9.18-6.57-15.31-6.45-10.15.18-20.31-.56-30.45.71-2.87.36-8.03.8-10.85-.85,14.24-2.75,30.79-2.42,45.39-2.87-.89-4.01-3.71-4.04-6.51-4.33-1.39-.14-2.58-.27-3.59-.4l.2-1.61c1.53.26,3.45-.27,4.82-.53,1.67-.32,2.12-1.34,2.12-2.53l2.25.04c-.09,2.74.79,4.9,3.34,6.36,1.17.67,2.7,1.36,2.78,2.68.24,4.12,2.41,5.4,6.21,5.1,1.33-.11,2.76.46,3.31,1.83,1.51,3.76,3.98,6.01,8.24,5.89.42-.01.91.38,1.28.68,5.76,4.71,6.42,4.72,11.08-1.09,2.5-3.11,4.67-6.48,7.01-9.72.61-.85,1.05-1.72,1.05-2.5Z"/>
    <path class="cls-1" d="m248.93,502.95c.54,2.62-.07,3.1-2.4,2.11-3.06-1.29-6.16-2.51-9.21-3.82-3.89-1.66-7.54-2.64-11.28-2.24-2.66.28-5.37,1.25-8.24,3.17-7.09,4.74-15.29,8.07-24.12,8.94-3.59.35-5.64-.28-4.96-4.77.93-6.2-.76-12.67,1.88-18.75.27-.62.04-1.68-.33-2.32-1.03-1.78-1.35-3.53-1.35-5.3,0-3.51,1.28-7.07.87-10.99q5.33,4.04,5.9,10.53c1.65-.99,3.27-1.84,5.52-1.66-17.46-17.82-22.35-41.88-33.57-62.74-.9.31.42,2.06-1.01,2.75-.55-1.14-1.09-2.29-1.63-3.43-3.74-8.03-7.08-16.19-10.06-24.54-4.08-11.42-8.52-22.71-12.79-34.07-.92-2.46-.84-4.78.74-7.08,5.78-8.44,13.21-14.87,22.76-18.63.22-.09.44-.16.65-.23,3.82-1.16,6.1,1.36,5.36,5.67-.84,4.9-1.54,9.83-2.2,14.76-.13.96-1.1,2.58.77,2.77,1.54.15,1.5-1.4,1.67-2.55.77-5.25,1.52-10.51,2.4-15.74.64-3.76,2.6-6.22,6.74-6.78,6.91-.93,13.79-2.05,20.65-3.3,3.58-.65,4.96.61,5.83,4.12,1.3,5.28,1.09,11.14,5.59,16.72-.43-5.75-.88-10.35-1.06-14.96-.05-1.47-1.07-4.01,1.1-4.23,2.1-.22,4.74.45,5.45,3.35.16.65.33,1.29.48,1.94.92,4.03,1.56,8.16,2.82,12.09,5.68,17.72,7.13,35.75,4.43,54.14-.37,2.49-1.86,4.9-.83,7.67,2.23-.61,1.57-3.07,2.95-4.15.28,2.07.56,4.14.83,6.21,2.05,15.75,3.65,31.5,4.2,47.4.27,7.85.29,15.75-.02,23.69,4.8-1.71,2.15-5.59,2.7-9.17,5.34,11.23,10.39,21.79,12.77,33.42Z"/>
    <path class="cls-3" d="m245.93,263.87c.85,1,2.14,2.55.74,3.44-3.18,2-4.82,4.03-2.46,7.7.26.4-.56,1.48-.86,2.25-1.41,3.55-2.79,7.12-4.23,10.66-.82,2.02-1.2,3.98.01,6.19,3.31-1.89,1.95-5.35,3.32-7.63.72-1.21.59-3.87,3.09-2.83,1.19.49,1.64,1.19,1.64,1.99s-.44,1.65-1.05,2.5c-2.34,3.24-4.51,6.61-7.01,9.72-4.66,5.81-5.32,5.8-11.08,1.09-.37-.3-.86-.69-1.28-.68-4.26.12-6.73-2.13-8.24-5.89-.55-1.37-1.98-1.94-3.31-1.83-3.8.3-5.97-.98-6.21-5.1-.08-1.32-1.61-2.01-2.78-2.68-2.55-1.46-3.43-3.62-3.34-6.36,0-.26.02-.53.05-.81.41-4.24,1.29-8.23,4.4-11.38,4.79-4.86,9.62-9.66,14.37-14.55,1.56-1.61,3.32-1.54,5.02-.68,5.5,2.8,10.54,6.23,14.97,10.43,1.48,1.4,2.89,2.88,4.24,4.45Z"/>
    <path d="m246.5,114.16l-1.04,2.02c-5.41-2.69-10.91-3.93-16.55-4.07l.03-1.52c2.01.08,4.08-.26,6.25-1.28-4.91-9.68-13.22-13.02-24.77-9.83,2.31-3.14,2.89-4.1.97-4.88l.84-2.19c3.42,1.29,6.91,2.38,10.4,3.46,5.03,1.56,9.36,3.59,12.18,7.96,3,4.63,7.11,7.76,11.69,10.33Z"/>
    <path d="m241.17,536.98l-1.19,2.56c-10.94-4.97-12.45-4.44-24.78,3.53-7.22,4.67-14.58,5.12-22.39,4.1-2.74-.35-3.83-.18-3.19,1.77l-2.81,1.04c-4.14-10.96-6.46-22.2-5.34-34,.21-2.13.09-4.27,1.92-5.97,1.68-1.58,1.66-3.94,1.87-6.05.81-7.99,1.21-15.99,1.27-24h2.39c0,1.78.32,3.53,1.35,5.31.37.64.6,1.7.33,2.32-2.64,6.08-.95,12.55-1.88,18.75-.68,4.49,1.37,5.12,4.96,4.77,8.83-.87,17.03-4.2,24.12-8.94,2.87-1.92,5.58-2.89,8.24-3.17l.14,1.37c-.99.19-1.79.98-2.65,1.54-10.5,6.73-21.47,12.17-34.38,11.74-3.44-.12-3.66,2.26-4.09,4.47-.54,2.72.83,3.94,3.57,4.11,2.3.14,4.58.68,6.45.97,9.56-.66,17.59-4.64,24.87-9.44,2.89-1.9,5.59-2.81,8.26-2.96l.1,1.78c-1.41,0-2.63,1.06-3.89,1.82-7.97,4.82-15.92,9.68-25.45,10.9-3,.39-5.96.39-8.96.33-1.74-.03-4.41-2.61-5,1.41-.52,3.49.1,6.41,4.35,6.87,1.47.17,2.98.03,4.48.03,9.74.22,18.26-3.94,25.96-8.99,3.01-1.97,5.8-2.88,8.57-3.01l.1,1.83c-1.34,0-2.28,1.17-3.42,1.83-9.93,5.71-19.66,12.02-31.9,11.13-2.11-.15-4.23-.29-6.36-.44.35,6.74,1.12,7.48,7.42,8.13,10.44,1.08,19.31-3.41,27.5-8.73,5.28-3.43,9.66-3.16,14.8-.87,1.56.7,3.1,1.44,4.66,2.16Z"/>
    <path class="cls-6" d="m237.77,337.44c-3.87,1.31-8.18.39-11.14-1.72-2.02-1.44-3.41-3.44-3.62-5.67-.1-1.15-.27-2.42.84-3.18.89-.6,1.57-.05,2.16.49.14.12.27.24.4.35,3.76,3.15,7.46,6.37,11.36,9.73Z"/>
    <path class="cls-4" d="m235.19,109.31c-2.17,1.02-4.24,1.36-6.25,1.28-6.17-.27-11.75-4.53-17.93-5.04-.45-.04-.8-1-1.23-1.5-3.41-4.08-7.81-5.3-12.41-6.04-2.5-.42-5.06-.69-7.54-1.21-.3-1.49,2.3-1.68,1.98-3.84-2.44-.2-3.91,1.44-5.75,2.04-1.66.53-3.71,2.77-4.82-.55-.88-2.65.7-4.01,3.06-4.74,4.4-1.34,8.89-1.09,13.35-.61,3.28.36,3.46,2.02.06,4.77,4.2-.73,7.03-.99,10.01-.28,1.68.4,2.88.69,3.67,1.01,1.92.78,1.34,1.74-.97,4.88,11.55-3.19,19.86.15,24.77,9.83Z"/>
    <path d="m228.94,110.59l-.03,1.52c-3.56-.1-7.18.25-10.86.96-1.79.35-3.53,1.03-5.41.16.34-2.55,2.91-1.41,4.38-2.73-3.49-.79-6.43-2.8-9.84.39-4.88,4.57-1.83,8.86.07,13.37-2.13.2-3.32-1.09-3.61-2.37-1.25-5.52-3.4-3.16-5.53-.76-4.32,4.9-8.54,9.88-12.86,14.78l-1.67-1.47c.14-.19.3-.41.47-.62-.33,0-.67-.1-.81.02l-1.59-1.52c3.52-3.66,6.98-7.36,10.41-11.1,3.33-1.87,7.1-3.35,7.16-8.1,1.38-2.07,2.59-4.27,4.17-6.17,1.95-2.33,1.52-3.58-1.2-4.75-1.9-.82-3.64-1.34-5.26-1.55l.44-2.64c4.6.74,9,1.96,12.41,6.04.43.5.78,1.46,1.23,1.5,6.18.51,11.76,4.77,17.93,5.04Z"/>
    <path d="m227.94,166.07l-1.54.72c-.85-1.66-2.15-1.53-4.16,1-1.24,1.56-2.99,2.72-4.13,4.33-6.09,8.52-13.99,13.26-24.74,13.46-8.47.16-16.91,1.25-25.37,1.82-2.3.15-4.63-.06-7.34-1.34,6.76-2.94,13.6-1.6,20.07-2.83,6.19-1.17,12.55-1.36,18.79-2.33,3.81-.59,7.1-2.26,9.71-5.51,3.12-3.88,6.71-7.41,10.34-10.84,2.3-2.17,2.71-4.01,1.02-6.82-2.84-4.69-5.32-9.6-7.83-14.48-.71-1.37-2.13-2.72-.62-5.34,3.51,6.03,6.75,11.69,10.07,17.3,2.1,3.56,4.01,7.15,5.73,10.86Z"/>
    <path d="m227.63,657.57l-2.63,1.17c-1.55-1.06-3.42-1.44-5.99-.27-.76.35-2.24-.45-3.2-1.03-3.86-2.3-7.65-4.71-11.44-7.1-1.63-1.03-2.68-2.54-3.01-4.41-.92-5.11-2.06-10.54-.19-15.32,2.28-5.83,2.72-11.25,1.46-17.22l2.74-.65c.38,1.59,1.13,3.11,2.03,4.58,1.04,1.7,2.17,3.35,3.07,5.13.57,1.11.33,2.99-1.11,2.42-4.35-1.73-3.7,2-4.46,3.83-2.32,5.57.1,11.17.32,16.75.08,2.01,9.84,8.65,10.97,7.58,6.04-5.71,7.73,1.75,10.41,3.75.35.26.69.52,1.03.79Z"/>
    <path class="cls-6" d="m216.53,298.14c2.27,7.69,2.58,15.61,3.51,23.87-4.84-.72-8.42-4.05-12.9-3.83-.31,1.6,1.41,1.71,1.55,2.67-11.27.58-21.83,3.81-32.71,4.9-3.47.34-6.93.86-10.28,1.77-3.49.93-6.87,2.31-10.02,4.37-1.95,1.28-4.82-.5-6.53,2.5-1.88,3.29-4.68,6.04-7.05,9.05-2.67,3.37-7.43,5.16-11.22,3.76-.53-.19-1.05-.45-1.53-.78-6.97-4.66-14.52-8.76-17.8-17.5-1.42-3.81-4.22-7.22-9.22-9.29,1.39,4.18,5.28,5.69,5.86,9.89-3.77-2.05-7.13-3.87-10.49-5.7,1.54,3.22,4.79,4.17,6.9,7.31-6.53-1.04-12.19,1.02-17.97,2.12-1.67.31-2.71-.14-3.32-1.35-1.34-2.68-2.61-5.49-2.16-8.57,1.23-8.39,3.64-16.52,5.75-24.71.8-3.13,2.59-3.67,5.66-4.09.23-.03.45-.06.67-.07,5.8-.51,10.69,2.93,16.16,3.04,9.82.19,19.66.06,29.48-.28,5.45-.18,11.04-.12,15.99-3.15,2.19-1.34,3.24-2.76,3.34-5.43,2.82,1.65,7.98,1.21,10.85.85,10.14-1.27,20.3-.53,30.45-.71,6.13-.12,10.08,4.61,15.31,6.45,1.07.38,1.38,1.75,1.72,2.91Z"/>
    <path class="cls-6" d="m212.91,243.7c3.87-2.78,6.3-2.37,10.45.98-2.86,2.45-5.52,4.61-8.04,6.93-1.86,1.71-3.9,1.3-4.06-.75-.18-2.22-1.78-4.71,1.65-7.16Z"/>
    <path d="m212.23,92.41l-.84,2.19c-.79-.32-1.99-.61-3.67-1.01-2.98-.71-5.81-.45-10.01.28,3.4-2.75,3.22-4.41-.06-4.77-4.46-.48-8.95-.73-13.35.61-2.36.73-3.94,2.09-3.06,4.74,1.11,3.32,3.16,1.08,4.82.55,1.84-.6,3.31-2.24,5.75-2.04.32,2.16-2.28,2.35-1.98,3.84,2.48.52,5.04.79,7.54,1.21l-.44,2.64c-4.48-.57-8.05,1.21-11.53,5.61-3.5,4.43-6.9,8.95-10.38,13.4l-1.79-1.39c.36-.48.7-.99,1.05-1.48,2.88-4.04,5.82-8.03,8.13-11.22-8.62-6.37-2.65-15.75-5.67-22.74-.98.46-1.84,1.01-2.61,1.62l-1.95-1.86c.51-.4,1.02-.8,1.52-1.2,6.05-4.81,5.35-11.69,5.59-18.27.07-1.71-1.18-2.14-2.59-2.43-9.65-1.96-19.43-2.6-29.23-3.08-1.95-.09-3,.98-3.94,2.5-1.24,2.01-3.02,3.59-5.03,4.78-3.22,1.9-6.45.9-6.88-2.62-.45-3.67-2.4-3.68-5.08-3.64-1.35.02-2.51.06-3.5.16l-.19-1.7c.13-.02.27-.04.4-.06,3-.49,7.23.75,8.61-2.39,2.16-4.89,2.43-10.49-.02-15.5-1.56-3.17-5.12-.58-7.97-1.41,1.29-1.91,2.83-2.64,4.48-2.64.72,0,1.47.14,2.22.38,2.51.79,4.14,2.58,4.74,5.3,1.13,5.03-.13,9.92-.72,14.85-.07.65-.43,1.28-.45,1.93-.06,2.07-1.32,4.33.64,6.1.73.66,1.87.06,2.18-.55.99-1.94,5.83-1.43,3.26-5.87-1.03-1.77,1.9-2.13,3.44-2.03,10.76.69,21.58,1.04,32.17,3.29,3.27.69,4.33.3,4.66-3.27.46-5.09,1.58-10.15,2.77-15.14.99-4.15.45-5.94-4.54-5.62-9.62.63-19.28.71-28.92.74-7.14.02-14.29-.26-21.42-.65l-.51-.03c-.17-.01-.33-.02-.48-.02l.07-2.33c17.55.56,35.1.5,52.61-.97,1.33-.12,2.76.04,3-1.83.2-1.6-.16-3.05-1.43-4.05-1.62-1.26-3.56-1.8-5.6-1.81-1.49,0-3.01.01-4.48.23-1.15.17-2.29.33-3.43.46l-.25-2.18c.96-.13,1.95-.31,2.97-.57,3.93-.98,7.98-.56,11.62,1.56,1.58.92,3.36,1.86,3.47,3.97.27,4.89,2.11,9.72.39,14.72-.53,1.56-1.27,3.79,1.6,4.31,3.37.62,3.47,3.01,3.24,5.69-.34,4.1-1.56,8.32-4.23,11-5.33,5.37-5.21,11.81-5.46,18.39-.03.83-.11,1.67-.27,2.48-.64,3.24.22,4.22,3.63,3.08,5.12-1.72,10.91-3.02,15.53-.05,3.79,2.44,7.77,4.27,11.86,5.81Zm-30.38-26.33c3.82-4.15,5.64-7.95,5.85-12.38-2.71,3.44-5.15,6.88-5.85,12.38Zm1.84-10.89c.96-1.57,1.92-3.14,3.6-5.87-2.89,1.99-3.95,3.5-3.6,5.87Z"/>
    <path class="cls-6" d="m207.14,254.47c1.38.37,3.47.1,2.94,2.34-.48,2.02-2.47,1.3-3.83,1.13-2.6-.33-5.18-.8-7.76-1.26-.68-.12-1.36-.24-2.04-.35-6.92-1.18-8.39-.05-8.79,6.89-.14,2.49-.14,4.99-.16,7.49-.05,8.3-.06,9.53,5.99,10.33,1.01.13,2.2.26,3.59.4,2.8.29,5.62.32,6.51,4.33-14.6.45-31.15.12-45.39,2.87.01-.3.01-.62,0-.95-.33-8.12-.96-16.3.55-24.41.82-4.35,1.95-9.9,2.58-14.33,1.93,1.43,4.1,1.28,6.21,1.31,13.32.21,26.62.71,39.6,4.21Z"/>
    <path class="cls-3" d="m206.06,260.1c.08.01.14.24.2.38q-14.8,3.35-11.88,15.7c1.71-.36,2.15-1.8,2.9-3.1.77-1.34,2.41-2.04,2.78-.02.18.95.57,2.2.57,3.31,0,1.19-.45,2.21-2.12,2.53-1.37.26-3.29.79-4.82.53-1.28-.23-2.29-1.02-2.51-3.01-.63-5.68-2.48-12.65.9-16.87,1.39-1.74,3.63-1.75,6.13-1.26,2.58.51,5.42,1.56,7.85,1.81Z"/>
    <path d="m203.4,582.31c4.08,7.49,4.79,16.79,2.1,25.63-.52,1.68-.49,3.27-.13,4.8l-2.74.65c-.06-.31-.13-.62-.21-.94-2.19-9.21.1-18.91-2.99-28.18-3.79-11.36-8.11-22.5-12.39-33.67-.08-.21-.16-.41-.23-.62l2.81-1.04c.12.36.3.78.53,1.27,5.02,10.43,7.62,21.76,13.25,32.1Z"/>
    <path class="cls-3" d="m202.19,102.2c2.72,1.17,3.15,2.42,1.2,4.75-1.58,1.9-2.79,4.1-4.17,6.17-.06,4.75-3.83,6.23-7.16,8.1-3.43,3.74-6.89,7.44-10.41,11.1-16.62,17.35-34.14,33.78-52.39,49.46-6.91,5.94-9.23,7.76-12.25,4.43-1.29-1.43-2.72-3.82-4.7-7.23-10.91-18.8-17.17-39.15-19.25-60.76-.1-1.03-.14-1.98-.12-2.87.07-4.63,1.72-7.4,5.3-9.24.85-.44,1.8-.82,2.86-1.17,2.4-.79,3.44-.46,3.2,2.28-.69,7.75,1.17,15.19,3.15,22.57,3.01,11.23,6.78,22.22,11.5,32.85,1.02,2.28,2.11,5.76,5.61,3.83,3.54-1.94,7.28-4,9.08-8.05-.25-.06-.49-.09-.71-.09l.86-.03c7.98-3.55,13.93-9.84,20.31-15.44,7.88-6.93,14.52-14.97,20.92-23.2,3.48-4.45,6.88-8.97,10.38-13.4,3.48-4.4,7.05-6.18,11.53-5.61,1.62.21,3.36.73,5.26,1.55Z"/>
    <path class="cls-3" d="m203.6,264.06c-1.19,1.51-2.8,1.9-3.13,3.6-.28,1.48-1.47,1.76-2.64.9-.89-.65-2.58-.25-2.7-1.77-.11-1.45,1.33-1.71,2.27-2.3,1.81-1.12,3.72-1.22,6.2-.43Z"/>
    <path d="m201.21,477.85c-2.25-.18-3.87.67-5.52,1.66q-.57-6.49-5.9-10.53c.41,3.92-.87,7.48-.87,10.99h-2.39c.03-3.97-.02-7.92-.15-11.88-.08-2.57-.78-4.82-1.71-7.18-5.88-14.89-13.66-28.84-21.04-42.98-.48-.92-.95-1.86-1.41-2.79l2.78-.71c.54,1.14,1.08,2.29,1.63,3.43,1.43-.69.11-2.44,1.01-2.75,11.22,20.86,16.11,44.92,33.57,62.74Z"/>
    <path d="m198.49,256.68l-.28,1.61c-2.5-.49-4.74-.48-6.13,1.26-3.38,4.22-1.53,11.19-.9,16.87.22,1.99,1.23,2.78,2.51,3.01l-.2,1.61c-6.05-.8-6.04-2.03-5.99-10.33.02-2.5.02-5,.16-7.49.4-6.94,1.87-8.07,8.79-6.89.68.11,1.36.23,2.04.35Z"/>
    <path class="cls-2" d="m187.7,53.7c-.21,4.43-2.03,8.23-5.85,12.38.7-5.5,3.14-8.94,5.85-12.38Z"/>
    <path class="cls-2" d="m187.29,49.32c-1.68,2.73-2.64,4.3-3.6,5.87-.35-2.37.71-3.88,3.6-5.87Z"/>
    <path d="m183.58,134.44l1.67,1.47c-1.84,2.09-3.7,4.17-5.6,6.22-9.95,10.76-20.47,20.96-31.9,30.16-2.73,2.2-2.9,3.92-1.33,7.11,3.26,6.64,6.59,12.83,13.08,17.14,2.87,1.91,5.05,5.44,6.55,8.69,4.02,8.71,9.02,16.98,11.84,26.23.21.7.47,1.37.76,2.04l-1.68.55c-1.39-3.18-2.7-6.38-4.11-9.56-1.93-4.37-4.1-8.64-6.01-13.05-2.4-5.53-5.48-10.66-10.89-14.44-4.84-3.39-7.97-8.7-10.26-14.44-2.44-6.09-2.81-5.93-7.88-2-4.08,3.15-8.22,6.19-12.7,8.82-.18.11-.36.21-.54.3-3.51,1.82-6.28.93-8.71-1.9-.24-.28-.48-.57-.71-.86l1.85-.71c3.02,3.33,5.34,1.51,12.25-4.43,18.25-15.68,35.77-32.11,52.39-49.46l1.59,1.52c-.33.31-.57.72-.84,1.09.24.01.58.14.71.02.17-.14.32-.32.47-.51Z"/>
    <path class="cls-6" d="m178.72,34.46c4.99-.32,5.53,1.47,4.54,5.62-1.19,4.99-2.31,10.05-2.77,15.14-.33,3.57-1.39,3.96-4.66,3.27-10.59-2.25-21.41-2.6-32.17-3.29-1.54-.1-4.47.26-3.44,2.03,2.57,4.44-2.27,3.93-3.26,5.87-.31.61-1.45,1.21-2.18.55-1.96-1.77-.7-4.03-.64-6.1.02-.65.38-1.28.45-1.93.59-4.93,1.85-9.82.72-14.85-.6-2.72-2.23-4.51-4.74-5.3-.75-.24-1.5-.38-2.22-.38l.03-.54c7.13.39,14.28.67,21.42.65,9.64-.03,19.3-.11,28.92-.74Z"/>
    <path class="cls-5" d="m181.64,25.32c1.27,1,1.63,2.45,1.43,4.05-.24,1.87-1.67,1.71-3,1.83-17.51,1.47-35.06,1.53-52.61.97-.07-.01-.13-.01-.2-.01-2.99-.1-3.34-1.89-1.96-3.34,2.42-2.54,1.08-4-.58-5.85-.85-.94-2.51-2.67-1.45-3.3,4.34-2.55.31-4.59-.13-6.76-.47-2.36-2.54-4.31-1.79-7.66,6.42,6.11,13.58,10.47,21.02,14.41,4.48,2.37,4.47,2.39,5.19-3.4,5.45,8.36,12.83,8.85,20.57,7.94,1.14-.13,2.28-.29,3.43-.46,1.47-.22,2.99-.23,4.48-.23,2.04.01,3.98.55,5.6,1.81Z"/>
    <path class="cls-6" d="m181.52,243.44c2.02,3.62.74,5.2-3.14,4.35-3.82-.85-7.62-.51-11.43-.62-2.03-.05-3.61-.74-5.45-1.75-.22-.12-.44-.25-.65-.38-6.57-4.02-7.9-11.33-10.63-17.49-2.3-5.19-4.29-10.4-7.94-14.8-5.34-6.42-13.24-10.73-15.62-19.66-.31-1.15-1.09-1.65-1.92-1.61l-.16-1.8c.18-.09.36-.19.54-.3,4.48-2.63,8.62-5.67,12.7-8.82,5.07-3.93,5.44-4.09,7.88,2,2.29,5.74,5.42,11.05,10.26,14.44,5.41,3.78,8.49,8.91,10.89,14.44,1.91,4.41,4.08,8.68,6.01,13.05,1.41,3.18,2.72,6.38,4.11,9.56s2.85,6.34,4.55,9.39Z"/>
    <path class="cls-2" d="m176.7,60.69c1.41.29,2.66.72,2.59,2.43-.24,6.58.46,13.46-5.59,18.27-.5.4-1.01.8-1.52,1.2-7.62,5.97-15.53,11.45-24.76,14.81-5.35,1.94-10.68,2.26-16.17.84-4.52-1.16-6.56-3.82-6.52-8.63.02-2.74,2.22-4.79,1.89-7.7-1.61.16-1.97.91-2.47,1.58-.84,1.13-.83,3.37-2.71,3.13-1.83-.23-2.22-2.24-2.89-3.75-2.16-4.91-1.73-10.12-1.53-15.24.27-6.6,1.12-8.36,6.02-8.84.99-.1,2.15-.14,3.5-.16,2.68-.04,4.63-.03,5.08,3.64.43,3.52,3.66,4.52,6.88,2.62,2.01-1.19,3.79-2.77,5.03-4.78.94-1.52,1.99-2.59,3.94-2.5,9.8.48,19.58,1.12,29.23,3.08Z"/>
    <path class="cls-2" d="m176.74,82.83c3.02,6.99-2.95,16.37,5.67,22.74-2.31,3.19-5.25,7.18-8.13,11.22-.35.49-.69,1-1.05,1.48-1.62,2.19-3.41,3.87-6.76,1.48-1.87,3.52-5.31,3.89-8.71,4.32-.31.04-.82.02-.95-.17-2.23-3.47-3.64-.74-5.23.67-1.61,1.43-4.02,2.5-6.73,3.16-5.12,1.25-11.27,1.05-14.95-.94-2.79-1.51-5.53-3.37-8.54-4.19-10.91-2.97-11.11.31-11.41-11.96-.02-.49.03-1-.01-1.49-.41-4.97,2.34-6.74,7.02-6.99-.08,3.22-1.85,5.04-4.04,6.63-2.76,2.01-1,4.83-1.68,7.26,6.22-5.48,8.62-12.6,10.11-21.4.07-.35.12-.7.18-1.05,3.25,7.04,5.9,12.95,11.23,16.99-.68-3.47-3.5-5.9-4.24-10.17,14.55,5.29,25.67-2.28,37.05-8.77.38,3.62-2.88,6.26-1.92,10.64,4.13-6.08,5.08-13.57,10.48-17.84.77-.61,1.63-1.16,2.61-1.62Z"/>
    <path d="m173.23,118.27l1.79,1.39c-6.4,8.23-13.04,16.27-20.92,23.2-6.38,5.6-12.33,11.89-20.31,15.44,3.62-5.75,9.65-8.88,14.53-13.25,6.44-5.77,12.7-11.65,18.72-19-7.71.71-14.74,2.4-21.64,4.03l-.55-2.35c2.71-.66,5.12-1.73,6.73-3.16,1.59-1.41,3-4.14,5.23-.67.13.19.64.21.95.17,3.4-.43,6.84-.8,8.71-4.32,3.35,2.39,5.14.71,6.76-1.48Z"/>
    <path d="m172.18,82.59l1.95,1.86c-5.4,4.27-6.35,11.76-10.48,17.84-.96-4.38,2.3-7.02,1.92-10.64-11.38,6.49-22.5,14.06-37.05,8.77.74,4.27,3.56,6.7,4.24,10.17-5.33-4.04-7.98-9.95-11.23-16.99-.06.35-.11.7-.18,1.05l-2.36-.4c.29-1.6-1.37-1.72-2.43-2.07-1-.34-2.11-.64-3.09-.54l-.43-2.62c1.6-.31,3.46-.21,5.63.3-4.96-6.48-4.82-12.95-4.4-19.46.5-7.82,2.85-15.69-1.04-23.37-1.06-2.1.56-3.25,2.43-3.26,2.91-.01,2.95-1.94,3.93-4,.42-.88.75-1.76,1.01-2.63l2.28.34c-.15.45-.27.97-.35,1.58-.64,4.75-1.86,9.44-3.16,14.07-1.04,3.66.28,4.91,3.48,4.5l.19,1.7c-4.9.48-5.75,2.24-6.02,8.84-.2,5.12-.63,10.33,1.53,15.24.67,1.51,1.06,3.52,2.89,3.75,1.88.24,1.87-2,2.71-3.13.5-.67.86-1.42,2.47-1.58.33,2.91-1.87,4.96-1.89,7.7-.04,4.81,2,7.47,6.52,8.63,5.49,1.42,10.82,1.1,16.17-.84,9.23-3.36,17.14-8.84,24.76-14.81Zm-55.1-32.22c.01-1.38,2.22-2.72.39-4.31-.17-.15-.76-.11-.91.06-1.26,1.45-.08,2.76.52,4.25Z"/>
    <path d="m167.88,22.02l.25,2.18c-7.74.91-15.12.42-20.57-7.94-.72,5.79-.71,5.77-5.19,3.4-7.44-3.94-14.6-8.3-21.02-14.41-.75,3.35,1.32,5.3,1.79,7.66.44,2.17,4.47,4.21.13,6.76-1.06.63.6,2.36,1.45,3.3,1.66,1.85,3,3.31.58,5.85-1.38,1.45-1.03,3.24,1.96,3.34.07,0,.13,0,.2.01l-.07,2.33c-2.35-.08-3.81.38-4.51,2.44l-2.28-.34c2.48-8.33-1.68-16.44-1.46-24.66.07-2.52-.92-5.21-.78-7.88.07-1.25-.62-2.93.84-3.63,1.54-.74,2.31.98,3.25,1.76,5.88,4.9,11.88,9.62,18.71,13.18,1.72.89,3.15,1.63,3.19-1.37.02-1.23-.49-3,1.31-3.32,1.56-.28,2.12,1.38,2.89,2.39,5.08,6.66,11.31,9.98,19.33,8.95Z"/>
    <path d="m165.7,327.52l.6,2.36c-.21.07-.43.14-.65.23-9.55,3.76-16.98,10.19-22.76,18.63-1.58,2.3-1.66,4.62-.74,7.08,4.27,11.36,8.71,22.65,12.79,34.07,2.98,8.35,6.32,16.51,10.06,24.54l-2.78.71c-3.22-6.56-5.93-13.41-8.81-20.69-3.63,7.09-8.51,12.3-10.7,19.61l-2.28-.38c.55-2.04,1.05-4.11,1.48-6.2,1.1-5.38,5.2-9.94,7.07-15.32,1.09-3.14,1.21-5.81-.14-9.05-3.88-9.38-7.29-18.95-11.64-28.13-.61-1.29-.86-2.71-2.59-3.4-1.64-.65-3.24-1.36-4.81-2.12l1.08-2.26c3.79,1.4,8.55-.39,11.22-3.76,2.37-3.01,5.17-5.76,7.05-9.05,1.71-3,4.58-1.22,6.53-2.5,3.15-2.06,6.53-3.44,10.02-4.37Z"/>
    <path d="m161.36,248.75c0,.07-.02.13-.03.2-.35-.25-.69-.56-1.02-.94.46.07.58.69,1.05.74Z"/>
    <path d="m160.85,245.04l-1.4,1.84c-.39.93-.76,1.86-1.1,2.79l-1.74-.65c.37-1,.47-1.9-.1-2.63-1.83-2.34-5.74-2.21-8.84-2.63-14.47-1.95-28.84-1.51-43.1,1.9-3.06.74-5.33,2.08-5.48,5.45-.11,2.56-.18,5.11-.18,7.66h-2.47v-8.42c-2.67-.41-5.27.7-7.88,1.34-2.73.68-2.62,3.04-2.56,5.23.07,2.57,2.02,2.1,3.61,2.18.06,0,.12.01.18.01l-.12,2.31c-1.33,0-3.29.43-6.22,1.08,1.77,1.24,3.42.67,4.93.74,1.33.06,2.35.56,2.41,1.97.09,2.2-1.1,1.09-2.21.89-1.84-.33-1.7,1.28-1.57,2.34.35,2.78.58,5.65,1.46,8.28.7,2.06-.36,2.41-1.67,2.69-1.81.38-2.07-.56-2.07-2.3.01-3.46-.43-6.92-.7-10.38,0-.1-.24-.19-1.78-1.4.74,5.68-.22,10.5,1.56,14.87,1.3,3.2,3.75,1.44,5.97.81l.08,1.94c-1.86.12-3.48.7-3.01,4.21.06.47.15.9.25,1.3l-2.07.22c-1.35-3.98-3.84-7.62-4.48-11.98-.39-2.62-4.97-1.88-7.44-3.13-1.38-.7-6.62.39-2.02-3.97,1.33-1.25-1.6-2.29-2.71-3.26-1.29-1.12-2.79-1.93-1.51-4.04.15-.25.3-.45.45-.62,1.13-1.28,2.29-.59,3.72.18,1.77.95,3.44,3.68,5.55,2.12,2.79-2.04,6.73-3.5,6.6-8.09-.03-1.33.19-2.66.3-3.98-.08-3.55-2.64-5.05-5.57-2.9-4.61,3.37-8.71,7.2-11.93,11.75-.57.79-1.1,1.61-1.61,2.44l-1.87-1.05c3.2-5.16,7.09-9.79,11.75-13.84,1.08-.94,2.64-1.54,3.02-3.53-.89-.94-1.81-2.1-2.91-3.06-1.02-.88-1.94-.02-2.56.67-6.23,7.02-12.28,14.19-17,22.37l-2.07-1.21c.19-.61.3-1.27.54-1.7,4.41-7.88,11.04-14.01,16.47-21.07,2.19-2.83,5.48-4.78,1.4-9.29-4.6,4.99-9.4,9.79-13.65,15.02l-2.18-1.05c4.08-5.16,7.73-10.68,13.01-14.74,2.25-1.73,2.34-3.68.81-5.51-1.77-2.1-2.86.44-4.01,1.21-11.04,7.48-18.52,17.7-23.48,30.03l-2.31-.97c3.84-13.03,12.41-22.64,22.91-30.59,4.05-3.07,4.27-5.52,1.19-9.17-2.03-2.4-3.54-5.24-5.49-7.73-1.55-1.97-3.39-3.72-7.61-3.42-4.61,1.97-10.18,4.95-14.78,9.17-4.15,3.81-7.34,8.63-11.3,12.66-2.67,2.73-3.76,6.02-4.58,9.41l-2.1-.52c.15-.65-.52-1.58-1.05-2.12-1.73-1.75-3.76-3.39-5.96-4.44-2.43-1.15-3.34-3.08-4.1-5.3-2.41-7.08.33-12.65,3.45-18.1.88-1.54,1.8-3.08,2.63-4.64-.98,3.78.38,8.59-4.27,10.91-.44.22-.85,1.23-.72,1.72,1.54,5.83.73,12.72,7.84,16.01,2.21,1.03,3.19.82,4.42-1.04,3.95-6.01,9.34-10.82,13.9-16.33,3.16-3.81,8.46-4.52,12.01-7.85.81-.77,1.79-1.37,3.05-2.31-2.79-1.32-5.07-2.54-7.78-2.82-1.54-.16-2.96-.83-3.49-2.44-.17-.52-.04-1.51.33-1.79,1.54-1.17,3.01,0,4.07.78,3.01,2.2,6.51,3.32,9.77,4.94l-.06-.06c1.6.85,3.74,1.31,4.71,2.63,2.79,3.81,5.68,2.1,8.48.55,8.58-4.74,9.61-7.23,4.75-15.73-5.49-9.62-5.71-19.66-3.54-29.91.83-3.91-2.93-5.82-2.68-9.44,2.48.66,2.47,3.49,4.65,4.67,1.85-2.65,3.3-5.55,4.37-8.64.44-1.26,1.2-2.38,2.43-1.82,1.6.73.46,2.05-.12,2.92-5.28,7.92-7.09,16.6-6.83,26.07.21,7.15,4.94,11.76,8.1,17.3.15.26.49.45.77.61,1.7.93,20.49-.4,21.68-1.75,1.64-1.87.62-5.04,2.8-6.68,5.99-4.51,4.8-9.09,1.86-15.27-6.45-13.55-10.12-28.11-11.64-43.09-.29-2.85-1.61-3.41-3.87-3.02-2.57.45-2.19,1.42-1.38,3.77,1.24,3.61-2.66,4.81-5.01,6.68.86-2.81,2.68-5.01,1.54-8.5-.9-2.75,2.71-3.68,5.03-4.47,1.37-.45,3.41-.4,3.41-1.99l1.81.05c-.02.89.02,1.84.12,2.87,2.08,21.61,8.34,41.96,19.25,60.76,1.98,3.41,3.41,5.8,4.7,7.23l-1.85.71c-1.64-2.03-3.09-4.24-4.53-6.42-1.22-1.83-2.46-3.55-4.61-1.32-2.14,2.21-5.04,4.24-3.74,8.02.32.93,1.33.49,2.18.35,1.81-.3,3.68-1.44,5.75,0-15.76,5.57-18.03,18.78-19.22,32.57-.12,1.44.18,3.04.74,4.37,2.21,5.25,3.47,10.39,2.43,16.32-.94,5.31.57,5.7,5.44,3.74,6.51-2.62,13.45-3.78,20.45-4.28,3.82-.27,7.69-.58,11.48-.24,5.08.47,4.8-1.53,2.82-4.88-.76-1.28-1.45-2.62-2.06-3.99-2.23-4.99-5.8-7.11-11.46-6.71-8.06.58-8.46-.19-7.57-8.34.92-8.52,5.73-15.49,9.21-22.97.48-1.02,1.4-1.63,2.27-1.65.83-.04,1.61.46,1.92,1.61,2.38,8.93,10.28,13.24,15.62,19.66,3.65,4.4,5.64,9.61,7.94,14.8,2.73,6.16,4.06,13.47,10.63,17.49Zm-7.36-3.58c1.2-1.43-.24-3.11-1.04-4.44-2.59-4.27-4.41-8.82-6.12-13.51-1.89-5.16-5.31-9.69-9.42-13.33-4.88-4.33-9.97-8.32-11.94-16.56-4.44,8.15-8.16,14.78-9.83,22.29-1.1,4.97.02,6.73,4.62,6.07,7.94-1.13,12.13,2.79,14.9,9.4.52,1.23,1.3,2.35,1.7,3.61,1.16,3.68,3.15,5.93,7.46,5.49,1.76-.18,3.6.54,5.42.72,1.44.15,3.22,1.49,4.25.26Zm-58.22-45.44c.51-1.19,1.09-2.35,1.91-4.12-6.26.98-11.63,1.86-17.02,2.63-2.92.42-4.1,1.94-4.57,4.88-1.1,6.85.12,12.86,3.54,19.05,3.78,6.86,6.19,14.47,9.19,21.75.74,1.79.27,3.53-.04,5.36-.3,1.74.79,2.8,2.7,2.61,2.27-.23,1.58-1.84,1.14-2.96-1.17-2.95-.9-5.83-.06-8.77.41-1.45.7-3.05-.05-4.4-7.05-12.76-1.69-24.37,3.26-36.03Zm-11.76,48.92c1.85-1.9,2.11-3.67.96-5.6-4.15-6.97-5.04-15.4-10.07-22.01-2.8-3.68-2.25-8.5-3.21-12.76-.58.03-.96-.06-1.22.08q-7.42,3.73-3.06,10.62c3.5,5.55,7.54,10.67,8.83,17.56.87,4.61,4.92,8.02,7.77,12.11Z"/>
    <path d="m160.31,248.01c.33.38.67.69,1.02.94-.63,4.43-1.76,9.98-2.58,14.33-1.51,8.11-.88,16.29-.55,24.41.01.33.01.65,0,.95-.1,2.67-1.15,4.09-3.34,5.43-4.95,3.03-10.54,2.97-15.99,3.15-9.82.34-19.66.47-29.48.28-5.47-.11-10.36-3.55-16.16-3.04l-.25-2.31c.38-.04.78-.1,1.2-.18,6.36-1.22,7.82.47,5.82-6.53l2.04-.58c.5,1.86,1.08,3.71,1.74,5.55.75,2.09,1.68,3.03,4.16,3.32,5.33.62,10.64.24,15.95.44,7.18.38,14.3-.53,21.43-1.06,5.11-.37,7.03-2.56,7-7.71-.07-10.64-.44-21.28,2.23-31.74.39-1.51,1.52-3.17,2.06-4.64l1.74.65c-4.9,13.45-4.17,26.86-3.09,40.31.15-13.58,1.24-28.89,5.04-41.97h.01Z"/>
    <path class="cls-3" d="m159.45,246.88c.28.43.56.81.85,1.13-3.8,13.08-4.89,28.39-5.04,41.97-1.08-13.45-1.81-26.86,3.09-40.31.34-.93.71-1.86,1.1-2.79Z"/>
    <path class="cls-2" d="m167.04,126.05c-6.02,7.35-12.28,13.23-18.72,19-4.88,4.37-10.91,7.5-14.53,13.25l-.86.03c-1.37,0-2.26,1.09-3.09,1.98-2.78,3.01-4.4,2.51-5.87-1.25-3.88-9.89-8.08-19.66-10.85-29.95-.64-2.4-.72-4.1,2.64-2.96,4.72,1.61,9.61,2.82,14.17,4.78,2.96,1.27,5.55,1.36,8.62.7,2.28-.49,4.56-1.02,6.85-1.55,6.9-1.63,13.93-3.32,21.64-4.03Z"/>
    <path class="cls-3" d="m156.51,246.39c.57.73.47,1.63.1,2.63-.54,1.47-1.67,3.13-2.06,4.64-2.67,10.46-2.3,21.1-2.23,31.74.03,5.15-1.89,7.34-7,7.71-7.13.53-14.25,1.44-21.43,1.06-5.31-.2-10.62.18-15.95-.44-2.48-.29-3.41-1.23-4.16-3.32-.66-1.84-1.24-3.69-1.74-5.55-2.34-8.55-3.13-17.27-3.13-26.09,0-2.55.07-5.1.18-7.66.15-3.37,2.42-4.71,5.48-5.45,14.26-3.41,28.63-3.85,43.1-1.9,3.1.42,7.01.29,8.84,2.63Z"/>
    <path class="cls-1" d="m152.45,237.02c.8,1.33,2.24,3.01,1.04,4.44-1.03,1.23-2.81-.11-4.25-.26-1.82-.18-3.66-.9-5.42-.72-4.31.44-6.3-1.81-7.46-5.49-.4-1.26-1.18-2.38-1.7-3.61-2.77-6.61-6.96-10.53-14.9-9.4-4.6.66-5.72-1.1-4.62-6.07,1.67-7.51,5.39-14.14,9.83-22.29,1.97,8.24,7.06,12.23,11.94,16.56,4.11,3.64,7.53,8.17,9.42,13.33,1.71,4.69,3.53,9.24,6.12,13.51Z"/>
    <path class="cls-1" d="m148.84,383.11c1.35,3.24,1.23,5.91.14,9.05-1.87,5.38-5.97,9.94-7.07,15.32-.43,2.09-.93,4.16-1.48,6.2-3.84,14.28-10.43,27.28-17.99,39.97-2.12,3.57-6.13,5.77-7.04,10.09-.24,1.15-1.84,2.74-.04,3.47,1.62.66,2.12-1.09,2.4-2.43.42-1.99,1.44-3.56,3.16-5.13.8,6.07,1.53,11.77,2.33,17.45.1.69.2,1.97,1.41,1.36.45-.23.45-1.36.85-2.73,1.05,2.63,2.23,5.07,3.42,7.43,2.15,4.33,4.32,8.4,5.72,12.84.89,2.81.28,3.99-2.43,4.61-5.57,1.27-11.12,1.98-16.74.22-9.53-3-18.73-6.75-27.55-11.51-3.57-1.93-3.75-4.32-2.09-7.24.64-1.12,1.37-1.78.29-2.93-3.41-3.61-5.43-7.53-6.54-11.64-1.8-6.64-1.23-13.78-.37-20.93.41-3.42.27-6.61-.63-9.84-2.79-10.05-4.12-20.33-2.32-30.6,1.65-9.37,3.05-18.67,2.67-28.2-.49-12.04,1.37-23.9,3.06-35.76.46-3.23,1.63-5.55,5.41-5.97,5.6-.63,11.14-1.69,16.73-2.42.22-.03.43-.05.64-.07,1.56-.11,3.08.16,4.45,1.43,6.19,5.77,13,10.65,20.57,14.31,1.57.76,3.17,1.47,4.81,2.12,1.73.69,1.98,2.11,2.59,3.4,4.35,9.18,7.76,18.75,11.64,28.13Z"/>
    <path d="m145.9,522.62c0,.73,0,1.47-.02,2.2l-1.94-.02c0-.12,0-.24,0-.36.05-2.66-.99-2.91-2.79-1.87-10.49,6.1-21.18,5.04-32.04,1.05-8.75-3.22-17.11-7.27-25.49-11.32-1.8-.87-4.88-2.81-5.76-.88-.46,1-.52,2.38-.21,3.68l-2.36.62c-1.69-6.36-2.44-12.88-1.95-19.51.25-3.49.55-7.42,3.14-9.75,4.46-4.01,4.5-8.69,2.86-13.46-.58-1.67-1.1-3.33-1.55-5l1.81-.49c1.11,4.11,3.13,8.03,6.54,11.64,1.08,1.15.35,1.81-.29,2.93-1.66,2.92-1.48,5.31,2.09,7.24,8.82,4.76,18.02,8.51,27.55,11.51,5.62,1.76,11.17,1.05,16.74-.22,2.71-.62,3.32-1.8,2.43-4.61-1.4-4.44-3.57-8.51-5.72-12.84l1.57-.79c2.4,4.73,5.12,9.28,7.61,13.8,1.55,2.8,2.9,5.56,4.02,8.32l-1.22.49c-.75-2.22-3.12-3.58-5.36-2.66-9.23,3.83-18.29,2.47-27.24-.81-8.6-3.16-16.53-7.79-24.79-11.68-4.45-2.1-5.92-1.12-6.8,3.67-.29,1.54-.17,2.27,1.47,2.99,6.02,2.65,11.9,5.66,17.89,8.39l-1.01,2.14c-4.55-2.07-9.07-4.19-13.65-6.16-1.58-.68-4.03-2.64-5.13.09-.89,2.21-.69,5.19,2.2,6.44,14.27,6.18,27.81,14.36,43.63,16.42.99.13,1.99.18,2.57.23,6.27-.41,11.96-1.23,16.99-4.7,1.77-1.23,2.04-2.61,1.77-4l1.77-.32c.44,2.46.67,4.98.68,7.6Zm-64.12-37.39c1.29-1.37,1.75-2.42.43-4.94-.2,2.32-.29,3.39-.43,4.94Z"/>
    <path d="m143.94,524.8l1.94.02c-.26,12.29-3.1,24.18-6.34,36.01-1.95,7.12-5,14.04-6.25,21.31l-1.9-.24c.54-3.01,1.14-6.01,1.49-9.06.67-5.88,3.56-11,5.06-16.6,1.59-5.94,2.89-11.93,4.06-17.96.58-2.99.78-4.15-3.2-2.89-11.77,3.69-23.31,2.15-34.43-2.99-5.43-2.51-10.84-5.07-16.3-7.51-1.1-.5-2.14-1.16-3.29-1.65l.98-2.28c13.8,6.08,26.99,14.22,43.01,13.29,2.64-.15,5.3-.5,7.88-1.05,4.73-1.01,7.29-4.2,7.29-8.4Z"/>
    <path d="m144.85,127.73l.55,2.35c-2.29.53-4.57,1.06-6.85,1.55-3.07.66-5.66.57-8.62-.7-4.56-1.96-9.45-3.17-14.17-4.78-3.36-1.14-3.28.56-2.64,2.96,2.77,10.29,6.97,20.06,10.85,29.95,1.47,3.76,3.09,4.26,5.87,1.25.83-.89,1.72-1.98,3.09-1.98.22,0,.46.03.71.09-1.8,4.05-5.54,6.11-9.08,8.05-3.5,1.93-4.59-1.55-5.61-3.83-4.72-10.63-8.49-21.62-11.5-32.85-1.98-7.38-3.84-14.82-3.15-22.57.24-2.74-.8-3.07-3.2-2.28-1.06.35-2.01.73-2.86,1.17l-1.01-1.61c4.83-4.59,12.28-1.22,15.98-7.49.62-1.05,1.97-1.56,3.02-.64,1.33,1.17-1.77,1.39-.75,2.73,3.32.22,2.79-2.64,3.4-4.45.05-.14.08-.28.11-.4l2.36.4c-1.49,8.8-3.89,15.92-10.11,21.4.68-2.43-1.08-5.25,1.68-7.26,2.19-1.59,3.96-3.41,4.04-6.63-4.68.25-7.43,2.02-7.02,6.99.04.49,0,1,.01,1.49.3,12.27.5,8.99,11.41,11.96,3.01.82,5.75,2.68,8.54,4.19,3.68,1.99,9.83,2.19,14.95.94Zm-22.23,36.18c-6.91-18.94-15.96-37.31-16.02-58.16-.1,20.84,7.27,39.68,16.02,58.16Z"/>
    <path d="m145.22,515.02l-1.77.32c-.16-.86-.53-1.73-.87-2.57-1.33-3.29-2.81-.37-4.14.22-9.89,4.36-19.91,3.69-29.63-.07-4.65-1.8-9.2-3.83-13.74-5.9l1.01-2.14c7.7,3.51,15.58,6.55,24.16,7.74,6.87.96,13.55.24,19.35-4.15,1.62-1.23,1.6-1.26,1.56-2.22-.02-.45-.1-.87-.24-1.27l1.22-.49c1.41,3.46,2.46,6.93,3.09,10.53Z"/>
    <path class="cls-3" d="m143.93,524.44c0,.12,0,.24,0,.36,0,4.2-2.56,7.39-7.29,8.4-2.58.55-5.24.9-7.88,1.05-16.02.93-29.21-7.21-43.01-13.29-1.76-.77-3.52-1.51-5.3-2.19-1.48-.57-2.44-2.07-2.82-3.67-.31-1.3-.25-2.68.21-3.68.88-1.93,3.96.01,5.76.88,8.38,4.05,16.74,8.1,25.49,11.32,10.86,3.99,21.55,5.05,32.04-1.05,1.8-1.04,2.84-.79,2.79,1.87Z"/>
    <path class="cls-6" d="m143.45,515.34c.27,1.39,0,2.77-1.77,4-5.03,3.47-10.72,4.29-16.99,4.7-.58-.05-1.58-.1-2.57-.23-15.82-2.06-29.36-10.24-43.63-16.42-2.89-1.25-3.09-4.23-2.2-6.44,1.1-2.73,3.55-.77,5.13-.09,4.58,1.97,9.1,4.09,13.65,6.16,4.54,2.07,9.09,4.1,13.74,5.9,9.72,3.76,19.74,4.43,29.63.07,1.33-.59,2.81-3.51,4.14-.22.34.84.71,1.71.87,2.57Z"/>
    <path d="m142.71,414.06c-.14.49-.28.98-.4,1.49-3.33,13.99-7.72,27.95-16.7,39.75-1.78,2.34-1.8,4.89-1.5,7.59.77,7,3.31,13.39,6.39,19.48l-1.57.79c-1.19-2.36-2.37-4.8-3.42-7.43-.4,1.37-.4,2.5-.85,2.73-1.21.61-1.31-.67-1.41-1.36-.8-5.68-1.53-11.38-2.33-17.45-1.72,1.57-2.74,3.14-3.16,5.13-.28,1.34-.78,3.09-2.4,2.43-1.8-.73-.2-2.32.04-3.47.91-4.32,4.92-6.52,7.04-10.09,7.56-12.69,14.15-25.69,17.99-39.97l2.28.38Z"/>
    <path class="cls-4" d="m138.8,535.39c3.98-1.26,3.78-.1,3.2,2.89-1.17,6.03-2.47,12.02-4.06,17.96-1.5,5.6-4.39,10.72-5.06,16.6-.35,3.05-.95,6.05-1.49,9.06-.54,3.02-1.03,6.05-1.14,9.19-.38,10.61,4.6,20.62,2.36,31.57-.7,3.46-1.84,4.84-4.16,5.97-2.46,1.19-5.68,4.61-7.41,2.95-4.82-4.64-7.5-.09-10.55,1.68-2.45,1.43-5.95,2.08-7.25,6.68,4.45-2.28,8.04-4.12,11.63-5.97.25.28.5.57.74.85-2.03,1.36-3.94,2.98-6.13,4.02-1.16.56-2.28,1.15-3.35,1.79-4.64,2.77-8.34,6.41-10.6,11.75-1.26,2.98-4.3,4.39-7.19,5.83-4.39,2.18-9.06,3.2-13.82,3.72-9.84,1.09-19.61.56-29.11-2.43-1.47-.46-4.99-1.08-2.33-3.42,2.27-1.99,1.4-3.2.73-5.02-2.41-6.49-1.52-9.7,3.93-12.96.24-.14.48-.29.74-.43,2.31-1.3,4.75-2.4,7.2-3.41,1.73-.71,3.21-1.46,4.27-3.18,6.23-10.13,13.78-19.08,22.88-26.85,5.84-4.98,10.57-11.49,19.97-9.72-1.55-3.13-3.82-3.13-5.92-3.58-1.37-.29-2.94-.25-2.96-2.54-.05-7.65-1.7-15.13-3.06-22.61-2.07-11.47-1.29-23.51-6.9-34.32-1.37-2.65-2.64-5.59-2.62-8.85,1.3-.1,2.41.19,3.44.63,1.15.49,2.19,1.15,3.29,1.65,5.46,2.44,10.87,5,16.3,7.51,11.12,5.14,22.66,6.68,34.43,2.99Z"/>
    <path class="cls-3" d="m141.15,506.25c.04.96.06.99-1.56,2.22-5.8,4.39-12.48,5.11-19.35,4.15-8.58-1.19-16.46-4.23-24.16-7.74-5.99-2.73-11.87-5.74-17.89-8.39-1.64-.72-1.76-1.45-1.47-2.99.88-4.79,2.35-5.77,6.8-3.67,8.26,3.89,16.19,8.52,24.79,11.68,8.95,3.28,18.01,4.64,27.24.81,2.24-.92,4.61.44,5.36,2.66.14.4.22.82.24,1.27Z"/>
    <path d="m136.96,623.78c.16,2.16,1.17,4.9-.81,6.04-4.42,2.56-8.54,5.9-13.79,6.81-5.34.92-10.14,2.66-14.26,5.38l-1.97-1.38c1.07-.64,2.19-1.23,3.35-1.79,2.19-1.04,4.1-2.66,6.13-4.02-.24-.28-.49-.57-.74-.85-3.59,1.85-7.18,3.69-11.63,5.97,1.3-4.6,4.8-5.25,7.25-6.68,3.05-1.77,5.73-6.32,10.55-1.68,1.73,1.66,4.95-1.76,7.41-2.95,2.32-1.13,3.46-2.51,4.16-5.97,2.24-10.95-2.74-20.96-2.36-31.57.11-3.14.6-6.17,1.14-9.19l1.9.24c-.56,3.3-.76,6.67-.3,10.17,1.37,10.48,3.21,20.9,3.97,31.47Z"/>
    <path class="cls-6" d="m134.35,235.14c1.98,3.35,2.26,5.35-2.82,4.88-3.79-.34-7.66-.03-11.48.24-7,.5-13.94,1.66-20.45,4.28-4.87,1.96-6.38,1.57-5.44-3.74,1.04-5.93-.22-11.07-2.43-16.32-.56-1.33-.86-2.93-.74-4.37,1.19-13.79,3.46-27,19.22-32.57-2.07-1.43-3.94-.29-5.75,0-.85.14-1.86.58-2.18-.35-1.3-3.78,1.6-5.81,3.74-8.02,2.15-2.23,3.39-.51,4.61,1.32,1.44,2.18,2.89,4.39,4.53,6.42.23.29.47.58.71.86,2.43,2.83,5.2,3.72,8.71,1.9l.16,1.8c-.87.02-1.79.63-2.27,1.65-3.48,7.48-8.29,14.45-9.21,22.97-.89,8.15-.49,8.92,7.57,8.34,5.66-.4,9.23,1.72,11.46,6.71.61,1.37,1.3,2.71,2.06,3.99Z"/>
    <path class="cls-6" d="m131.84,39.14c2.45,5.01,2.18,10.61.02,15.5-1.38,3.14-5.61,1.9-8.61,2.39-.13.02-.27.04-.4.06-3.2.41-4.52-.84-3.48-4.5,1.3-4.63,2.52-9.32,3.16-14.07.08-.61.2-1.13.35-1.58.7-2.06,2.16-2.52,4.51-2.44.15,0,.31,0,.48.02l.51.03-.03.54c-1.65,0-3.19.73-4.48,2.64,2.85.83,6.41-1.76,7.97,1.41Z"/>
    <path d="m130.88,347.2l-1.08,2.26c-7.57-3.66-14.38-8.54-20.57-14.31-1.37-1.27-2.89-1.54-4.45-1.43l-.18-2.59c-2.11-3.14-5.36-4.09-6.9-7.31,3.36,1.83,6.72,3.65,10.49,5.7-.58-4.2-4.47-5.71-5.86-9.89,5,2.07,7.8,5.48,9.22,9.29,3.28,8.74,10.83,12.84,17.8,17.5.48.33,1,.59,1.53.78Z"/>
    <path class="cls-4" d="m116.56,92.18c1.06.35,2.72.47,2.43,2.07-.03.12-.06.26-.11.4-.61,1.81-.08,4.67-3.4,4.45-1.02-1.34,2.08-1.56.75-2.73-1.05-.92-2.4-.41-3.02.64-3.7,6.27-11.15,2.9-15.98,7.49-.13-4.74,3.06-5.51,5.02-5.47,4.61.11,7.24-1.63,9.02-5.76.46-1.08,1.27-1.53,2.2-1.63.98-.1,2.09.2,3.09.54Z"/>
    <path class="cls-2" d="m117.47,46.06c1.83,1.59-.38,2.93-.39,4.31-.6-1.49-1.78-2.8-.52-4.25.15-.17.74-.21.91-.06Z"/>
    <path d="m113.04,89.02l.43,2.62c-.93.1-1.74.55-2.2,1.63-1.78,4.13-4.41,5.87-9.02,5.76-1.96-.04-5.15.73-5.02,5.47l1.01,1.61c-3.58,1.84-5.23,4.61-5.3,9.24l-1.81-.05c0-.21-.03-.43-.1-.69-.64-2.36-2.73-.61-4.14-.5-2.84.22-5.57.65-8.18,1.3l-.48-1.98c3.89-.89,7.54-1.89,8.75-7.03.28-1.19,2.51-2.01,3.94-2.82,1.15-.65,2.51-.98,3.21-2.23,1.98-3.53,5.33-4.8,8.99-5.68,1.42-.34,3.24-.26,3.99-1.76,1.39-2.75,3.3-4.38,5.93-4.89Zm-23.54,22.72c1.68-2.54,2.7-4.09,4.17-6.3-3.16.98-5.2,1.82-4.17,6.3Z"/>
    <path class="cls-3" d="m106.6,105.75c.06,20.85,9.11,39.22,16.02,58.16-8.75-18.48-16.12-37.32-16.02-58.16Z"/>
    <path d="m106.13,640.63l1.97,1.38c-4.12,2.72-7.58,6.41-10.27,11.25-1.99,3.59-4.71,5.95-8.67,7.68-11.99,5.25-24.33,4.88-36.74,3.18-13.89-1.91-13.9-3.56-12.95-14.85.07-.82-.03-1.66-.1-2.49-.38-4.27,1.33-7.24,5.08-9.45.72-.43,1.47-.83,2.22-1.24l1.07,2.01c-5.45,3.26-6.34,6.47-3.93,12.96.67,1.82,1.54,3.03-.73,5.02-2.66,2.34.86,2.96,2.33,3.42,9.5,2.99,19.27,3.52,29.11,2.43,4.76-.52,9.43-1.54,13.82-3.72,2.89-1.44,5.93-2.85,7.19-5.83,2.26-5.34,5.96-8.98,10.6-11.75Z"/>
    <path d="m104.6,331.13l.18,2.59c-.21.02-.42.04-.64.07-5.59.73-11.13,1.79-16.73,2.42-3.78.42-4.95,2.74-5.41,5.97-1.69,11.86-3.55,23.72-3.06,35.76.38,9.53-1.02,18.83-2.67,28.2-1.8,10.27-.47,20.55,2.32,30.6.9,3.23,1.04,6.42.63,9.84-.86,7.15-1.43,14.29.37,20.93l-1.81.49c-2-7.29-2.68-14.61-.62-22.23.33-1.21.15-2.68-.18-3.94-2.29-8.71-3.19-17.59-3.7-26.56-.39-6.75,2.05-13.18,2.07-19.78.03-14.35,1.67-28.56,2.93-42.81.48-5.46,2.21-11.34.83-16.33-2.6-9.49-.52-18.15,2.01-26.89,1.29-4.49,1.45-7.82-3.08-10.4-1.32-.75-2.15-2.49-3.03-3.88-3.4-5.47-6.94-10.82-11.61-15.34-10.79-10.46-23.49-18.31-37.09-24.03-8.63-3.62-14.89-9.1-19.69-16.24C1.52,231.97.22,222.82.25,213.67c.02-6.14,5.8-9.25,7.94-14.44l2.25,1.17c-.61,1.22-1.18,2.49-1.68,3.81-.12.3-.22.69-.47.87-6.19,4.44-5.19,10.48-4.45,16.96.96,8.38,2.61,15.97,10.75,20.45,1.02-1.28-.34-2.13-.83-2.96-1.22-2.08-2.05-3.79,1.57-3.51,1.54.12,2.14-.22,2.25-.73l2.1.52c-.74,3.02-1.27,6.1-2.53,8.92-.84,1.88.88,3.03,2.5,3.71,5.59,2.35,10.96,5.13,16.11,8.32,2.01,1.25,2.95.89,3.58-1.28l2.31.97s0,.03-.02.04c-1.41,3.52,2.3,3.23,2.36,5.18,1.64-.02,2.28-.98,2.19-1.92-.41-4.18,2.52-6.96,4.82-9.32,1.54-1.57,2.95-3.25,4.32-4.97l2.18,1.05c-3.3,4.08-6.26,8.41-8.54,13.3-.83,1.8-2.04,3.64.87,4.89,1.98.84,2.57-.07,2.91-1.15l2.07,1.21-.09.15c-1.31,2.29-.35,3.81,1.66,4.89,2.54,1.36,2.46-.92,3.15-2.31.91-1.84,1.91-3.62,2.98-5.34l1.87,1.05c-1.14,1.88-2.13,3.88-2.96,6.01-1.18,3.02.11,5.18,2.29,7.01,6.16,5.19,11.04,11.34,14.55,18.6,1.05,2.17,3.25,3.31,5.35,2.94,2.35-.42,2.39-3.1,2.28-4.94-.09-1.45-.41-2.81-.86-4.14l2.07-.22c.83,3.19,2.94,4.02,5.88,3.69l.25,2.31c-.22,0-.44.04-.67.07-3.07.42-4.86.96-5.66,4.09-2.11,8.19-4.52,16.32-5.75,24.71-.45,3.08.82,5.89,2.16,8.57.61,1.21,1.65,1.66,3.32,1.35,5.78-1.1,11.44-3.16,17.97-2.12Z"/>
    <path class="cls-1" d="m103.05,165.92c2.94,6.18,4.13,10.76-1.86,15.27-2.18,1.64-1.16,4.81-2.8,6.68-1.19,1.35-19.98,2.68-21.68,1.75-.28-.16-.62-.35-.77-.61-3.16-5.54-7.89-10.15-8.1-17.3-.26-9.47,1.55-18.15,6.83-26.07.58-.87,1.72-2.19.12-2.92-1.23-.56-1.99.56-2.43,1.82-1.07,3.09-2.52,5.99-4.37,8.64-2.18-1.18-2.17-4.01-4.65-4.67-.25,3.62,3.51,5.53,2.68,9.44-2.17,10.25-1.95,20.29,3.54,29.91,4.86,8.5,3.83,10.99-4.75,15.73-2.8,1.55-5.69,3.26-8.48-.55-.97-1.32-3.11-1.78-4.71-2.63l.06.06c-3.26-1.62-6.76-2.74-9.77-4.94-1.06-.77-2.53-1.95-4.07-.78-.37.28-.5,1.27-.33,1.79.53,1.61,1.95,2.28,3.49,2.44,2.71.28,4.99,1.5,7.78,2.82-1.26.94-2.24,1.54-3.05,2.31-3.55,3.33-8.85,4.04-12.01,7.85-4.56,5.51-9.95,10.32-13.9,16.33-1.23,1.86-2.21,2.07-4.42,1.04-7.11-3.29-6.3-10.18-7.84-16.01-.13-.49.28-1.5.72-1.72,4.65-2.32,3.29-7.13,4.27-10.91.46-.85.9-1.71,1.29-2.58-.66.76-1.05,1.64-1.29,2.58-.83,1.56-1.75,3.1-2.63,4.64l-1.63-.25c.25-.18.35-.57.47-.87.5-1.32,1.07-2.59,1.68-3.81,3.9-7.79,9.94-13.88,16.7-19.38,1.66-1.35,2.81-2.75,2.88-4.94.15-5.06,2.07-9.2,5.34-12.82.47-.52.96-1.02,1.48-1.52,7.02-6.7,13.08-14.1,15.33-23.91.72-3.19,2.91-5.52,4.82-8.06,5.75-7.68,13.1-12.23,21.72-14.36,2.61-.65,5.34-1.08,8.18-1.3,1.41-.11,3.5-1.86,4.14.5.07.26.1.48.1.69,0,1.59-2.04,1.54-3.41,1.99-2.32.79-5.93,1.72-5.03,4.47,1.14,3.49-.68,5.69-1.54,8.5,2.35-1.87,6.25-3.07,5.01-6.68-.81-2.35-1.19-3.32,1.38-3.77,2.26-.39,3.58.17,3.87,3.02,1.52,14.98,5.19,29.54,11.64,43.09Z"/>
    <path d="m102.04,284.86l-2.04.58c-.13-.44-.27-.92-.42-1.43-.61-2.05-.93-4.18-1.53-6.91.02,4.22-2.33,5.14-5.44,5.69-.83.14-1.82.09-2.75.16l-.08-1.94c.5-.15.99-.23,1.45-.19,1.85.18,3.61-1.24,2.91-3.61-.87-2.92-.68-5.92-1.01-8.88-.59-5.18-.78-6.91-3.46-6.91l.12-2.31c2.04.11,4.1.2,6.65.33v-.67h2.47c0,8.82.79,17.54,3.13,26.09Zm-4.84-13.35v-2.23h-.13v2.23h.13Z"/>
    <path d="m102.8,594.51c-9.4-1.77-14.13,4.74-19.97,9.72-9.1,7.77-16.65,16.72-22.88,26.85-1.06,1.72-2.54,2.47-4.27,3.18-2.45,1.01-4.89,2.11-7.2,3.41-.26.14-.5.29-.74.43l-1.07-2.01c3.7-1.97,7.58-3.84,10.07-7.12,8.31-10.92,17.69-20.75,27.67-30.13,3.95-3.72,6.49-8.14,5.22-14.56-1.77-8.92-2.85-18.01-3.67-27.12-.44-4.92.5-10.11-1.61-14.8-3.49-7.76-5.81-15.92-8.31-24-.27-.88-.52-1.76-.76-2.64l2.36-.62c.38,1.6,1.34,3.1,2.82,3.67,1.78.68,3.54,1.42,5.3,2.19l-.98,2.28c-1.03-.44-2.14-.73-3.44-.63-.02,3.26,1.25,6.2,2.62,8.85,5.61,10.81,4.83,22.85,6.9,34.32,1.36,7.48,3.01,14.96,3.06,22.61.02,2.29,1.59,2.25,2.96,2.54,2.1.45,4.37.45,5.92,3.58Z"/>
    <path class="cls-6" d="m100,285.44c2,7,.54,5.31-5.82,6.53-.42.08-.82.14-1.2.18-2.94.33-5.05-.5-5.88-3.69-.1-.4-.19-.83-.25-1.3-.47-3.51,1.15-4.09,3.01-4.21.93-.07,1.92-.02,2.75-.16,3.11-.55,5.46-1.47,5.44-5.69.6,2.73.92,4.86,1.53,6.91.15.51.29.99.42,1.43Z"/>
    <path class="cls-6" d="m96.44,258.77v.67c-2.55-.13-4.61-.22-6.65-.33-.06,0-.12-.01-.18-.01-1.59-.08-3.54.39-3.61-2.18-.06-2.19-.17-4.55,2.56-5.23,2.61-.64,5.21-1.75,7.88-1.34v8.42Z"/>
    <path class="cls-1" d="m97.18,191.9c-.82,1.77-1.4,2.93-1.91,4.12-4.95,11.66-10.31,23.27-3.26,36.03.75,1.35.46,2.95.05,4.4-.84,2.94-1.11,5.82.06,8.77.44,1.12,1.13,2.73-1.14,2.96-1.91.19-3-.87-2.7-2.61.31-1.83.78-3.57.04-5.36-3-7.28-5.41-14.89-9.19-21.75-3.42-6.19-4.64-12.2-3.54-19.05.47-2.94,1.65-4.46,4.57-4.88,5.39-.77,10.76-1.65,17.02-2.63Z"/>
    <path class="cls-3" d="m94.14,277.21c.7,2.37-1.06,3.79-2.91,3.61-.46-.04-.95.04-1.45.19-2.22.63-4.67,2.39-5.97-.81-1.78-4.37-.82-9.19-1.56-14.87,1.54,1.21,1.77,1.3,1.78,1.4.27,3.46.71,6.92.7,10.38,0,1.74.26,2.68,2.07,2.3,1.31-.28,2.37-.63,1.67-2.69-.88-2.63-1.11-5.5-1.46-8.28-.13-1.06-.27-2.67,1.57-2.34,1.11.2,2.3,1.31,2.21-.89-.06-1.41-1.08-1.91-2.41-1.97-1.51-.07-3.16.5-4.93-.74,2.93-.65,4.89-1.08,6.22-1.08,2.68,0,2.87,1.73,3.46,6.91.33,2.96.14,5.96,1.01,8.88Z"/>
    <path class="cls-4" d="m93.67,105.44c-1.47,2.21-2.49,3.76-4.17,6.3-1.03-4.48,1.01-5.32,4.17-6.3Z"/>
    <path class="cls-3" d="m85.89,292.82c.11,1.84.07,4.52-2.28,4.94-2.1.37-4.3-.77-5.35-2.94-3.51-7.26-8.39-13.41-14.55-18.6-2.18-1.83-3.47-3.99-2.29-7.01.83-2.13,1.82-4.13,2.96-6.01.51-.83,1.04-1.65,1.61-2.44l1.33.92c-.15.17-.3.37-.45.62-1.28,2.11.22,2.92,1.51,4.04,1.11.97,4.04,2.01,2.71,3.26-4.6,4.36.64,3.27,2.02,3.97,2.47,1.25,7.05.51,7.44,3.13.64,4.36,3.13,8,4.48,11.98.45,1.33.77,2.69.86,4.14Z"/>
    <path class="cls-3" d="m83.49,251.91c-.11,1.32-.33,2.65-.3,3.98.13,4.59-3.81,6.05-6.6,8.09-2.11,1.56-3.78-1.17-5.55-2.12-1.43-.77-2.59-1.46-3.72-.18l-1.33-.92c3.22-4.55,7.32-8.38,11.93-11.75,2.93-2.15,5.49-.65,5.57,2.9Z"/>
    <path d="m78.23,113.43l.48,1.98c-8.62,2.13-15.97,6.68-21.72,14.36-1.91,2.54-4.1,4.87-4.82,8.06-2.25,9.81-8.31,17.21-15.33,23.91-.52.5-1.01,1-1.48,1.52l-1.89-1.17c7.52-8.88,13.08-18.97,18.37-29.42,4.77-9.42,13.24-15.74,23.69-18.59.9-.24,1.81-.44,2.7-.65Z"/>
    <path class="cls-6" d="m77.28,244.78c-.38,1.99-1.94,2.59-3.02,3.53-4.66,4.05-8.55,8.68-11.75,13.84-1.07,1.72-2.07,3.5-2.98,5.34-.69,1.39-.61,3.67-3.15,2.31-2.01-1.08-2.97-2.6-1.66-4.89l.09-.15c4.72-8.18,10.77-15.35,17-22.37.62-.69,1.54-1.55,2.56-.67,1.1.96,2.02,2.12,2.91,3.06Z"/>
    <path class="cls-3" d="m71.15,231.49c4.08,4.51.79,6.46-1.4,9.29-5.43,7.06-12.06,13.19-16.47,21.07-.24.43-.35,1.09-.54,1.7-.34,1.08-.93,1.99-2.91,1.15-2.91-1.25-1.7-3.09-.87-4.89,2.28-4.89,5.24-9.22,8.54-13.3,4.25-5.23,9.05-10.03,13.65-15.02Z"/>
    <path class="cls-6" d="m69.14,225.21c1.53,1.83,1.44,3.78-.81,5.51-5.28,4.06-8.93,9.58-13.01,14.74-1.37,1.72-2.78,3.4-4.32,4.97-2.3,2.36-5.23,5.14-4.82,9.32.09.94-.55,1.9-2.19,1.92-.06-1.95-3.77-1.66-2.36-5.18.01-.01.01-.03.02-.04,4.96-12.33,12.44-22.55,23.48-30.03,1.15-.77,2.24-3.31,4.01-1.21Z"/>
    <path class="cls-3" d="m63.44,215.72c3.08,3.65,2.86,6.1-1.19,9.17-10.5,7.95-19.07,17.56-22.91,30.59-.63,2.17-1.57,2.53-3.58,1.28-5.15-3.19-10.52-5.97-16.11-8.32-1.62-.68-3.34-1.83-2.5-3.71,1.26-2.82,1.79-5.9,2.53-8.92.82-3.39,1.91-6.68,4.58-9.41,3.96-4.03,7.15-8.85,11.3-12.66,4.6-4.22,10.17-7.2,14.78-9.17,4.22-.3,6.06,1.45,7.61,3.42,1.95,2.49,3.46,5.33,5.49,7.73Z"/>
    <path d="m33.47,162.09l1.89,1.17c-3.27,3.62-5.19,7.76-5.34,12.82-.07,2.19-1.22,3.59-2.88,4.94-6.76,5.5-12.8,11.59-16.7,19.38l-2.25-1.17c.07-.17.14-.34.2-.51,1.96-5.51,5.84-10.03,10.43-13.78,4.34-3.54,8.01-7.44,8.4-13.45.14-2.28,1.39-4.09,2.9-5.67,1.16-1.22,2.28-2.46,3.35-3.73Z"/>
    <path class="cls-1" d="m16.53,233.17c.53.54,1.2,1.47,1.05,2.12-.11.51-.71.85-2.25.73-3.62-.28-2.79,1.43-1.57,3.51.49.83,1.85,1.68.83,2.96-8.14-4.48-9.79-12.07-10.75-20.45-.74-6.48-1.74-12.52,4.45-16.96l1.63.25c-3.12,5.45-5.86,11.02-3.45,18.1.76,2.22,1.67,4.15,4.1,5.3,2.2,1.05,4.23,2.69,5.96,4.44Z"/>
    <path d="m13.84,198.11c-.39.87-.83,1.73-1.29,2.58.24-.94.63-1.82,1.29-2.58Z"/>
  </g>
  <path d="m312.39,194.18c-.84-.46-1.73-1.36-2.66-.49-.76.71-.33,1.49.53,1.95,3.93,2.11,1.87,4.42.38,6.91-1.37,2.3-4.26,3.51-5.17,7.49,5.8-3.44,9.69-6.89,9.78-13.2-.95-.89-1.91-1.77-2.87-2.66Z"/>
  <path d="m199.22,113.12c-2.39,2.7-4.77,5.4-7.16,8.1,3.33-1.86,7.1-3.34,7.16-8.1Z"/>
  <path d="m335.07,332.95c-3.16-3.04-6.32-6.08-10.44-8.01,2.99,3.21,5.69,6.7,9.62,8.94.27-.31.54-.62.82-.93Z"/>
  <path d="m303.03,569.09c-.4-2.07-.9-4.1-3.18-5.99-.02,2.89,1.46,4.7,2.37,6.67.27-.23.54-.45.8-.68Z"/>
  <path d="m279.29,378.79c1.17,1.34,2.27,2.75,4.72,3.32-.84-2.24-2.32-3.27-3.94-4.19-.26.29-.52.58-.78.87Z"/>
  <path d="m227.33,456.38c1.89,5.23,2.75,10.01.97,14.84-.67,1.82-1.15,3.58-2.63,5.18-2.07,2.22.55,5.08-.02,7.81-.36,1.72.76,3.75,1.68,5.68-.71-9.69,6.45-18.16,3.94-28.12-.52-2.05-.7-4.23-3.94-5.39Z"/>
  <path d="m90.9,448.29c3.54,2.19,5.26,5.34,5.65,9.31.06.66.89,1.66,1.5,1.78,1.39.26,1.44-1.07,1.52-2,.2-2.27,1.38-2.44,3.4-2.25,3.65.34,6.62-1.16,9.1-4.01,5.11-5.9,9.64-12.13,12.73-19.48-3.99,1.76-3.97,2.47-5.72,5.98-2.57,5.19-5.98,9.98-10.51,13.71-2.26,1.86-5.03,1.27-7.56.15-3.1-1.37-6.17-2.8-9.25-4.21l-.86,1.03Z"/>
  <path d="m282.52,669.76c-5.75-.41-10.58,1.72-16.24,2.54,4.71,2.11,11.43.99,16.24-2.54Z"/>
  <path d="m237.09,612.21c2.4.86,4.79,1.75,7.2,2.58.83.28,1.94,1.24,2.49-.1.42-1.01-.44-1.96-1.45-2.2-2.63-.63-5.3-1.1-7.96-1.63-.09.45-.19.9-.28,1.35Z"/>
  <path d="m262.86,672.08c-1.28-.61-2.64-1.05-4.09-.07,1.31,1.71,2.7.5,4.09.07Z"/>
  <path d="m124.92,584.72c1.27,6.05-3.25,11.44-1.38,17.79,1.08,3.67-.4,8.12-6.78,8.25,7.04,3.5,11.54,1.03,10.42-6.08-1.05-6.66-.67-13.36-2.26-19.96Z"/>
  <path d="m186.58,267.82c0-.66-.02-1.33,0-1.99.43-11.07-.08-11.59-11.47-11.72-1-.01-1.99-.02-2.99,0-13.08.18-9.58-1.67-11.64,10.88-.66,4.05-.15,8.28-.18,12.43-.02,2.82,1.23,4.76,4.18,4.08,4.94-1.14,9.91-.6,14.87-.84,6.36-.31,7.08-1.05,6.97-7.37-.03-1.82,0-3.65,0-5.47.09,0,.17,0,.26,0Zm-2.24-.23q0,9.73-9.51,10.77-13.96,1.52-12.17-12.43,1.22-9.52,10.96-9.25,10.73.29,10.72,10.92Z"/>
  <path d="m154.1,69.06c-.89-1.74-2.09-3.06-3.57-2.46-7.15,2.9-14.8.71-22.05,2.39-.9.21-2.34-.22-2.17,1.22.21,1.77,1.66,2.97,3.25,3.43,2.05.59,1.41-.45,1.16-1.88-.33-1.82,1.54-.89,2.41-1,6.85-.9,13.89.77,20.98-1.71Z"/>
  <path d="m141.21,76.92c.14-.23.29-.45.39-.7"/>
  <path d="m285.24,237.92c-3.77-1.01-5.88,1.63-9.06,3.81,4.67,1.63,6.64-2.39,9.75-2.97-.23-.28-.46-.56-.69-.84Z"/>
  <path d="m219.29,277.24c6.15-2.51,10.79-5.68,15.49-8.7,1.05-.68,1.28-1.87.11-2.34-4.29-1.7-1.43-3.67-.41-5.65.69-1.34,2.57-2.78.5-4.27-2.38-1.72-3.13.65-4.09,2.06-1.36,2-2.12,5-5.2,1.31-1.41-1.69-2.03.21-2.36,1.54-1.24,4.98-2.5,9.94-4.04,16.05Zm10.53-9.06c-2.07,1.31-3.85,2.44-6.04,3.83.15-3.03.75-5.07,2.16-7.07,1.38,1.15,2.46,2.05,3.88,3.24Z"/>
  <path d="m149.5,39.63h11.48c-4.12-3.24-7.7-3.41-11.48,0Z"/>
  <path d="m156.7,46.84c.13-1.68-.74-2.56-2.21-2.76-1.65-.22-2.51.84-2.49,2.31.02,1.64,1.16,2.9,2.66,3.14,1.95.31,1.13-1.97,2.04-2.69Z"/>
  <path d="m128.14,48.35c1.4-.34,2.3-1.25,2.45-2.63.15-1.45-1-2.06-2.16-2.06-1.25,0-2.08.89-2.11,2.21-.03,1.23.46,2.2,1.83,2.49Z"/>
  <path d="m146.93,273.22c-.24-6.18.02-12.3,1.75-18.31.79-2.75.19-5.07-3.11-5.59-12.25-1.92-24.47-2.47-36.59,1.03-2.8.81-4.47,2.15-4.83,5.42-1.12,10.13.43,19.85,3.63,29.4.85,2.54,2.51,3.37,5.19,3.68,8.85,1.03,17.64-.18,26.45-.32,6.53-.11,7.57-1.79,7.51-8.32-.02-2.33,0-4.67,0-6.99Zm-16.61,13.09c-6.82.48-11.76,1.03-16.75.12-2-.36-3.3-.97-3.97-3.06-2.67-8.3-3.79-16.79-3.45-25.49.12-3.02,1.61-4.56,4.71-5.42,10.49-2.9,21-2.43,31.62-1.16,3.72.45,4.19,2,3.35,5.35-1.13,4.48-1.46,9.12-1.61,13.79-.16,4.86,2.49,10.96-.83,14.28-3.52,3.53-9.87,1.09-13.09,1.59Z"/>
  <path d="m125.3,279.64c1.56,1.43.62,5.35,3.95,3.99,2.78-1.14,2.49-4.53,2-6.36-.58-2.19-.34-3.72.47-5.54.56-1.27.59-2.65-.2-3.82-2.85-4.27-5.33-8.74-7.54-13.38-.25-.52-.82-1.15-1.32-1.24-1.09-.2-1.16.81-1.42,1.59-1.49,4.55-3.03,9.08-4.53,13.63-.15.46-.36,1.06-.19,1.44,1.92,4.39,3.9,8.75,5.88,13.11.32.71.98.94,1.64.6,1.61-.82,0-2.52,1.27-4.02Zm.06-16.39c2.87,3.81,5.58,7.52,2.05,12.08-1.17,1.51-2.98,1.33-4.47.21-4.02-3.02-4.19-6.36-.7-13.16.15.51.16,1.08.45,1.42,1.68,1.96-1.09,6.61,2.32,6.37,2.18-.15-1.14-4.29.36-6.92Z"/>
  <path class="cls-3" d="m164.76,257.79s-.75.28-1.17,2.3-.94,5.83-.94,5.83l-.77,7.04-.04,2.41.51,1.86,1.17,1.21,2.29.57h3.6l2.98-.4,3.96-.43,3.66-.52,2.46-.87s.08.92.8-.73.96-3.29.96-3.29l.11-3.74v-6.67l-.54-2.77s-.17-1.08-1.06-1.59-2.86-1-2.86-1l-3.84-.27-5.37-.14-2.72.07s-1.05.05-1.68.28-1.51.84-1.51.84Z"/>
</svg>